<!--
  SPDX-License-Identifier: CC0-1.0
  SPDX-FileCopyrightText: 2024 GNOME Foundation, Inc.
-->
<svg xmlns="http://www.w3.org/2000/svg" width="16" height="16">
    <path d="M4 0C2.355 0 1 1.355 1 3v4c0 1.833.88 3.574 2.125 4.984s2.876 2.517 4.615 2.983a1 1 0 0 0 .52 0c1.74-.466 3.37-1.572 4.615-2.983S15 8.834 15 7V3c0-1.645-1.355-3-3-3zm0 2h8c.191 0 .365.051.514.137a1 1 0 0 0-.301.246L7.477 8.41l-1.71-2.05a1 1 0 0 0-1.408-.128 1 1 0 0 0-.127 1.409l2.5 3a1 1 0 0 0 1.555-.024L13 4.62V7c0 1.167-.62 2.524-1.625 3.662-.937 1.061-2.188 1.868-3.375 2.252-1.187-.384-2.438-1.19-3.375-2.252C3.62 9.524 3 8.167 3 7V3c0-.571.429-1 1-1" color="#000" style="-inkscape-stroke:none"/>
</svg>
