<!--
  SPDX-License-Identifier: CC0-1.0
  SPDX-FileCopyrightText: 2024 GNOME Foundation, Inc.
-->
<svg xmlns="http://www.w3.org/2000/svg" width="16" height="16">
    <path d="M8 0C6.847 0 5.85.646 5.348 1.596a2.992 2.992 0 0 0-3.004.748 2.993 2.993 0 0 0-.748 3.004C.646 5.85 0 6.846 0 8s.646 2.15 1.596 2.652a2.992 2.992 0 0 0 .748 3.004 2.993 2.993 0 0 0 3.004.748C5.85 15.354 6.846 16 8 16s2.15-.646 2.652-1.596a2.992 2.992 0 0 0 3.004-.748 2.993 2.993 0 0 0 .748-3.004C15.354 10.15 16 9.153 16 8s-.646-2.15-1.596-2.652a2.992 2.992 0 0 0-.748-3.004 2.993 2.993 0 0 0-3.004-.748A2.993 2.993 0 0 0 8 0m3.393 4.67a.667.667 0 0 1 .379.162.667.667 0 0 1 .062.941L7.17 11.105a.667.667 0 0 1-.975.034l-2-2a.667.667 0 0 1 0-.944.667.667 0 0 1 .944 0L6.635 9.69l4.195-4.795a.667.667 0 0 1 .563-.224"/>
</svg>
