<?xml version="1.0" encoding="UTF-8"?>
<!--
  SPDX-License-Identifier: CC0-1.0
  SPDX-FileCopyrightText: 2024 GNOME Foundation, Inc.
-->
<svg width="16" height="16" version="1.1" xmlns="http://www.w3.org/2000/svg">
 <path d="m8 0c-1.1458 0-2.292 0.43452-3.1621 1.3047l-3.5352 3.5352c-1.7364 1.7364-1.7364 4.582 0 6.3223l3.5352 3.5352c1.7403 1.7403 4.5839 1.7364 6.3203 0l3.5391-3.5352c1.7364-1.7403 1.7364-4.582 0-6.3223l-3.5391-3.5352c-0.86821-0.87015-2.0124-1.3047-3.1582-1.3047zm0 1.9668c0.63177 4.849e-4 1.2636 0.248 1.7559 0.74219l3.5391 3.5332c0.98449 0.9845 0.98449 2.5272 0 3.5117l-3.5391 3.5391c-0.98448 0.98449-2.5272 0.98449-3.5117 0l-3.5391-3.5352c-0.98448-0.9845-0.98448-2.5311 0-3.5156l3.5391-3.5371c0.49224-0.49225 1.1241-0.73877 1.7559-0.73828zm-0.011719 1.0156c-0.38404 1.606e-4 -0.77102 0.072757-1.1367 0.22656-1.1172 0.46094-1.8516 1.5586-1.8516 2.7695h2c0-0.40625 0.24219-0.76953 0.61719-0.92188 0.375-0.15625 0.80082-0.074215 1.0898 0.21484 0.28906 0.28906 0.37109 0.71488 0.21875 1.0898-0.15625 0.375-0.51953 0.61719-0.92578 0.61719-0.55078 0-1 0.44922-1 1v2h2v-1.1797c0.78516-0.28125 1.4414-0.87498 1.7734-1.6719 0.46094-1.1172 0.20312-2.4141-0.65234-3.2695-0.53516-0.53516-1.2422-0.83594-1.9688-0.87109-0.054688-0.00293-0.1092-0.0039262-0.16406-0.0039062zm0.011719 7.9961c-0.55078 0-1 0.44922-1 1 0 0.55078 0.44922 1 1 1s1-0.44922 1-1c0-0.55078-0.44922-1-1-1z"/>
</svg>
