<!--
  SPDX-License-Identifier: CC0-1.0
  SPDX-FileCopyrightText: 2024 GNOME Foundation, Inc.
-->
<svg xmlns="http://www.w3.org/2000/svg" width="16" height="16">
    <g fill="#222">
        <path d="M6 5a1 1 0 0 1 .707.293L8 6.586l1.293-1.293a1 1 0 1 1 1.414 1.414L9.414 8l1.293 1.293a1 1 0 1 1-1.414 1.414L8 9.414l-1.293 1.293a1 1 0 1 1-1.414-1.414L6.586 8 5.293 6.707A1 1 0 0 1 6 5m0 0"/>
        <path d="M8-.031c-4.402 0-8 3.597-8 8s3.598 8 8 8 8-3.598 8-8-3.598-8-8-8m0 1.98c3.34 0 6.02 2.68 6.02 6.02S11.34 13.984 8 13.984 1.984 11.31 1.984 7.97 4.66 1.949 8 1.949m0 0"/>
    </g>
</svg>
