<?xml version="1.0" encoding="UTF-8"?>
<!--
  SPDX-License-Identifier: CC0-1.0
  SPDX-FileCopyrightText: 2024 GNOME Foundation, Inc.
-->
<svg width="16" height="16" version="1.1" xmlns="http://www.w3.org/2000/svg">
 <path d="m4.9844 0.0010525c-1.6447 0-3 1.3553-3 3v9c0 1.6447 1.3553 3 3 3h3.7188a4.5 4.5 0 0 1-1.418-2h-2.3008c-0.57129 0-1-0.4287-1-1v-9c0-0.5713 0.42871-1 1-1h4v1.5c0 1 0.5 1.5 1.5 1.5h1.5v2.0234a4.5 4.5 0 0 1 2 0.71289v-3.2363a1.0001 1.0001 0 0 0-0.29297-0.70703l-3.5-3.5a1.0001 1.0001 0 0 0-0.70703-0.29297zm0.03125 2.998v1h3v-1zm0 2v1h3v-1zm0 2v1h3.6855a4.5 4.5 0 0 1 2.3145-0.96484v-0.0352zm6.5 1c-1.9211 0-3.5 1.5788-3.5 3.5 0 1.9212 1.5789 3.5 3.5 3.5 0.59974 0 1.1648-0.15566 1.6602-0.42578h2e-3l1.1309 1.1328c0.39051 0.39042 1.0236 0.39042 1.4141 0 0.39042-0.39051 0.39042-1.0236 0-1.4141l-1.1328-1.1309v-2e-3c0.27012-0.49541 0.42578-1.0604 0.42578-1.6602 0-1.9212-1.5789-3.5-3.5-3.5zm-6.5 1v1h2.2676a4.5 4.5 0 0 1 0.49609-1zm6.5 1c0.84027 0 1.5 0.65973 1.5 1.5 0 0.40549-0.15478 0.7676-0.4082 1.0352-0.0106 8e-3 -0.02105 0.0167-0.03125 0.0254-9e-3 0.0102-0.01709 0.0206-0.02539 0.0312-0.2676 0.25342-0.62967 0.4082-1.0352 0.4082-0.84027 0-1.5-0.65973-1.5-1.5s0.65973-1.5 1.5-1.5zm-6.5 1v1h2.0352a4.5 4.5 0 0 1-0.03516-0.5 4.5 4.5 0 0 1 0.03516-0.5z" fill="#222"/>
</svg>
