<?xml version="1.0" encoding="UTF-8"?>
<svg width="16" height="16" version="1.1" xmlns="http://www.w3.org/2000/svg">
 <path d="m1.5293 0.4707-1.0586 1.0586 14 14 1.0586-1.0586-1.9492-1.9512a3.015 3.015 0 0 0 1.418-2.5195v-5c0-1.645-1.355-3-3-3h-8c-0.28436 0-0.55881 0.041543-0.82031 0.11719l-1.6465-1.6465zm3.5312 3.5293h6.9395c0.571 0 1 0.429 1 1v5c0 0.55182-0.40107 0.96856-0.94336 0.99609zm-3.9434 0.17773c-0.076 0.262-0.11914 0.53727-0.11914 0.82227v5c0 1.645 1.356 3 3 3h1v3l3-3h1.9414l-2-2h-3.9395c-0.571 0-1-0.429-1-1v-3.9414z" fill="#222" style="-inkscape-stroke:none"/>
</svg>
