<!--
  SPDX-License-Identifier: CC0-1.0
  SPDX-FileCopyrightText: 2024 GNOME Foundation, Inc.
-->
<svg xmlns="http://www.w3.org/2000/svg" width="16" height="16">
    <path fill="#222" d="M8 0c.555 0 1 .445 1 1v6.5s0 .5.5.5.5-.5.5-.5V3c0-.555.445-1 1-1s1 .445 1 1v8.5c0 .5.5.5.5.5l1.793-1.707a.988.988 0 0 1 .719-.3c1.082.081 1.144 1.265.695 1.714l-3 3C12 15.5 10.949 15.997 10 16H4c-3 0-3-3-3-3V5c0-.555.445-1 1-1s1 .445 1 1v3.5s0 .5.5.5.5-.5.5-.5V2c0-.555.445-1 1-1s1 .445 1 1v5.5s0 .5.5.5.5-.5.5-.5V1c0-.555.445-1 1-1m0 0"/>
</svg>
