<?xml version="1.0" encoding="UTF-8"?>
<!--
  SPDX-License-Identifier: CC0-1.0
  SPDX-FileCopyrightText: 2024 GNOME Foundation, Inc.
-->
<svg width="16" height="16" version="1.1" xmlns="http://www.w3.org/2000/svg">
 <path d="m8.7148 0.0019531a1.0001 1.0001 0 0 0-0.39453 0.052734 1.0001 1.0001 0 0 0-0.57812 0.52148l-2.4258 5.1953c-0.070587 0.14207-0.20869 0.22843-0.36719 0.22852h-2.9492a1 1 0 0 0-1 1 1 1 0 0 0 1 1h2v6h-2a1 1 0 0 0-1 1 1 1 0 0 0 1 1h3 6.957c1.0668 0 2.0147-0.71087 2.3145-1.7344l1.6406-5.1543a1.0001 1.0001 0 0 0 0.00586-0.023438c0.44272-1.5183-0.7329-3.0879-2.3145-3.0879h-2.3516l0.48633-2.1445c0.16059-0.65053-0.026554-1.2792-0.29688-1.7383-0.27032-0.45908-0.62034-0.80732-0.96094-1.0938-0.68119-0.57286-1.3828-0.91797-1.3828-0.91797a1.0001 1.0001 0 0 0-0.38281-0.10352zm0.35156 2.4687c0.060056 0.045582 0.067792 0.034232 0.12695 0.083984 0.23159 0.19476 0.43056 0.41513 0.52539 0.57617 0.094827 0.16104 0.088184 0.20534 0.078125 0.24609a1.0001 1.0001 0 0 0-0.0058594 0.017578l-0.76562 3.3848a1.0001 1.0001 0 0 0 0.97461 1.2207h3.6035c0.30137 0 0.47899 0.23774 0.39453 0.52734l-1.6387 5.1523a1.0001 1.0001 0 0 0-0.005859 0.023437c-0.052531 0.18027-0.2089 0.29688-0.39648 0.29688h-5.957v-6.2461c0.47101-0.22964 0.86622-0.60827 1.1074-1.0938a1.0001 1.0001 0 0 0 0.011719-0.021484l1.9473-4.168z" color="#000000" stroke-linecap="round" stroke-linejoin="round" style="-inkscape-stroke:none;paint-order:stroke fill markers"/>
</svg>
