<?xml version="1.0" encoding="UTF-8"?>
<!--
  SPDX-License-Identifier: CC0-1.0
  SPDX-FileCopyrightText: 2024 GNOME Foundation, Inc.
-->
<svg width="16" height="16" version="1.1" xmlns="http://www.w3.org/2000/svg">
 <path d="m11.395 0.96484a1.0001 1.0001 0 0 0-0.0059 0.005859c-1.2183-0.025529-2.4022 0.41243-3.3027 1.2344l-0.00391 0.00391c-0.00109 9.973e-4 -0.00282 9.547e-4 -0.00391 0.00195l-0.080078 0.072266-0.087891-0.078125-0.00195-0.00195c-1.2632-1.1356-3.0415-1.5061-4.6543-0.97266-1.6155 0.52968-2.8279 1.8868-3.168 3.5527-0.34079 1.6637 0.2341 3.3862 1.5039 4.5137l5.7441 5.1172a1.0001 1.0001 0 0 0 1.332 0l5.7305-5.1055 2e-3 -0.00195c1.6033-1.3871 1.9722-3.4851 1.3652-5.1875-0.60675-1.7019-2.2196-3.0917-4.3379-3.1523-9.09e-4 -2.605e-5 -1e-3 -0.001928-2e-3 -0.001953-6.54e-4 -1.869e-5 -0.0013 1.842e-5 -2e-3 0-0.0094-2.64e-4 -0.01798 0.004115-0.02734 0.003906zm-0.02734 2c1.3011 0.036037 2.1548 0.81956 2.5137 1.8262 0.35887 1.0066 0.19188 2.1529-0.79297 3.0039a1.0001 1.0001 0 0 0-0.01172 0.00977l-5.0762 4.5234-5.0801-4.5234a1.0001 1.0001 0 0 0-0.00195-0.00195c-0.73868-0.65544-1.0712-1.6497-0.87305-2.6172a1.0001 1.0001 0 0 0 0-0.00195c0.19715-0.96579 0.8952-1.7481 1.832-2.0547a1.0001 1.0001 0 0 0 0.00391 0c0.93524-0.30979 1.9591-0.096585 2.6914 0.5625a1.0001 1.0001 0 0 0 0.00391 0.00391l0.75781 0.67578a1.0001 1.0001 0 0 0 1.334-0.00195l0.7539-0.67579a1.0001 1.0001 0 0 0 0.00781-0.00781c0.52745-0.48345 1.2223-0.74116 1.9375-0.72071z" color="#000000" stroke-linejoin="round" style="-inkscape-stroke:none"/>
</svg>
