<?xml version="1.0" encoding="UTF-8"?>
<!--
  SPDX-License-Identifier: CC0-1.0
  SPDX-FileCopyrightText: 2024 GNOME Foundation, Inc.
-->
<svg width="16px" height="16px" version="1.1" viewBox="0 0 16 16" xmlns="http://www.w3.org/2000/svg">
 <path d="m10.086 0c0.54687 0.019531 1.0859 0.18359 1.5586 0.49219 0.94922 0.61719 1.4648 1.7266 1.3359 2.8477-0.13281 1.1211-0.89453 2.0781-1.957 2.4609-0.51953 0.1875-1.0898-0.078125-1.2773-0.59766-0.19141-0.51953 0.07813-1.0938 0.59766-1.2812 0.35938-0.12891 0.60547-0.44531 0.64844-0.81641 0.04297-0.37109-0.125-0.73438-0.44141-0.94141s-0.72266-0.21875-1.0508-0.03125c-0.48047 0.27734-1.0938 0.11328-1.3672-0.36719-0.27344-0.48047-0.10937-1.0898 0.36719-1.3672 0.49219-0.28125 1.0391-0.41406 1.5859-0.39844zm-5.0859 2c1.6406 0 3 1.3516 3 2.9922s-1.3594 2.9883-3 2.9883-3-1.3477-3-2.9883 1.3594-2.9922 3-2.9922zm0 2c-0.56641 0-1 0.4375-1 0.99219s0.43359 0.98828 1 0.98828 1-0.43359 1-0.98828-0.43359-0.99219-1-0.99219zm6.1992 3c2.0859 0 3.8008 1.707 3.8008 3.7891v1.2109c0 0.55078-0.44922 1-1 1s-1-0.44922-1-1v-1.2109c0-0.99609-0.79297-1.7891-1.8008-1.7891h-1.1992c-0.55078 0-1-0.44922-1-1s0.44922-1 1-1zm-5 2c2.0859 0 3.8008 1.707 3.8008 3.7891v1.2109c0 0.55078-0.44922 1-1 1s-1-0.44922-1-1v-1.2109c0-0.99609-0.79297-1.7891-1.8008-1.7891h-2.3984c-1.0117 0-1.8008 0.79297-1.8008 1.7891v1.2109c0 0.55078-0.44922 1-1 1s-1-0.44922-1-1v-1.2109c0-2.082 1.7148-3.7891 3.8008-3.7891z"/>
</svg>
