<!--
  SPDX-License-Identifier: CC0-1.0
  SPDX-FileCopyrightText: 2024 GNOME Foundation, Inc.
-->
<svg xmlns="http://www.w3.org/2000/svg" width="16" height="16">
    <path d="M11 0a2.502 2.502 0 0 0-2.5 2.5C8.5 3.879 9.621 5 11 5s2.5-1.121 2.5-2.5S12.379 0 11 0M9 6c-.883 0-2.066.586-2.77 1.277L10.953 12H15c.555 0 1-.445 1-1V9c0-1.66-1.34-3-3-3Zm0 0" style="fill:#222;fill-opacity:0.5"/>
    <path d="M5 4a2.47 2.47 0 0 0-1.523.523L6.98 8.027A2.502 2.502 0 0 0 5 4M2.61 5.781c-.07.227-.11.469-.11.719a2.502 2.502 0 0 0 3.223 2.395ZM3 10c-1.66 0-3 1.34-3 3v2c0 .555.445 1 1 1h8c.555 0 1-.445 1-1v-1.828L6.828 10Zm0 0" fill="#222"/>
    <path d="M1.531.457.47 1.52l14 14 1.062-1.063Zm0 0" fill="#222"/>
</svg>
