<?xml version="1.0" encoding="UTF-8"?>
<!--
  SPDX-License-Identifier: CC0-1.0
  SPDX-FileCopyrightText: 2024 GNOME Foundation, Inc.
-->
<svg width="16px" height="16px" version="1.1" viewBox="0 0 16 16" xmlns="http://www.w3.org/2000/svg">
 <path d="m8 0c-4.41 0-8 3.59-8 8 0 4.41 3.59 8 8 8 4.41 0 8-3.59 8-8 0-4.41-3.59-8-8-8zm0 2c3.332 0 6 2.668 6 6 0 3.332-2.668 6-6 6-3.332 0-6-2.668-6-6 0-3.332 2.668-6 6-6zm3.498 2.502c-0.032982 1.525e-4 -0.066407 0.0024415-0.099609 0.0058594v-0.0039063c-0.26172 0.027344-0.50391 0.16016-0.67188 0.36328l-3.8008 4.6445-1.7188-1.7188c-0.39062-0.39062-1.0234-0.39062-1.4141 0-0.39062 0.39062-0.39062 1.0234 0 1.4141l2.5 2.5c0.19922 0.19922 0.47656 0.30469 0.75781 0.29297 0.28125-0.015625 0.54297-0.14844 0.72266-0.36719l4.5-5.5c0.34766-0.42578 0.28516-1.0547-0.14063-1.4062-0.18115-0.14697-0.40389-0.22568-0.63476-0.22461z"/>
</svg>
