<?xml version="1.0" encoding="UTF-8"?>
<svg width="16" height="16" version="1.1" xmlns="http://www.w3.org/2000/svg">
 <path d="m6.957 3.0156a1.0001 1.0001 0 0 0-0.29297 0.0566 1.0001 1.0001 0 0 0-0.18164 0.0859 1.0001 1.0001 0 0 0-0.08203 0.0566 1.0001 1.0001 0 0 0-0.21094 0.21289 1.0001 1.0001 0 0 0-0.16406 0.36133 1.0001 1.0001 0 0 0-0.01758 0.0977 1.0001 1.0001 0 0 0-0.007812 0.11336v8.3828l-2.5527-1.2773a1.0001 1.0001 0 0 0-1.0469 1.6953l3.9785 2.9824 0.02148 0.0176a1.0001 1.0001 0 0 0 0.0293 0.0195 1.0001 1.0001 0 0 0 0.04687 0.0312 1.0001 1.0001 0 0 0 0.03516 0.0195 1.0001 1.0001 0 0 0 0.04492 0.0234 1.0001 1.0001 0 0 0 0.05469 0.0254 1.0001 1.0001 0 0 0 0.03711 0.0156 1.0001 1.0001 0 0 0 0.0625 0.0215 1.0001 1.0001 0 0 0 0.0293 8e-3 1.0001 1.0001 0 0 0 0.05078 0.0117 1.0001 1.0001 0 0 0 0.05859 0.0117 1.0001 1.0001 0 0 0 0.02539 4e-3 1.0001 1.0001 0 0 0 0.08203 6e-3 1.0001 1.0001 0 0 0 0.042974 0.0017h5s0.45875 0.0138 0.94727-0.23047c0.48851-0.24426 1.0527-0.9362 1.0527-1.7695v-4a1.0001 1.0001 0 0 0-0.75781-0.9707l-4-1a1.0001 1.0001 0 0 0-0.24219-0.0293h-1v-4a1.0001 1.0001 0 0 0-0.04883-0.29492 1.0001 1.0001 0 0 0-0.13477-0.26758 1.0001 1.0001 0 0 0-0.06055-0.0781 1.0001 1.0001 0 0 0-0.22656-0.19532 1.0001 1.0001 0 0 0-0.08789-0.0469 1.0001 1.0001 0 0 0-0.0918-0.041 1.0001 1.0001 0 0 0-0.0957-0.0293 1.0001 1.0001 0 0 0-0.09766-0.0215 1.0001 1.0001 0 0 0-0.19922-0.01z" fill="#222"/>
 <path d="m6.9996 0c-2.1973 0-4 1.8027-4 4 0 1.4666 0.81247 2.7431 2 3.4394v-3.4394c0-1.0907 0.9093-2 2-2s2 0.9093 2 2v3a1.0001 1.0001 0 0 1 0.24219 0.0293l0.25586 0.0645c0.90704-0.73542 1.502-1.8442 1.502-3.0938 0-2.1973-1.8027-4-4-4z" fill="#222" fill-opacity=".5"/>
</svg>
