<?xml version="1.0" encoding="UTF-8"?>
<!--
  SPDX-License-Identifier: CC0-1.0
  SPDX-FileCopyrightText: 2024 GNOME Foundation, Inc.
-->
<svg width="16" height="16" version="1.1" xmlns="http://www.w3.org/2000/svg">
 <path d="m5.5488 0c-1.9472 0-3.5488 1.6017-3.5488 3.5488v8.9023c0 1.9472 1.6017 3.5488 3.5488 3.5488h4.9023c1.9472 0 3.5488-1.6017 3.5488-3.5488v-8.9023c0-1.9472-1.6017-3.5488-3.5488-3.5488h-4.9023zm0 2.1973h0.4707c0.091471 0.45842 0.49437 0.80273 0.98047 0.80273h2c0.4861 0 0.889-0.34432 0.98047-0.80273h0.4707c0.76744 0 1.3516 0.58412 1.3516 1.3516v8.9023c0 0.76744-0.58412 1.3516-1.3516 1.3516h-4.9023c-0.76744 0-1.3516-0.58412-1.3516-1.3516v-8.9023c0-0.76744 0.58412-1.3516 1.3516-1.3516z" fill="#222"/>
</svg>
