<?xml version="1.0" encoding="UTF-8"?>
<!--
  SPDX-License-Identifier: CC0-1.0
  SPDX-FileCopyrightText: 2024 GNOME Foundation, Inc.
-->
<svg width="16px" height="16px" version="1.1" viewBox="0 0 16 16" xmlns="http://www.w3.org/2000/svg">
 <path d="m8 0c-4.41 0-8 3.59-8 8 0 4.41 3.59 8 8 8 4.41 0 8-3.59 8-8 0-4.41-3.59-8-8-8zm0 2c3.332 0 6 2.668 6 6 0 3.332-2.668 6-6 6-3.332 0-6-2.668-6-6 0-3.332 2.668-6 6-6zm-0.011719 1.002c-0.38404 1.606e-4 -0.771 0.072755-1.1367 0.22656-1.1172 0.46094-1.8516 1.5586-1.8516 2.7695h2c0-0.40625 0.24219-0.76953 0.61719-0.92188 0.375-0.15625 0.80078-0.074218 1.0898 0.21484 0.28906 0.28906 0.37109 0.71484 0.21875 1.0898-0.15625 0.375-0.51953 0.61719-0.92578 0.61719-0.55078 0-1 0.44922-1 1v2h2v-1.1797c0.78515-0.28125 1.4414-0.87501 1.7734-1.6719 0.46093-1.1172 0.20312-2.4141-0.65234-3.2695-0.53515-0.53515-1.2422-0.83594-1.9688-0.87109-0.054687-0.0029337-0.1092-0.0039291-0.16406-0.0039063zm0.011719 7.9961c-0.55078 0-1 0.44922-1 1 0 0.55078 0.44922 1 1 1s1-0.44922 1-1c0-0.55078-0.44922-1-1-1z"/>
</svg>
