<!--
  SPDX-License-Identifier: CC0-1.0
  SPDX-FileCopyrightText: 2024 GNOME Foundation, Inc.
-->
<svg xmlns="http://www.w3.org/2000/svg" width="16" height="16">
    <path fill="#222" d="M6.957 3.016a1 1 0 0 0-.293.056 1 1 0 0 0-.182.086 1 1 0 0 0-.082.057 1 1 0 0 0-.21.213 1 1 0 0 0-.165.36 1 1 0 0 0-.017.099A1 1 0 0 0 6 4v8.383l-2.553-1.278A1 1 0 0 0 2.4 12.801l3.979 2.982.021.018a1 1 0 0 0 .03.02 1 1 0 0 0 .047.03 1 1 0 0 0 .035.02 1 1 0 0 0 .045.023 1 1 0 0 0 .054.026 1 1 0 0 0 .037.015 1 1 0 0 0 .063.022 1 1 0 0 0 .03.008 1 1 0 0 0 .05.012 1 1 0 0 0 .059.011 1 1 0 0 0 .025.004 1 1 0 0 0 .082.006A1 1 0 0 0 7 16h5s.459.014.947-.23C13.436 15.525 14 14.833 14 14v-4a1 1 0 0 0-.758-.97l-4-1A1 1 0 0 0 9 8H8V4a1 1 0 0 0-.049-.295 1 1 0 0 0-.135-.267 1 1 0 0 0-.06-.079 1 1 0 0 0-.227-.195 1 1 0 0 0-.088-.047 1 1 0 0 0-.091-.04 1 1 0 0 0-.096-.03 1 1 0 0 0-.098-.022 1 1 0 0 0-.199-.01z"/>
    <path fill="#222" fill-opacity=".5" d="M7 0C4.802 0 3 1.803 3 4c0 1.467.812 2.743 2 3.44V4c0-1.09.909-2 2-2s2 .91 2 2v3a1 1 0 0 1 .242.03l.256.064C10.405 6.358 11 5.25 11 4c0-2.197-1.803-4-4-4"/>
</svg>
