<?xml version="1.0" encoding="UTF-8"?>
<!--
  SPDX-License-Identifier: CC0-1.0
  SPDX-FileCopyrightText: 2024 GNOME Foundation, Inc.
-->
<svg width="16" height="16" version="1.1" xmlns="http://www.w3.org/2000/svg">
 <path d="m8 0a8 8 0 0 0-8 8 8 8 0 0 0 8 8 8 8 0 0 0 8-8 8 8 0 0 0-8-8zm0 2a6 6 0 0 1 6 6 6 6 0 0 1-6 6 6 6 0 0 1-6-6 6 6 0 0 1 6-6zm-1 1v0.92969c-1.466 0.261-2.3223 1.1326-2.3223 2.4316 0 1.19 0.72697 1.9858 2.043 2.2168l1.7773 0.31055c0.808 0.14 1.1191 0.35859 1.1191 0.80859 0 0.496-0.54113 0.78516-1.4531 0.78516-0.935 0-1.7075-0.32214-2.6895-1.1191l-1.1074 1.4414a5.773 5.773 0 0 0 2.6328 1.252v0.94336h2v-0.92188c1.604-0.264 2.5566-1.2002 2.5566-2.5762 0-1.247-0.81996-2.0429-2.377-2.2969l-1.6738-0.27734c-0.681-0.116-0.95703-0.3128-0.95703-0.7168 0-0.439 0.49574-0.70312 1.3027-0.70312 0.854 0 1.6284 0.29903 2.4824 0.95703l1.0488-1.4648c-0.643-0.518-1.5018-0.88964-2.3828-1.0566v-0.94336h-2z" fill="#222"/>
</svg>
