<svg xmlns="http://www.w3.org/2000/svg" width="16" height="16">
    <g fill="#222" transform="translate(-20 -275.99)">
        <path d="M28 275.99a8 8 0 0 0-8 8 8 8 0 0 0 8 8 8 8 0 0 0 8-8 8 8 0 0 0-8-8m0 2a6 6 0 0 1 6 6 6 6 0 0 1-6 6 6 6 0 0 1-6-6 6 6 0 0 1 6-6"/>
        <path d="M27 278.99v.93c-1.466.261-2.322 1.132-2.322 2.431 0 1.19.727 1.986 2.043 2.217l1.777.31c.808.14 1.12.36 1.12.81 0 .496-.542.784-1.454.784-.935 0-1.708-.322-2.69-1.119l-1.107 1.442A5.773 5.773 0 0 0 27 288.047v.943h2v-.922c1.604-.264 2.557-1.2 2.557-2.576 0-1.247-.82-2.043-2.377-2.297l-1.674-.277c-.681-.116-.957-.313-.957-.717 0-.439.495-.703 1.302-.703.854 0 1.629.299 2.483.957l1.049-1.465c-.643-.518-1.502-.89-2.383-1.057v-.943z"/>
        <path fill="none" d="M20 276h16v16H20z"/>
    </g>
</svg>
