<svg xmlns="http://www.w3.org/2000/svg" width="16" height="16">
    <g fill="#2e3434">
        <path d="M4.027.996A3.043 3.043 0 0 0 1 4.023v7.91a3.043 3.043 0 0 0 3.027 3.028h7.946A3.043 3.043 0 0 0 15 11.934v-7.91A3.043 3.043 0 0 0 11.973.995zm0 2h7.946c.586 0 1.027.442 1.027 1.027v7.91c0 .587-.441 1.028-1.027 1.028H4.027A1.002 1.002 0 0 1 3 11.934v-7.91c0-.587.438-1.028 1.027-1.028m0 0"/>
        <path d="M4.027 1A3.043 3.043 0 0 0 1 4.027v.946s1.387 2.03 3.027 2.03h7.946c1.468 0 3.027-2.03 3.027-2.03v-.946A3.043 3.043 0 0 0 11.973 1zm0 2h7.946C12.559 3 13 3.441 13 4.027v.946C13 5.559 12.559 6 11.973 6H4.027C3.437 6 3 5.559 3 4.973v-.946C3 3.441 3.438 3 4.027 3m0 0"/>
        <path d="M7 .996h2v10.031l-2-.988zm0 0"/>
    </g>
</svg>
