<?xml version="1.0" encoding="UTF-8"?>
<!--
  SPDX-License-Identifier: CC0-1.0
  SPDX-FileCopyrightText: 2024 GNOME Foundation, Inc.
-->
<svg width="16" height="16" version="1.1" xmlns="http://www.w3.org/2000/svg">
 <path d="m11.973 0.99414-4.9727 0.0019531h-2.9727a3.043 3.043 0 0 0-0.28711 0.033203 3.043 3.043 0 0 0-0.32422 0.037109 3.043 3.043 0 0 0-0.30078 0.09375 3.043 3.043 0 0 0-0.30664 0.10742 3.043 3.043 0 0 0-0.27344 0.14844 3.043 3.043 0 0 0-0.27734 0.17383 3.043 3.043 0 0 0-0.22852 0.1875 3.043 3.043 0 0 0-0.25195 0.25195 3.043 3.043 0 0 0-0.17969 0.2207 3.043 3.043 0 0 0-0.18945 0.30078 3.043 3.043 0 0 0-0.13281 0.24414 3.043 3.043 0 0 0-0.13281 0.37305 3.043 3.043 0 0 0-0.070312 0.23047 3.043 3.043 0 0 0-0.068359 0.5957 3.043 3.043 0 0 0-0.0039062 0.029297 3.043 3.043 0 0 0 0 0.0039063v0.94531 6.9609a3.043 3.043 0 0 0 3.0273 3.0273h7.9453a3.043 3.043 0 0 0 3.0273-3.0273v-6.9609-0.94922a3.043 3.043 0 0 0-0.003906-0.029297 3.043 3.043 0 0 0-0.06836-0.5957 3.043 3.043 0 0 0-0.074218-0.24414 3.043 3.043 0 0 0-0.125-0.35156 3.043 3.043 0 0 0-0.14844-0.27344 3.043 3.043 0 0 0-0.16797-0.26758 3.043 3.043 0 0 0-0.20117-0.24609 3.043 3.043 0 0 0-0.22266-0.22266 3.043 3.043 0 0 0-0.26172-0.21484 3.043 3.043 0 0 0-0.23437-0.14844 3.043 3.043 0 0 0-0.30859-0.16602 3.043 3.043 0 0 0-0.27344-0.095703 3.043 3.043 0 0 0-0.32812-0.10156 3.043 3.043 0 0 0-0.24805-0.029297 3.043 3.043 0 0 0-0.36133-0.042969zm-7.9453 2.0059h2.9727v3h-2.9727c-0.59 0-1.0273-0.44134-1.0273-1.0273v-0.94922c1.197e-4 -0.03596 0.002505-0.07263 0.0058594-0.10742 0.0032297-0.034183 0.0074578-0.068637 0.013672-0.10156 2.417e-4 -0.0012545-2.459e-4 -0.0026536 0-0.0039062 0.0063218-0.032862 0.016217-0.064231 0.025391-0.095703 0.012789-0.04324 0.028962-0.084689 0.046875-0.125 0.018106-0.041162 0.039417-0.079415 0.0625-0.11719 0.012148-0.019708 0.023672-0.039888 0.037109-0.058594 0.023043-0.032317 0.049499-0.062661 0.076172-0.091797 0.024684-0.026773 0.050566-0.052319 0.078125-0.076172 0.013328-0.011536 0.027049-0.022386 0.041016-0.033203 0.17294-0.13395 0.39295-0.21289 0.64062-0.21289zm4.9727 0h2.9727c0.17831 0 0.34321 0.041913 0.48633 0.11523 0.003867 0.001981 0.007884 0.003831 0.011719 0.0058594 0.003366 0.0017961 0.006424 0.0040269 0.009766 0.0058593 0.041497 0.02257 0.081707 0.046297 0.11914 0.074219 0.027826 0.020895 0.05472 0.044708 0.080079 0.068359 0.008842 0.0082091 0.018814 0.014908 0.027343 0.023438 0.006878 0.0068775 0.012862 0.014403 0.019531 0.021484 0.027616 0.02942 0.052304 0.061009 0.076172 0.09375 0.017971 0.024532 0.035058 0.049898 0.050782 0.076172 0.018033 0.030333 0.033949 0.061287 0.048828 0.09375 0.020266 0.043891 0.03863 0.089283 0.052734 0.13672 0.009222 0.03141 0.019032 0.06292 0.025391 0.095703 2.47e-4 0.0012526-2.43e-4 0.0026517 0 0.0039062 0.00625 0.032846 0.010421 0.067479 0.013672 0.10156 6.3e-5 6.564e-4 -6.3e-5 0.0012963 0 0.0019532 0.003253 0.034754 0.005859 0.069569 0.005859 0.10547 4e-6 0.0013029 0 0.002602 0 0.0039063v0.94531c0 0.586-0.44134 1.0273-1.0273 1.0273h-2.9727v-3zm4 3.7168v5.2168c0 0.587-0.44134 1.0273-1.0273 1.0273h-7.9453c-0.59-1e-3 -1.0273-0.44134-1.0273-1.0273v-5.1836c0.32277 0.15188 0.66845 0.25391 1.0273 0.25391h2.9727v3.0352l2 0.98828v-4.0234h2.9727c0.34494 0 0.69376-0.11562 1.0273-0.28711z" fill="#222"/>
</svg>
