<?xml version="1.0" encoding="UTF-8"?>
<!--
  SPDX-License-Identifier: CC0-1.0
  SPDX-FileCopyrightText: 2024 GNOME Foundation, Inc.
-->
<svg width="16" height="16" version="1.1" xmlns="http://www.w3.org/2000/svg">
 <path d="m8 0c-1.1458 0-2.292 0.43649-3.1621 1.3066l-3.5352 3.5352c-1.7364 1.7364-1.7364 4.58 0 6.3203l3.5352 3.5352c1.7403 1.7403 4.5839 1.7364 6.3203 0l3.5391-3.5352c1.7364-1.7403 1.7364-4.58 0-6.3203l-3.5391-3.5352c-0.8682-0.87016-2.0124-1.3066-3.1582-1.3066zm0 1.9668c0.63178 4.862e-4 1.2636 0.248 1.7559 0.74219l3.5391 3.5352c0.98449 0.9845 0.98449 2.5272 0 3.5117l-3.5391 3.5391c-0.98449 0.98449-2.5272 0.98449-3.5117 0l-3.5391-3.5352c-0.98449-0.9845-0.98449-2.5311 0-3.5156l3.5391-3.5391c0.49224-0.49224 1.1241-0.73877 1.7559-0.73828zm-1 2.0137v5h2v-5h-2zm1 6c-0.55078 0-1 0.44922-1 1 0 0.55078 0.44922 1 1 1s1-0.44922 1-1c0-0.55078-0.44922-1-1-1z"/>
</svg>
