<?xml version="1.0" encoding="UTF-8"?>
<!--
  SPDX-License-Identifier: CC0-1.0
  SPDX-FileCopyrightText: 2024 GNOME Foundation, Inc.
-->
<svg width="16" height="16" version="1.1" xmlns="http://www.w3.org/2000/svg">
 <path d="m8 0.28516c-0.40302 0-0.80646 0.10423-1.166 0.3125l-4.668 2.6875-0.0019531 0.0019532c-0.72031 0.41908-1.1613 1.1934-1.1621 2.0254v5.375c8.469e-4 0.83202 0.4418 1.6063 1.1621 2.0254l0.0019531 0.001953 4.668 2.6875c0.72039 0.41728 1.6162 0.41685 2.3359-0.001953l4.6641-2.6855 0.001954-0.001953c0.72027-0.41903 1.1613-1.1934 1.1621-2.0254v-5.375c-8.47e-4 -0.83202-0.4418-1.6063-1.1621-2.0254l-0.001954-0.0019532-4.6641-2.6855c-0.36052-0.20975-0.76548-0.31445-1.1699-0.31445zm0 1.998c0.056066 0 0.11213 0.014709 0.16406 0.044922l0.0019531 0.0019531 3.8145 2.1973-3.9805 2.3203-3.9805-2.3203 3.8145-2.1973 0.0019531-0.0019531c0.05193-0.030212 0.108-0.044922 0.16406-0.044922zm-4.998 3.9707 3.998 2.3301v4.6055l-3.8301-2.2051c-0.10324-0.060057-0.16719-0.17082-0.16797-0.29688v-4.4336zm9.9961 0v4.4316c-1.29e-4 0.12684-0.06422 0.23847-0.16797 0.29883l-3.8301 2.2051v-4.6055l3.998-2.3301z" color="#000000" style="-inkscape-stroke:none"/>
</svg>
