<!--
  SPDX-License-Identifier: CC0-1.0
  SPDX-FileCopyrightText: 2024 GNOME Foundation, Inc.
-->
<svg xmlns="http://www.w3.org/2000/svg" width="16" height="16">
    <path fill="#222" d="M4 1C2.34 1 1 2.34 1 4v6c0 1.66 1.34 3 3 3h8c1.66 0 3-1.34 3-3V4c0-1.66-1.34-3-3-3zm0 2h8c.555 0 1 .445 1 1v6c0 .555-.445 1-1 1H4c-.555 0-1-.445-1-1V4c0-.555.445-1 1-1m6.5 1s-.5 0-.5.5v.988s0 .5.5.5h1s.5 0 .5-.5v-.984s0-.5-.5-.5zm-6 1S4 5 4 5.5v4c0 .5.5.5.5.5h4c.5 0 .5-.5.5-.5v-4C9 5 8.563 5 8.5 5zM5 7h3v2H5zm3 7c-5 0-5 1-5 1 0 1 1 1 1 1h8c1 0 1-1 1-1s0-1-5-1m0 0"/>
</svg>
