<?xml version="1.0" encoding="UTF-8"?>
<!--
  SPDX-License-Identifier: CC0-1.0
  SPDX-FileCopyrightText: 2024 GNOME Foundation, Inc.
-->
<svg width="16" height="16" version="1.1" xmlns="http://www.w3.org/2000/svg">
 <path d="m8.0312 0.99609c-0.031 0-0.066562-9.375e-5 -0.10156 0.0039062a1.002 1.002 0 0 0-0.91797 0.99219l-0.0078126 1.0078h-1.9883l0.019531-0.98047a1.009 1.009 0 0 0-0.3125-0.74609 0.98 0.98 0 0 0-0.76172-0.26953 0.995 0.995 0 0 0-0.92578 0.98047l-0.023437 1.2773a3.302 3.302 0 0 0-2.0117 3.0469v4.3867c0 1.375 0.83153 2.5469 2.0195 3.0469v1.2578a1 1 0 1 0 2 0v-1h1.9805v1c0 0.55 0.45 1 1 1 0.55 0 1-0.45 1-1v-1h2v1c0 0.55 0.45 1 1 1s1-0.45 1-1v-1.2656c1.18-0.507 2-1.6751 2-3.0391v-4.3848c0-1.368-0.8201-2.5331-1.9961-3.0371l0.011719-1.2637a1.007 1.007 0 0 0-1.0859-1.0098 0.996 0.996 0 0 0-0.91406 0.99219l-0.011719 1.0078h-1.9961l0.0078125-0.99219c4e-3 -0.551-0.43447-0.99972-0.98047-1.0117h-0.0039062zm-3.7227 4.0039h0.0019531 7.3848c0.722 0 1.3047 0.58159 1.3047 1.3086v3.6914c0 0.484-0.406 1-1 1h-4-3.9805c-0.551 0-1.0195-0.453-1.0195-1v-3.6895c0-0.728 0.58159-1.3105 1.3086-1.3105z" fill="#222"/>
</svg>
