<!--
  SPDX-License-Identifier: CC0-1.0
  SPDX-FileCopyrightText: 2024 GNOME Foundation, Inc.
-->
<svg xmlns="http://www.w3.org/2000/svg" width="16" height="16">
    <path fill="#222" d="M3 1C1.355 1 0 2.355 0 4v6c0 1.645 1.355 3 3 3h6l3 3v-3h1c1.645 0 3-1.355 3-3V4c0-1.645-1.355-3-3-3zm0 2h10c.571 0 1 .429 1 1v6c0 .571-.429 1-1 1H3c-.571 0-1-.429-1-1V4c0-.571.429-1 1-1m.5 1a.499.499 0 1 0 0 1h6a.499.499 0 1 0 0-1zm8 0a.499.499 0 1 0 0 1h1a.499.499 0 1 0 0-1zm-8 2a.499.499 0 1 0 0 1h2a.499.499 0 1 0 0-1zm4 0a.499.499 0 1 0 0 1h5a.499.499 0 1 0 0-1zm-4 2a.499.499 0 1 0 0 1h4a.499.499 0 1 0 0-1zm6 0a.499.499 0 1 0 0 1h1a.499.499 0 1 0 0-1z"/>
</svg>
