<!--
  SPDX-License-Identifier: CC0-1.0
  SPDX-FileCopyrightText: 2024 GNOME Foundation, Inc.
-->
<svg xmlns="http://www.w3.org/2000/svg" width="16" height="16">
    <path fill="#222" d="M8 0C3.596 0 .004 3.594.004 8c0 4.406 3.592 8 7.996 8 4.405 0 7.996-3.594 7.996-8 0-4.406-3.592-8-7.996-8m0 2a5.983 5.983 0 0 1 5.996 6c0 3.326-2.673 6-5.996 6a5.983 5.983 0 0 1-5.996-6c0-3.326 2.673-6 5.996-6m3.408 2a.615.615 0 0 0-.289.059l-4.51 2.06c-.218.1-.394.276-.494.494l-2.06 4.51a.617.617 0 0 0 .818.819l4.51-2.061c.218-.1.394-.276.494-.494l2.06-4.51A.62.62 0 0 0 11.409 4M7.996 7.002a.997.997 0 1 1 .001 1.996.997.997 0 0 1 0-1.996"/>
</svg>
