<?xml version="1.0" encoding="UTF-8"?>
<!--
  SPDX-License-Identifier: CC0-1.0
  SPDX-FileCopyrightText: 2024 GNOME Foundation, Inc.
-->
<svg width="16" height="16" version="1.1" xmlns="http://www.w3.org/2000/svg">
 <path d="m8 0a1 1 0 0 0-1 1v0.49219c-0.25118 0.17746-0.59754 0.41198-0.99414 0.65234-0.77139 0.46751-1.782 0.85547-2.0059 0.85547h-2a1 1 0 0 0-1 1 1 1 0 0 0 1 1h0.19141l-1.8887 4.7207a0.75008 0.75008 0 0 0 0.0019531 0.5625c0.19916 0.49001 0.56164 0.77624 1.0195 1.0312 0.45789 0.25501 1.0322 0.43555 1.6758 0.43555 1.262 0 2.2757-0.52369 2.6973-1.4355a0.75008 0.75008 0 0 0 0.015625-0.5957l-1.9043-4.7188h0.19141c1.1574 0 2.132-0.59284 3-1.1191v9.1191h-3a1 1 0 0 0-1 1 1 1 0 0 0 1 1h8a1 1 0 0 0 1-1 1 1 0 0 0-1-1h-3v-8.9707c0.79856 0.49501 1.8224 0.9707 3 0.9707h0.19141l-1.8887 4.7207a0.75008 0.75008 0 0 0 0.001954 0.5625c0.19916 0.49001 0.56164 0.77624 1.0195 1.0312 0.45784 0.25501 1.0322 0.43555 1.6758 0.43555 1.262 0 2.2757-0.52368 2.6973-1.4355a0.75008 0.75008 0 0 0 0.015625-0.5957l-1.9043-4.7188h0.19141a1 1 0 0 0 1-1 1 1 0 0 0-1-1h-2c-0.66666 0-1.5307-0.38892-2.1953-0.83203-0.33697-0.22465-0.61304-0.44531-0.80469-0.60938v-0.55859a1 1 0 0 0-1-1zm-4.9961 7.0137 1.1152 2.7637c-0.15927 0.14306-0.50097 0.47266-1.1191 0.47266-0.35639 0-0.69645-0.1075-0.94531-0.24609-0.13004-0.072424-0.12579-0.087644-0.1875-0.15039l1.1367-2.8398zm10 0 1.1152 2.7637c-0.15931 0.14306-0.50097 0.47266-1.1191 0.47266-0.35639 0-0.69645-0.1075-0.94531-0.24609-0.13004-0.072424-0.12579-0.087644-0.1875-0.15039l1.1367-2.8398z" color="#000000" stroke-linejoin="round" style="-inkscape-stroke:none"/>
</svg>
