<svg height="16" width="16" xmlns="http://www.w3.org/2000/svg"><path style="fill:#3d3846;fill-opacity:.35;stroke-width:1" d="M2.557 2a.59.59 0 0 0-.504.828L3.16 5.32l1.56-.6.6-1.56-2.492-1.107A.583.583 0 0 0 2.557 2Zm10.875.002a.585.585 0 0 0-.26.05L10.68 3.16l.6 1.56 1.56.6 1.107-2.492a.587.587 0 0 0-.515-.826ZM3.16 10.68l-1.107 2.492a.587.587 0 0 0 .775.775L5.32 12.84l-.6-1.56Zm9.68 0-1.56.6-.6 1.56 2.492 1.107a.587.587 0 0 0 .775-.775z"/><path d="M8.002 0a.572.572 0 0 0-.535.367L5.494 5.494.367 7.467a.571.571 0 0 0 0 1.066l5.127 1.973 1.973 5.127a.571.571 0 0 0 1.066 0l1.973-5.127 5.127-1.973a.571.571 0 0 0 0-1.066l-5.127-1.973L8.533.367A.573.573 0 0 0 8.002 0ZM8 7a1 1 0 1 1 0 2 1 1 0 0 1 0-2Z" style="fill:#3d3846"/></svg>