<!--
  SPDX-License-Identifier: CC0-1.0
  SPDX-FileCopyrightText: 2024 GNOME Foundation, Inc.
-->
<svg xmlns="http://www.w3.org/2000/svg" width="16" height="16">
    <path fill="#222" d="M11.771 1.186a.498.498 0 0 0-.1.015l-.966.258a.5.5 0 0 0-.354.613l3.365 12.557a.5.5 0 0 0 .614.354l.964-.258a.5.5 0 0 0 .354-.613L12.283 1.555a.498.498 0 0 0-.512-.37M1.5 2c-.277 0-.5.223-.5.5v12c0 .277.223.5.5.5h2c.277 0 .5-.223.5-.5v-12c0-.277-.223-.5-.5-.5zm7 1c-.277 0-.5.223-.5.5v11c0 .277.223.5.5.5h1c.277 0 .5-.223.5-.5v-11c0-.277-.223-.5-.5-.5zm-3 1c-.277 0-.5.223-.5.5v10c0 .277.223.5.5.5h1c.277 0 .5-.223.5-.5v-10c0-.277-.223-.5-.5-.5z"/>
</svg>
