<!--
  SPDX-License-Identifier: CC0-1.0
  SPDX-FileCopyrightText: 2024 GNOME Foundation, Inc.
-->
<svg xmlns="http://www.w3.org/2000/svg" width="16" height="16">
    <path d="M7.863 1a7.01 7.01 0 0 0-5.926 3.5 1 1 0 0 0 .368 1.365A1 1 0 0 0 3.67 5.5a4.994 4.994 0 0 1 5.2-2.424A4.99 4.99 0 0 1 12.583 6H11a1 1 0 0 0-1 1 1 1 0 0 0 1 1h4a1 1 0 0 0 1-1V3a1 1 0 0 0-1-1 1 1 0 0 0-1 1v1.398A7.007 7.007 0 0 0 7.863 1M1 8a1 1 0 0 0-1 1v4a1 1 0 0 0 1 1 1 1 0 0 0 1-1v-1.396a7.006 7.006 0 0 0 5.39 3.369 7.004 7.004 0 0 0 6.673-3.473 1 1 0 0 0-.366-1.365 1 1 0 0 0-1.367.365 4.994 4.994 0 0 1-4.766 2.48A4.994 4.994 0 0 1 3.418 10H5a1 1 0 0 0 1-1 1 1 0 0 0-1-1Z" style="fill:#222;fill-opacity:1"/>
</svg>
