<!--
  SPDX-License-Identifier: CC0-1.0
  SPDX-FileCopyrightText: 2024 GNOME Foundation, Inc.
-->
<svg xmlns="http://www.w3.org/2000/svg" width="16" height="16">
    <path fill="#222" d="M2 0v16h2V9h2c.234 0 .445.129.55.344l.106.207A2.63 2.63 0 0 0 9 11h2.5c1.367 0 2.5-1.133 2.5-2.5v-4C14 3.133 12.867 2 11.5 2h-2l-.598-.8A3.006 3.006 0 0 0 6.5 0zm2 2h2.5c.316 0 .613.148.8.402l.602.797c.375.504.97.801 1.598.801h2c.29 0 .5.21.5.5v4c0 .29-.21.5-.5.5H9a.608.608 0 0 1-.55-.344l-.106-.207A2.63 2.63 0 0 0 6 7H4zm0 0"/>
</svg>
