<?xml version="1.0" encoding="UTF-8"?>
<svg height="16px" viewBox="0 0 16 16" width="16px" xmlns="http://www.w3.org/2000/svg">
    <path d="m 1 5 v 7 c 0 1.109375 0.890625 2 2 2 h 10 c 1.109375 0 2 -0.890625 2 -2 v -7 z m 8.5 1.5 c 0.691406 0 1.25 0.558594 1.25 1.25 s -0.558594 1.25 -1.25 1.25 s -1.25 -0.558594 -1.25 -1.25 s 0.558594 -1.25 1.25 -1.25 z m -4 1.5 h 1 c 0.277344 0 0.5 0.222656 0.5 0.5 v 1 c 0 0.277344 -0.222656 0.5 -0.5 0.5 h -1 c -0.277344 0 -0.5 -0.222656 -0.5 -0.5 v -1 c 0 -0.277344 0.222656 -0.5 0.5 -0.5 z m 3 2 h 1.5 c 0.554688 0 1 0.445312 1 1 s -0.445312 1 -1 1 h -1.5 c -0.554688 0 -1 -0.445312 -1 -1 s 0.445312 -1 1 -1 z m 0 0"/>
    <path d="m 6 2 l -1 1 v 3 h 2 v -2 h 2 v 2 h 2 v -3 l -1 -1 z m 0 0"/>
</svg>
