<?xml version="1.0" encoding="UTF-8" standalone="no"?>
<!-- Created with Inkscape (http://www.inkscape.org/) -->

<svg
   xmlns:dc="http://purl.org/dc/elements/1.1/"
   xmlns:cc="http://creativecommons.org/ns#"
   xmlns:rdf="http://www.w3.org/1999/02/22-rdf-syntax-ns#"
   xmlns:svg="http://www.w3.org/2000/svg"
   xmlns="http://www.w3.org/2000/svg"
   xmlns:sodipodi="http://sodipodi.sourceforge.net/DTD/sodipodi-0.dtd"
   xmlns:inkscape="http://www.inkscape.org/namespaces/inkscape"
   width="16px"
   height="16px"
   id="svg6558"
   version="1.1"
   inkscape:version="0.48.4 r9939"
   sodipodi:docname="gnome-software.svg">
  <defs
     id="defs6560" />
  <sodipodi:namedview
     id="base"
     pagecolor="#ffffff"
     bordercolor="#666666"
     borderopacity="1.0"
     inkscape:pageopacity="0.0"
     inkscape:pageshadow="2"
     inkscape:zoom="31.392433"
     inkscape:cx="7.3870738"
     inkscape:cy="7.3457752"
     inkscape:current-layer="layer1"
     showgrid="false"
     inkscape:grid-bbox="true"
     inkscape:document-units="px"
     inkscape:snap-nodes="false"
     inkscape:snap-bbox="true"
     inkscape:window-width="1600"
     inkscape:window-height="834"
     inkscape:window-x="0"
     inkscape:window-y="27"
     inkscape:window-maximized="1">
    <inkscape:grid
       type="xygrid"
       id="grid6711" />
  </sodipodi:namedview>
  <metadata
     id="metadata6563">
    <rdf:RDF>
      <cc:Work
         rdf:about="">
        <dc:format>image/svg+xml</dc:format>
        <dc:type
           rdf:resource="http://purl.org/dc/dcmitype/StillImage" />
        <dc:title></dc:title>
      </cc:Work>
    </rdf:RDF>
  </metadata>
  <g
     id="layer1"
     inkscape:label="Layer 1"
     inkscape:groupmode="layer">
    <g
       style="display:inline;fill:#2e3436"
       inkscape:label="gnome-software"
       id="g19712"
       transform="translate(-44.000198,-255)">
      <rect
         style="opacity:0;fill:#2e3436;fill-opacity:1;stroke:none"
         id="rect19714"
         width="16"
         height="16"
         x="44.000198"
         y="255" />
      <path
         inkscape:connector-curvature="0"
         style="color:#000000;fill:#2e3436;fill-opacity:1;fill-rule:nonzero;stroke:none;stroke-width:0.99999987999999995;marker:none;visibility:visible;display:inline;overflow:visible;enable-background:accumulate"
         d="m 52.0002,255 c -1.65335,0 -3,1.34665 -3,3 l 0,1 -1.90625,0 c -0.60594,0 -1.09375,0.48781 -1.09375,1.09375 l 0,9.8125 c 0,0.60594 0.48781,1.09375 1.09375,1.09375 l 9.8125,0 c 0.60594,0 1.09375,-0.48781 1.09375,-1.09375 l 0,-9.8125 C 58.0002,259.48781 57.51239,259 56.90645,259 l -1.90625,0 0,-1 c 0,-1.65335 -1.34665,-3 -3,-3 z m 0,1 c 1.11665,0 2,0.88335 2,2 l 0,1 -4,0 0,-1 c 0,-1.11665 0.88335,-2 2,-2 z m -2.53125,4 c 0.28679,0 0.53125,0.22386 0.53125,0.5 0,0.27614 -0.24446,0.5 -0.53125,0.5 -0.28679,0 -0.5,-0.22386 -0.5,-0.5 0,-0.27614 0.21321,-0.5 0.5,-0.5 z m 5,0 c 0.28679,0 0.53125,0.22386 0.53125,0.5 0,0.27614 -0.24446,0.5 -0.53125,0.5 -0.28679,0 -0.5,-0.22386 -0.5,-0.5 0,-0.27614 0.21321,-0.5 0.5,-0.5 z"
         id="rect43509-3-4-3"
         inkscape:label="gnome-software" />
    </g>
  </g>
</svg>
