<!--
  SPDX-License-Identifier: CC0-1.0
  SPDX-FileCopyrightText: 2024 GNOME Foundation, Inc.
-->
<svg xmlns="http://www.w3.org/2000/svg" width="16" height="16">
    <path fill="#222" d="M12.987.014a1 1 0 0 0-.807.444C10.744 2.6 7.207 3.73 5.051 3.962c-.433.046-1.338.052-1.89.052H2.01c-1.093 0-2 .908-2 2v3c0 1.092.904 2 1.996 2.004l1.15.004.193.002.682 3.2a1 1 0 0 0 1.187.769 1 1 0 0 0 .77-1.188l-.57-2.68c2.171.31 5.404 1.421 6.761 3.446a1 1 0 0 0 1.83-.557V9.17l1.735-.694a.423.423 0 0 0 .266-.394V6.948a.42.42 0 0 0-.266-.393L14.01 5.86V1.014a1 1 0 0 0-.708-.957 1 1 0 0 0-.315-.043M12.01 3.49v8.055c-2.104-1.6-4.836-2.25-6.746-2.454-.079-.008-.169-.013-.254-.019V5.969c.085-.006.175-.01.254-.02 1.91-.205 4.643-.86 6.746-2.46m-8 2.52v3.02c-.308-.003-.615-.004-.845-.005l-1.15-.006c-.015 0-.005.01-.005-.004v-3h1.15c.233 0 .541-.002.85-.006z" color="#000" style="-inkscape-stroke:none"/>
</svg>
