<!--
  SPDX-License-Identifier: CC0-1.0
  SPDX-FileCopyrightText: 2024 GNOME Foundation, Inc.
-->
<svg xmlns="http://www.w3.org/2000/svg" width="16" height="16">
    <path fill="#222" d="M12.986.014a1 1 0 0 0-.807.443C10.743 2.599 7.206 3.729 5.05 3.961l-.027.002L1.53.469.469 1.53l14 14 1.062-1.062-1.521-1.522V9.168l1.734-.693a.423.423 0 0 0 .266-.395V6.947a.42.42 0 0 0-.266-.392l-1.734-.696V1.014a1 1 0 0 0-.71-.957 1 1 0 0 0-.314-.043m-.977 3.474v7.46L6.773 5.712c1.686-.343 3.641-1.011 5.236-2.225m-10.857.727a2.013 2.013 0 0 0-1.142 1.8v3a2.02 2.02 0 0 0 1.996 2.004l1.15.003.194.002.681 3.2a1 1 0 0 0 1.188.77 1 1 0 0 0 .77-1.188l-.57-2.68c1.106.157 2.49.526 3.759 1.115L6.15 9.213a16.5 16.5 0 0 0-.887-.123c-.08-.008-.17-.013-.254-.02v-.998l-1-1V9.03c-.308-.004-.615-.005-.846-.006l-1.15-.006c-.014 0-.004.01-.004-.003v-3h.941z" color="#000" style="-inkscape-stroke:none"/>
</svg>
