<!--
  SPDX-License-Identifier: CC0-1.0
  SPDX-FileCopyrightText: 2024 GNOME Foundation, Inc.
-->
<svg xmlns="http://www.w3.org/2000/svg" width="16" height="16">
    <path d="m4.29 0-.235.672C3.036 3.61 3 4.68 3 6c0 .94.296 2.098 1.078 3.13A4.746 4.746 0 0 0 7 10.909v3.106l-2.004.006.008 2 6-.02-.008-2L9 14.006v-3.098c1.29-.237 2.286-.917 2.918-1.74A5.253 5.253 0 0 0 13 6c0-1.521-.292-2.742-1.041-5.283L11.749 0zm1.46 2h4.438c.499 1.76.812 2.916.812 4 0 .52-.205 1.347-.668 1.95C9.87 8.55 9.221 9 8 9c-1.211 0-1.86-.461-2.328-1.078S5 6.464 5 6c0-1.166.078-1.932.75-4" color="#000" style="-inkscape-stroke:none"/>
    <path fill-opacity=".35" d="M4 5h8v3l-2 2H6L4 8z"/>
</svg>
