<!--
  SPDX-License-Identifier: CC0-1.0
  SPDX-FileCopyrightText: 2024 GNOME Foundation, Inc.
-->
<svg xmlns="http://www.w3.org/2000/svg" width="16" height="16">
    <path fill="#222" fill-opacity=".349" d="m4.06 5 5 5H10l2-2V5z"/>
    <path d="m4.29 0-.235.672a30.488 30.488 0 0 0-.559 1.764L1.53.469.47 1.53l14 14 1.062-1.062-4.463-4.463c.33-.25.616-.534.85-.838A5.253 5.253 0 0 0 13 6c0-1.521-.292-2.742-1.041-5.283L11.749 0zm1.46 2h4.438c.498 1.76.812 2.916.812 4 0 .52-.205 1.346-.668 1.95a2.636 2.636 0 0 1-.684.636l-4.48-4.479c.11-.55.287-1.2.582-2.107M3.002 6.065A5.258 5.258 0 0 0 4.078 9.13 4.746 4.746 0 0 0 7 10.908v3.108l-2.004.005.008 2 6-.02-.008-1.942-.056-.057-1.94.004v-1.944z" style="-inkscape-stroke:none"/>
</svg>
