<!--
  SPDX-License-Identifier: CC0-1.0
  SPDX-FileCopyrightText: 2024 GNOME Foundation, Inc.
-->
<svg xmlns="http://www.w3.org/2000/svg" width="16" height="16">
    <path d="M8 0C6.34 0 5 1.34 5 3v.941L1.53.471.468 1.529l14 14 1.062-1.06-2.793-2.791A5.945 5.945 0 0 0 14 8.012V7h-1.5v1.012a4.48 4.48 0 0 1-.824 2.603l-1.092-1.091A2.98 2.98 0 0 0 11 8V3c0-1.66-1.34-3-3-3m0 2c.555 0 1 .445 1 1v4.94l-2-2V3c0-.555.445-1 1-1M2 7v1.012c0 2.964 2.164 5.43 5 5.906V16h2v-2.082c.5-.084.978-.23 1.428-.43l-1.164-1.164A4.59 4.59 0 0 1 8 12.5a4.466 4.466 0 0 1-4.5-4.488V7zm3.004 1.065a2.991 2.991 0 0 0 2.932 2.931z"/>
</svg>
