<!--
  SPDX-License-Identifier: CC0-1.0
  SPDX-FileCopyrightText: 2024 GNOME Foundation, Inc.
-->
<svg xmlns="http://www.w3.org/2000/svg" width="16" height="16">
    <path fill="#222" d="M5 0C3.707 0 2.594.84 2.176 2H1v2h1v1H1v2h1v1H1v2h1v1H1v2h1.176c.418 1.16 1.531 2 2.824 2h7c1.645 0 3-1.355 3-3V3c0-1.644-1.355-3-3-3zm0 2h7c.57 0 .887.441 1 1v9c0 .57-.43 1-1 1H5c-.555 0-1-.445-1-1V3c0-.555.445-1 1-1m3.527 2c-.082 0-.16.004-.242.012a3.507 3.507 0 0 0-3.258 3.934 3.513 3.513 0 0 0 3.489 3.062c.847-.004 1.64-.278 1.64-.278l-.312-.949s-.707.227-1.332.227h-.004A2.496 2.496 0 0 1 6.019 7.82a2.496 2.496 0 0 1 1.868-2.738 2.79 2.79 0 0 1 1.808.164c.528.242.89.629 1.004 1.059.125.464.086.968-.086 1.277-.097.176-.402.351-.613.426v-.5c0-.825-.676-1.5-1.5-1.5S7 6.683 7 7.508c0 .82.676 1.5 1.5 1.5.176 0 .344-.04.5-.094v.043l.45.047c.94.097 1.69-.317 2.038-.934.348-.62.356-1.36.176-2.023-.207-.785-.816-1.371-1.555-1.707A3.717 3.717 0 0 0 8.523 4zM8.5 7.008c.281 0 .5.215.5.5 0 .281-.219.5-.5.5s-.5-.219-.5-.5c0-.285.219-.5.5-.5"/>
</svg>
