<!--
  SPDX-License-Identifier: CC0-1.0
  SPDX-FileCopyrightText: 2024 GNOME Foundation, Inc.
-->
<svg xmlns="http://www.w3.org/2000/svg" width="16" height="16">
    <path d="M1.53.47.468 1.53l14 14 1.062-1.061-.943-.944c.26-.442.412-.957.412-1.51v-8.03A2.98 2.98 0 0 0 12.016 1H3.984c-.553 0-1.07.15-1.513.412zM11.5 3a1.5 1.5 0 1 1 0 3 1.5 1.5 0 0 1 0-3M1 4.06v7.956A2.98 2.98 0 0 0 3.984 15h7.956L1 4.061zm7.102 2.37a1.5 1.5 0 0 1 1.406 2.017L7.582 6.523a1.49 1.49 0 0 1 .52-.093M4.5 10a1.5 1.5 0 1 1 0 3 1.5 1.5 0 0 1 0-3"/>
</svg>
