<!--
  SPDX-License-Identifier: CC0-1.0
  SPDX-FileCopyrightText: 2024 GNOME Foundation, Inc.
-->
<svg xmlns="http://www.w3.org/2000/svg" width="16" height="16">
    <path fill="#222" d="M7 0a1 1 0 1 0 0 2h1.586L6.027 4.559a4.011 4.011 0 0 0-.756-.348L1.53.47.47 1.529l14 14 1.062-1.06-3.744-3.742a4.01 4.01 0 0 0-.346-.754L14 7.414V9a1 1 0 1 0 2 0V4h-4V0h-1zm3 3.414V5a1 1 0 0 0 1 1h1.586l-2.559 2.559a4.01 4.01 0 0 0-.754-.346L7.79 6.729a4.01 4.01 0 0 0-.348-.756zM1.688 4.748A4.002 4.002 0 0 0 0 8c0 2.197 1.803 4 4 4 0 2.197 1.803 4 4 4 1.337 0 2.524-.67 3.252-1.687l-1.45-1.45a1.97 1.97 0 0 1-1.411 1.098c-.127.024-.257.04-.39.04s-.265-.016-.392-.04a1.975 1.975 0 0 1-1.57-1.57A2.057 2.057 0 0 1 6 12c0-.126.016-.246.037-.364a2 2 0 0 1 .016-.07c.012-.054.02-.11.035-.163l.016-.01a2 2 0 0 1 1.05-1.179l-1.369-1.37a2 2 0 0 1-1.18 1.052l-.01.015c-.051.016-.107.024-.161.035a2 2 0 0 1-.07.016A2.04 2.04 0 0 1 4 10a2 2 0 0 1-.39-.039 1.975 1.975 0 0 1-1.57-1.57 1.935 1.935 0 0 1 0-.782 1.971 1.971 0 0 1 1.097-1.412z"/>
</svg>
