<!--
  SPDX-License-Identifier: CC0-1.0
  SPDX-FileCopyrightText: 2024 GNOME Foundation, Inc.
-->
<svg xmlns="http://www.w3.org/2000/svg" width="16" height="16">
    <path fill="#222" d="M7 0a1 1 0 1 0 0 2h1.586L6.027 4.559A3.96 3.96 0 0 0 4 4C1.803 4 0 5.803 0 8s1.803 4 4 4c0 2.197 1.803 4 4 4s4-1.803 4-4a3.96 3.96 0 0 0-.559-2.027L14 7.414V9a1 1 0 1 0 2 0V4h-4V0h-1zm3 3.414V5a1 1 0 0 0 1 1h1.586l-2.559 2.559A3.96 3.96 0 0 0 8 8a3.96 3.96 0 0 0-.559-2.027zM4 6a2 2 0 0 1 .254.018 2 2 0 0 1 .017.002l.05.007a2 2 0 0 1 .195.041 2 2 0 0 1 .023.006l.072.022a2 2 0 0 1 .112.04c.065.026.128.053.19.085a2 2 0 0 1 .007.004l.01.005c.037.02.077.037.113.06l.002.005a2 2 0 0 1 .66.66l.006.002c.022.036.039.076.059.113a2 2 0 0 1 .005.01l.004.008c.032.061.06.124.084.19a2 2 0 0 1 .041.11l.022.073a2 2 0 0 1 .006.023 2 2 0 0 1 .04.196l.008.049a2 2 0 0 1 .002.017A2 2 0 0 1 6 8c0 .125-.016.245-.037.363a2 2 0 0 1-.016.07c-.011.055-.019.11-.035.163l-.016.01a2 2 0 0 1-1.29 1.29l-.01.016c-.052.016-.108.024-.162.035a2 2 0 0 1-.07.016A2.04 2.04 0 0 1 4 10a2 2 0 0 1-.39-.04 1.975 1.975 0 0 1-1.57-1.57 1.91 1.91 0 0 1 0-.78 1.975 1.975 0 0 1 1.57-1.57A1.91 1.91 0 0 1 4 6m4 4a2 2 0 0 1 .254.018 2 2 0 0 1 .017.002l.05.007a2 2 0 0 1 .195.041 2 2 0 0 1 .023.006l.072.022a2 2 0 0 1 .112.04c.065.026.128.053.19.085a2 2 0 0 1 .007.004l.01.005c.037.02.077.037.113.06l.002.005a2 2 0 0 1 .66.66l.006.002c.022.036.039.076.059.113a2 2 0 0 1 .005.01l.004.008c.032.061.06.124.084.19a2 2 0 0 1 .041.11l.022.073a2 2 0 0 1 .006.023 2 2 0 0 1 .04.196l.008.049a2 2 0 0 1 .002.017A2 2 0 0 1 10 12a2 2 0 0 1-.04.39 1.975 1.975 0 0 1-1.57 1.57c-.126.025-.256.04-.39.04a2 2 0 0 1-.39-.04 1.975 1.975 0 0 1-1.57-1.57A2.057 2.057 0 0 1 6 12c0-.125.016-.245.037-.363a2 2 0 0 1 .016-.07c.011-.055.02-.11.035-.163l.016-.01a2 2 0 0 1 1.29-1.29l.01-.016c.052-.016.108-.024.162-.035a2 2 0 0 1 .07-.016A2.04 2.04 0 0 1 8 10"/>
</svg>
