<!--
  SPDX-License-Identifier: CC0-1.0
  SPDX-FileCopyrightText: 2024 GNOME Foundation, Inc.
-->
<svg xmlns="http://www.w3.org/2000/svg" width="16" height="16">
    <path d="m1.531.469-1.06 1.06 2.498 2.498v.004l5.785 5.782.744.744s-.002 0-.002.002l1.473 1.472v-.004l3.502 3.502 1.06-1.06-3.111-3.112c.634-.634 1.049-1.67 1.049-2.845 0-1.933-1.117-3.5-2.5-3.5v-4h-8v.894L1.53.47zM6.97 4.512c.883 0 1.652.504 2.176 1.234.523.73.824 1.703.824 2.766 0 .128-.006.254-.016.379L8.92 7.857c-.091-.602-.304-1.132-.588-1.529-.383-.539-.86-.816-1.363-.816a.501.501 0 0 1 0-1zm-4 1.644v9.856h4v-4.45l.363-.105c.207-.059.415-.172.606-.336zm5.586 5.582a3.042 3.042 0 0 1-.586.387v3.887h3v-1.856z" style="fill:#222"/>
</svg>
