<!--
  SPDX-License-Identifier: CC0-1.0
  SPDX-FileCopyrightText: 2024 GNOME Foundation, Inc.
-->
<svg xmlns="http://www.w3.org/2000/svg" width="16" height="16">
    <path fill="#222" d="M3 2C1.356 2 0 3.356 0 5v6c0 1.645 1.356 3 3 3h10c1.645 0 3-1.355 3-3V5c0-1.644-1.355-3-3-3zm0 2h10c.57 0 1 .43 1 1v6c0 .57-.43 1-1 1H3c-.57 0-1-.43-1-1V5c0-.57.43-1 1-1m7.516.98a.557.557 0 0 0-.555.555c0 .305.25.555.555.555h1.898c.305 0 .55-.25.55-.555a.553.553 0 0 0-.55-.555zM6.5 5A2.507 2.507 0 0 0 4 7.5c0 .332.156.629.281.934C3.551 8.867 3 9.59 3 10.5a.499.499 0 1 0 1 0c0-.664.418-1.21 1.004-1.418a.483.483 0 0 0 .309-.313.496.496 0 0 0-.06-.437A1.501 1.501 0 0 1 5 7.5C5 6.664 5.664 6 6.5 6a1.49 1.49 0 0 1 1.242 2.332.509.509 0 0 0-.058.437c.05.149.164.266.312.313.59.207 1.024.758 1.004 1.406a.5.5 0 0 0 1 .024c.023-.926-.543-1.649-1.285-2.082C8.84 8.129 9 7.832 9 7.5 9 6.125 7.875 5 6.5 5m3.984 1.984a.52.52 0 0 0-.523.52c0 .289.234.523.523.523h1.961a.52.52 0 0 0 .52-.523c0-.29-.23-.52-.52-.52z"/>
</svg>
