<!--
  SPDX-License-Identifier: CC0-1.0
  SPDX-FileCopyrightText: 2024 GNOME Foundation, Inc.
-->
<svg xmlns="http://www.w3.org/2000/svg" width="16" height="16">
    <path d="m1.531.469-1.06 1.06 6.154 6.155L10 11.062a25.453 25.453 0 0 0 .002-.001l4.469 4.468 1.06-1.06-4.363-4.364a25.453 25.453 0 0 0 1.395-1.293L9.027 5.277 7.686 6.623zm12.754.125a1.504 1.504 0 0 0-1.015.441L9.734 4.57l1.414 1.414 2.536-2.535a1.501 1.501 0 1 0 .601-2.855M5.562 8.746l-5.019 5.02c.559.554 3.766 1.096 8.219-1.82z" style="fill:#222"/>
</svg>
