<svg xmlns="http://www.w3.org/2000/svg" width="1280" height="456" viewBox="0 0 338.667 120.65"><defs><clipPath clipPathUnits="userSpaceOnUse" id="a"><path fill="#f5c211" fill-opacity=".965" stroke="#f6c211" stroke-width="0" stroke-opacity=".971" d="M135.996 846.686h338.667v120.65H135.996z"/></clipPath></defs><g clip-path="url(#a)" transform="translate(-135.996 -846.686)"><circle transform="rotate(-45)" cx="-510.556" cy="772.495" r="3.175" fill="#e5a50a" fill-opacity=".965"/><circle transform="rotate(-45)" r="9.899" cy="772.495" cx="-510.556" fill="none" stroke="#f8e45c" stroke-width="5.292" stroke-opacity=".971"/><circle transform="rotate(-45)" cx="-510.571" cy="772.495" r="19.175" fill="none" stroke="#f8e45c" stroke-width="5.292" stroke-opacity=".971"/><circle transform="rotate(-45)" r="28.435" cy="772.495" cx="-510.571" fill="none" stroke="#f8e45c" stroke-width="5.292" stroke-opacity=".971"/><circle transform="rotate(-45)" cx="-510.571" cy="772.495" r="37.695" fill="none" stroke="#f8e45c" stroke-width="5.292" stroke-opacity=".971"/><circle transform="rotate(-45)" r="37.695" cy="772.495" cx="-510.571" fill="none" stroke="#f8e45c" stroke-width="5.292" stroke-opacity=".971"/><circle transform="rotate(-45)" cx="-510.571" cy="772.495" r="46.956" fill="none" stroke="#f8e45c" stroke-width="5.292" stroke-opacity=".971"/><circle transform="rotate(-45)" r="56.216" cy="772.495" cx="-510.571" fill="none" stroke="#f8e45c" stroke-width="5.292" stroke-opacity=".971"/><circle transform="rotate(-45)" cx="-510.571" cy="772.495" r="65.477" fill="none" stroke="#f8e45c" stroke-width="5.292" stroke-opacity=".971"/><circle transform="rotate(-45)" r="74.737" cy="772.495" cx="-510.571" fill="none" stroke="#f8e45c" stroke-width="5.292" stroke-opacity=".971"/><circle transform="rotate(-45)" cx="-510.571" cy="772.495" r="83.997" fill="none" stroke="#f8e45c" stroke-width="5.292" stroke-opacity=".971"/><path d="M244.604 847.87a83.997 83.997 0 0 1 0 118.79M238.055 854.418a74.737 74.737 0 0 1 0 105.694M231.507 860.966a65.477 65.477 0 0 1 0 92.598M224.96 867.514a56.216 56.216 0 0 1 0 79.502M218.411 874.062a46.956 46.956 0 0 1 0 66.406M211.863 880.61a37.695 37.695 0 0 1 0 53.31M205.315 887.159a28.435 28.435 0 0 1 0 40.213M198.767 893.707a19.175 19.175 0 0 1 0 27.117M192.219 900.255a9.899 9.899 0 0 1 0 13.999" fill="none" stroke="#e5a50a" stroke-width="5.292" stroke-opacity=".975"/></g></svg>