<svg xmlns="http://www.w3.org/2000/svg" width="256" height="512" version="1.0"><defs><linearGradient id="c"><stop offset="0" stop-color="#cfcfcc"/><stop offset=".037" stop-color="#e8e8e8" stop-opacity=".98"/><stop offset=".074" stop-color="#d0d0cc"/><stop offset=".923" stop-color="#d0d0cc"/><stop offset=".962" stop-color="#e8e8e8"/><stop offset="1" stop-color="#d0d0cc"/></linearGradient><linearGradient id="a"><stop offset="0" stop-color="#f6f5f4"/><stop offset="1" stop-color="#e1dfdd"/></linearGradient><linearGradient id="b"><stop offset="0" stop-color="#f6f5f4"/><stop offset=".333" stop-color="#fdfdfd"/><stop offset="1" stop-color="#c9c6c1"/></linearGradient></defs><path d="M69.293 35.105S21.305 154.242 21.445 216.909c.105 46.635 6.424 99.258 36.213 135.139 22.886 27.567 96.938 46.443 96.938 46.443l24.134 90.095 22.525-6.034-24.134-90.094s54.68-53.375 60.72-88.69c7.858-45.971-12.982-94.706-36.207-135.145-31.211-54.337-132.34-133.518-132.34-133.518z" fill="#0cc"/><path d="M178.369 488.86l22.525-6.04-42.247-157.664 41.22-71.393-14.282-8.243-32.971 57.117-12.067-45.05 32.971-57.118-14.282-8.242-24.728 42.84-9.054-33.787 24.735-42.835-14.282-8.249-16.486 28.565-21.5-78.57-22.524 6.033 21.499 78.57-28.559-16.492-8.243 14.283 42.841 24.728 9.053 33.788-42.84-24.735-8.243 14.283 57.117 32.977 12.067 45.044-57.117-32.977-8.243 14.282 71.4 41.215z" fill="#20baba"/></svg>