<svg xmlns="http://www.w3.org/2000/svg" xmlns:xlink="http://www.w3.org/1999/xlink" width="512" height="512" version="1.0"><defs><linearGradient id="a"><stop offset="0" stop-color="#d5d3cf"/><stop offset="1" stop-color="#f6f5f4"/></linearGradient><linearGradient id="b"><stop offset="0" stop-color="#d5d3cf"/><stop offset="1" stop-color="#949390"/></linearGradient><linearGradient id="c"><stop offset="0" stop-color="#9a9996"/><stop offset="1" stop-color="#77767b"/></linearGradient><linearGradient xlink:href="#d" id="h" gradientUnits="userSpaceOnUse" gradientTransform="matrix(4.7452 0 0 4.7 -48.942 -1096.8)" x1="12" y1="254" x2="116" y2="254"/><linearGradient id="d"><stop offset="0" stop-color="#77767b"/><stop offset=".038" stop-color="#c0bfbc"/><stop offset=".077" stop-color="#77767b"/><stop offset=".923" stop-color="#77767b"/><stop offset=".962" stop-color="#c0bfbc"/><stop offset="1" stop-color="#77767b"/></linearGradient><linearGradient xlink:href="#e" id="i" gradientUnits="userSpaceOnUse" gradientTransform="rotate(90 590 409.406) scale(4.40625)" x1="19" y1="209" x2="31" y2="209"/><linearGradient id="e"><stop offset="0" stop-color="#5e5c64"/><stop offset="1" stop-color="#77767b"/></linearGradient><linearGradient xlink:href="#e" id="j" gradientUnits="userSpaceOnUse" gradientTransform="rotate(90 660.5 673.781) scale(4.40625)" x1="19" y1="209" x2="31" y2="209"/><linearGradient xlink:href="#f" id="k" gradientUnits="userSpaceOnUse" gradientTransform="rotate(90 545.938 559.219) scale(4.40625)" x1="17" y1="209" x2="31" y2="209"/><linearGradient id="f"><stop offset="0" stop-color="#aeadab"/><stop offset="1" stop-color="#ceccc8"/></linearGradient><linearGradient xlink:href="#e" id="l" gradientUnits="userSpaceOnUse" gradientTransform="rotate(90 634.063 453.469) scale(4.40625)" x1="19" y1="209" x2="31" y2="209"/><linearGradient xlink:href="#e" id="m" gradientUnits="userSpaceOnUse" gradientTransform="rotate(90 678.125 497.531) scale(4.40625)" x1="19" y1="209" x2="31" y2="209"/><linearGradient xlink:href="#e" id="n" gradientUnits="userSpaceOnUse" gradientTransform="rotate(90 722.188 541.594) scale(4.40625)" x1="19" y1="209" x2="31" y2="209"/><linearGradient xlink:href="#e" id="o" gradientUnits="userSpaceOnUse" gradientTransform="rotate(90 766.25 585.656) scale(4.40625)" x1="19" y1="209" x2="31" y2="209"/><linearGradient xlink:href="#e" id="p" gradientUnits="userSpaceOnUse" gradientTransform="rotate(90 563.563 479.906) scale(4.40625)" x1="19" y1="209" x2="31" y2="209"/><linearGradient xlink:href="#e" id="q" gradientUnits="userSpaceOnUse" gradientTransform="rotate(90 607.625 523.969) scale(4.40625)" x1="19" y1="209" x2="31" y2="209"/><linearGradient xlink:href="#e" id="r" gradientUnits="userSpaceOnUse" gradientTransform="rotate(90 651.688 568.031) scale(4.40625)" x1="19" y1="209" x2="31" y2="209"/><linearGradient xlink:href="#g" id="s" gradientUnits="userSpaceOnUse" gradientTransform="rotate(90 717.781 634.125) scale(4.40625)" x1="19" y1="209" x2="31" y2="209"/><linearGradient id="g"><stop offset="0" stop-color="#e66100"/><stop offset="1" stop-color="#ff7800"/></linearGradient><linearGradient xlink:href="#e" id="t" gradientUnits="userSpaceOnUse" gradientTransform="rotate(90 501.875 515.156) scale(4.40625)" x1="19" y1="209" x2="31" y2="209"/></defs><g transform="translate(0 212)"><rect ry="35.25" rx="35.25" width="493.5" height="282" x="8" y="-44" fill="url(#h)"/><rect y="-149.75" x="8" height="370.125" width="493.5" rx="35.25" ry="38.961" fill="#f6f5f4"/><path d="M65.281-96.875H91.72c9.764 0 16.653 7.91 17.625 17.625l4.406 44.062c.972 9.716-7.86 17.625-17.625 17.625h-35.25c-9.764 0-18.597-7.909-17.625-17.625l4.406-44.062c.972-9.716 7.861-17.625 17.625-17.625z" fill="#3d3846"/><path d="M109.344-79.25v17.625c0 9.764-7.861 17.625-17.625 17.625H65.28a17.586 17.586 0 0 1-17.625-17.625V-79.25c0-9.764 7.861-17.625 17.625-17.625H91.72c9.764 0 17.625 7.86 17.625 17.625z" fill="url(#i)"/><path d="M153.406-96.875h26.438c9.764 0 16.653 7.91 17.625 17.625l4.406 44.062c.972 9.716-7.86 17.625-17.625 17.625H149c-9.764 0-18.597-7.909-17.625-17.625l4.406-44.062c.972-9.716 7.861-17.625 17.625-17.625zM241.531-96.875h26.438c9.764 0 16.653 7.91 17.625 17.625L290-35.188c.972 9.716-7.86 17.625-17.625 17.625h-35.25c-9.764 0-18.597-7.909-17.625-17.625l4.406-44.062c.972-9.716 7.861-17.625 17.625-17.625zM329.656-96.875h26.438c9.764 0 16.653 7.91 17.625 17.625l4.406 44.062c.972 9.716-7.86 17.625-17.625 17.625h-35.25c-9.764 0-18.597-7.909-17.625-17.625l4.406-44.062c.972-9.716 7.861-17.625 17.625-17.625zM417.781-96.875h26.438c9.764 0 16.653 7.91 17.625 17.625l4.406 44.062c.972 9.716-7.86 17.625-17.625 17.625h-35.25c-9.764 0-18.597-7.909-17.625-17.625l4.406-44.062c.972-9.716 7.861-17.625 17.625-17.625zM109.344.062h26.437c9.764 0 16.654 7.91 17.625 17.625l4.406 44.063c.972 9.716-7.86 17.625-17.625 17.625h-35.25c-9.764 0-18.596-7.91-17.625-17.625l4.407-44.063C92.69 7.972 99.579.062 109.344.062zM197.469.062h26.437c9.764 0 16.654 7.91 17.625 17.625l4.406 44.063c.972 9.716-7.86 17.625-17.625 17.625h-35.25c-9.764 0-18.596-7.91-17.625-17.625l4.407-44.063c.971-9.715 7.86-17.625 17.625-17.625zM285.594.062h26.437c9.764 0 16.654 7.91 17.625 17.625l4.406 44.063c.972 9.716-7.86 17.625-17.625 17.625h-35.25c-9.764 0-18.596-7.91-17.625-17.625l4.407-44.063c.971-9.715 7.86-17.625 17.625-17.625z" fill="#3d3846"/><path d="M373.719.062h30.843c9.765 0 16.654 7.91 17.625 17.625l4.407 44.063c.971 9.716-7.861 17.625-17.625 17.625h-39.657c-9.764 0-18.596-7.91-17.625-17.625l4.407-44.063c.971-9.715 7.86-17.625 17.625-17.625z" fill="#c64600"/><path d="M82.906 97h26.438c9.764 0 16.653 7.91 17.625 17.625l4.406 44.062c.972 9.716-7.86 17.625-17.625 17.625H78.5c-9.764 0-18.597-7.909-17.625-17.625l4.406-44.062C66.253 104.909 73.142 97 82.906 97zM400.156 97h26.438c9.764 0 16.653 7.91 17.625 17.625l4.406 44.062c.972 9.716-7.86 17.625-17.625 17.625h-35.25c-9.764 0-18.597-7.909-17.625-17.625l4.406-44.062c.972-9.716 7.861-17.625 17.625-17.625z" fill="#3d3846"/><path d="M444.219 114.625v17.625c0 9.764-7.861 17.625-17.625 17.625h-26.438a17.586 17.586 0 0 1-17.625-17.625v-17.625c0-9.764 7.861-17.625 17.625-17.625h26.438c9.764 0 17.625 7.86 17.625 17.625z" fill="url(#j)"/><path d="M171.031 97H338.47c9.764 0 16.653 7.91 17.625 17.625l4.406 44.062c.972 9.716-7.86 17.625-17.625 17.625h-176.25c-9.764 0-18.597-7.909-17.625-17.625l4.406-44.062c.972-9.716 7.861-17.625 17.625-17.625z" fill="#828186"/><path d="M356.094 114.625v17.625c0 9.764-7.861 17.625-17.625 17.625H171.03a17.586 17.586 0 0 1-17.625-17.625v-17.625c0-9.764 7.861-17.625 17.625-17.625H338.47c9.764 0 17.625 7.86 17.625 17.625z" fill="url(#k)"/><path d="M197.469-79.25v17.625c0 9.764-7.861 17.625-17.625 17.625h-26.438a17.586 17.586 0 0 1-17.625-17.625V-79.25c0-9.764 7.861-17.625 17.625-17.625h26.438c9.764 0 17.625 7.86 17.625 17.625z" fill="url(#l)"/><path d="M285.594-79.25v17.625c0 9.764-7.861 17.625-17.625 17.625H241.53a17.586 17.586 0 0 1-17.625-17.625V-79.25c0-9.764 7.861-17.625 17.625-17.625h26.438c9.764 0 17.625 7.86 17.625 17.625z" fill="url(#m)"/><path d="M373.719-79.25v17.625c0 9.764-7.861 17.625-17.625 17.625h-26.438a17.586 17.586 0 0 1-17.625-17.625V-79.25c0-9.764 7.861-17.625 17.625-17.625h26.438c9.764 0 17.625 7.86 17.625 17.625z" fill="url(#n)"/><path d="M461.844-79.25v17.625c0 9.764-7.861 17.625-17.625 17.625H417.78a17.586 17.586 0 0 1-17.625-17.625V-79.25c0-9.764 7.861-17.625 17.625-17.625h26.438c9.764 0 17.625 7.86 17.625 17.625z" fill="url(#o)"/><path d="M153.406 17.687v17.625c0 9.765-7.86 17.625-17.625 17.625h-26.437a17.586 17.586 0 0 1-17.625-17.625V17.687c0-9.764 7.86-17.625 17.625-17.625h26.437c9.764 0 17.625 7.861 17.625 17.625z" fill="url(#p)"/><path d="M241.531 17.687v17.625c0 9.765-7.86 17.625-17.625 17.625H197.47a17.586 17.586 0 0 1-17.625-17.625V17.687c0-9.764 7.86-17.625 17.625-17.625h26.437c9.764 0 17.625 7.861 17.625 17.625z" fill="url(#q)"/><path d="M329.656 17.687v17.625c0 9.765-7.86 17.625-17.625 17.625h-26.437a17.586 17.586 0 0 1-17.625-17.625V17.687c0-9.764 7.86-17.625 17.625-17.625h26.437c9.764 0 17.625 7.861 17.625 17.625z" fill="url(#r)"/><path d="M422.187 17.687v17.625c0 9.765-7.86 17.625-17.625 17.625H373.72a17.586 17.586 0 0 1-17.625-17.625V17.687c0-9.764 7.86-17.625 17.625-17.625h30.843c9.765 0 17.625 7.861 17.625 17.625z" fill="url(#s)"/><path d="M126.969 114.625v17.625c0 9.764-7.861 17.625-17.625 17.625H82.906a17.586 17.586 0 0 1-17.625-17.625v-17.625C65.281 104.86 73.142 97 82.906 97h26.438c9.764 0 17.625 7.86 17.625 17.625z" fill="url(#t)"/></g></svg>