<svg xmlns="http://www.w3.org/2000/svg" xmlns:xlink="http://www.w3.org/1999/xlink" width="512" height="512" version="1.0"><defs><linearGradient id="d"><stop offset="0" stop-color="#deddda" stop-opacity="0"/><stop offset="1" stop-color="#c0bfbc"/></linearGradient><linearGradient xlink:href="#a" id="h" x1="22.053" y1="93.909" x2="60" y2="93.909" gradientUnits="userSpaceOnUse"/><linearGradient id="a"><stop offset="0" stop-color="#a51d2d"/><stop offset=".132" stop-color="#f66151"/><stop offset=".299" stop-color="#c01c28"/><stop offset=".46" stop-color="#ed333b"/><stop offset=".593" stop-color="#a51d2d"/><stop offset="1" stop-color="#a51d2d"/></linearGradient><linearGradient xlink:href="#b" id="f" x1="-78" y1="312" x2="-54" y2="312" gradientUnits="userSpaceOnUse" gradientTransform="translate(132)"/><linearGradient id="b"><stop offset="0" stop-color="#a51d2d"/><stop offset=".194" stop-color="#f66151"/><stop offset=".5" stop-color="#c01c28"/><stop offset=".682" stop-color="#e01b24"/><stop offset="1" stop-color="#a51d2d"/></linearGradient><linearGradient xlink:href="#c" id="e" x1="28" y1="-274" x2="116" y2="-274" gradientUnits="userSpaceOnUse" gradientTransform="translate(-585.193 930.254) scale(4.08475)"/><linearGradient id="c"><stop offset="0" stop-color="#c0bfbc"/><stop offset=".045" stop-color="#f6f5f4"/><stop offset=".091" stop-color="#deddda"/><stop offset=".909" stop-color="#deddda"/><stop offset=".955" stop-color="#f6f5f4"/><stop offset="1" stop-color="#c0bfbc"/></linearGradient><linearGradient xlink:href="#d" id="i" gradientUnits="userSpaceOnUse" x1="60" y1="62" x2="64" y2="62"/></defs><g transform="translate(0 212)"><rect ry="32.678" y="21.492" x="111.362" height="241" width="359.458" rx="32.678" fill="#deddda"/><rect ry="32.678" rx="32.678" y="-262.492" x="-470.82" height="163.39" width="359.458" style="marker:none" transform="scale(-1)" fill="url(#e)"/><rect width="359.458" height="424.814" x="111.362" y="-195" rx="32.678" ry="32.678" fill="#f6f5f4"/><path style="marker:none" d="M144.04 82.763v40.847h261.424v-16.339h32.678V82.763z" color="#000" overflow="visible" fill="#deddda"/><path style="line-height:normal;font-variant-ligatures:normal;font-variant-position:normal;font-variant-caps:normal;font-variant-numeric:normal;font-variant-alternates:normal;font-feature-settings:normal;text-indent:0;text-align:start;text-decoration-line:none;text-decoration-style:solid;text-decoration-color:#000;text-transform:none;text-orientation:mixed;white-space:normal;shape-padding:0;isolation:auto;mix-blend-mode:normal;solid-color:#000;solid-opacity:1" d="M144.04-145.983v16.339h163.39v-16.339z" color="#000" font-weight="400" font-family="sans-serif" overflow="visible" fill="#deddda" fill-rule="evenodd"/><path style="marker:none" d="M144.04-23.44h294.102v73.525H225.735v16.339H144.04zm147.05-32.679v16.34H144.04v-73.526h294.102v57.186z" color="#000" overflow="visible" fill="#deddda"/><path d="M470.82 216.147c-.336 16.71-13.81 30.006-30.604 30.006h-2.042v4.084h2.042c13.169 0 24.598-7.304 30.484-18.086.055-.775.12-1.548.12-2.337zm-171.56 30.006l138.882 4.084v-4.084z" fill="#c0bfbc" fill-opacity=".272"/><g transform="translate(-52.028 -950.525) scale(4.08475)"><circle r="8.516" cy="152.028" cx="259.539" transform="rotate(45)" fill="none" stroke="#c01c28" stroke-width="5" stroke-linecap="round" stroke-linejoin="round"/><path d="M65.995 268.962h6v-72l-1.415-1.414s-6.585 5.061-6.585 17.414l.005 27.19.097 2.723 1.898 2.087z" fill="#9a9996" fill-rule="evenodd"/><path d="M66 300c-6.592 0-12 5.408-12 12s5.408 12 12 12 12-5.408 12-12-5.408-12-12-12zm0 2c3.35 0 8 2.65 8 6s-4.65 10-8 10c-3.35 0-8-6.65-8-10 0-3.35 4.65-6 8-6z" style="line-height:normal;font-variant-ligatures:normal;font-variant-position:normal;font-variant-caps:normal;font-variant-numeric:normal;font-variant-alternates:normal;font-feature-settings:normal;text-indent:0;text-align:start;text-decoration-line:none;text-decoration-style:solid;text-decoration-color:#000;text-transform:none;text-orientation:mixed;white-space:normal;shape-padding:0;isolation:auto;mix-blend-mode:normal;solid-color:#000;solid-opacity:1" color="#000" font-weight="400" font-family="sans-serif" overflow="visible" fill="url(#f)" transform="translate(9.995 -21.038)"/><use height="100%" width="100%" transform="scale(-1 1) rotate(-45 -.464 413.359)" xlink:href="#g"/><circle r="8.516" cy="169.669" cx="217.799" transform="rotate(45)" fill="none" stroke="#c01c28" stroke-width="5" stroke-linecap="round" stroke-linejoin="round"/><path d="M56.661 265.63l-4.242-4.242 50.836-51.29.075.378s5.657 5.657-5.656 16.971L76.95 248.105h-2.976z" fill="#77767b" fill-rule="evenodd"/><path transform="translate(0 177.713)" d="M53.832 79.434l-12.727 7.07.018.236c-4.684-3.429-11.351-3.045-15.574 1.178-4.661 4.661-4.661 12.31 0 16.97 4.661 4.662 12.31 4.662 16.97 0l16.971-16.97a2.55 2.55 0 0 0 .51-.752v-2.781zm-19.799 6.95c1.53 0 3.06.592 4.244 1.776 2.369 2.368 2.369 10.118 0 12.486a5.956 5.956 0 0 1-8.486 0c-2.368-2.368-2.368-10.118 0-12.486a5.979 5.979 0 0 1 4.242-1.775z" style="line-height:normal;font-variant-ligatures:normal;font-variant-position:normal;font-variant-caps:normal;font-variant-numeric:normal;font-variant-alternates:normal;font-feature-settings:normal;text-indent:0;text-align:start;text-decoration-line:none;text-decoration-style:solid;text-decoration-color:#000;text-transform:none;text-orientation:mixed;white-space:normal;shape-padding:0;isolation:auto;mix-blend-mode:normal;solid-color:#000;solid-opacity:1" color="#000" font-weight="400" font-family="sans-serif" overflow="visible" fill="url(#h)"/><g id="g" display="inline"><path d="M58 290h6v-72s-8 0-8 16l.046 29.26 2.104 2.104z" fill="#9a9996" fill-rule="evenodd" transform="scale(-1 1) rotate(-45 -31.3 415.202)"/><g transform="scale(-1 1) rotate(-45 -32.3 412.788)"><path d="M54 312v-24c0-2 2-2 2-2h6.037s1.918-.136 2.444 1.45l4.397 13.27z" fill="#ed333b" fill-rule="evenodd"/><circle transform="scale(-1 1)" cx="-66.05" cy="312.033" r="9.516" fill="none" stroke="#ed333b" stroke-width="5" stroke-linecap="round" stroke-linejoin="round"/><circle transform="scale(-1 1)" r="7" cy="312" cx="-66" fill="none" stroke="#e01b24" stroke-width="2" stroke-linecap="round" stroke-linejoin="round"/></g><path transform="scale(-1 1) rotate(-45 176.323 329.202)" d="M64 46s-1.872.535-4 2.037V90l4 2z" fill="url(#i)" fill-rule="evenodd"/></g><circle r="2" cy="125.865" cx="-223.446" transform="scale(-1 1) rotate(-45)" fill="#3d3846"/><path d="M72 250.128v1.879l-5.932 5.86-.068-1.739z" style="line-height:normal;font-variant-ligatures:normal;font-variant-position:normal;font-variant-caps:normal;font-variant-numeric:normal;font-variant-alternates:normal;font-feature-settings:normal;text-indent:0;text-align:start;text-decoration-line:none;text-decoration-style:solid;text-decoration-color:#000;text-transform:none;text-orientation:mixed;white-space:normal;shape-padding:0;isolation:auto;mix-blend-mode:normal;solid-color:#000;solid-opacity:1" color="#000" font-weight="400" font-family="sans-serif" overflow="visible" opacity=".2" fill-rule="evenodd"/><path d="M74 246l-.025 2.105h2.976l.025-2.105z" opacity=".2" fill-rule="evenodd"/></g></g></svg>