<svg xmlns="http://www.w3.org/2000/svg" xmlns:xlink="http://www.w3.org/1999/xlink" width="1000" height="600"><defs><linearGradient id="d"><stop offset="0" stop-color="#fdcc80"/><stop offset=".4" stop-color="#fcb546"/><stop offset="1" stop-color="#fb8c14"/></linearGradient><linearGradient id="a"><stop offset="0" stop-color="#fff"/><stop offset=".4" stop-color="#fff"/><stop offset="1" stop-color="#f6f5f4"/></linearGradient><radialGradient xlink:href="#a" id="r" gradientUnits="userSpaceOnUse" gradientTransform="matrix(4 0 0 4 -1303.755 -442.564)" cx="134.2" cy="222.988" fx="134.2" fy="222.988" r="2"/><radialGradient xlink:href="#a" id="q" gradientUnits="userSpaceOnUse" gradientTransform="matrix(4 0 0 4 -1303.755 -482.564)" cx="134.2" cy="222.988" fx="134.2" fy="222.988" r="2"/><radialGradient xlink:href="#a" id="p" gradientUnits="userSpaceOnUse" gradientTransform="matrix(6 0 0 6 -1596.155 -866.54)" cx="134.2" cy="222.988" fx="134.2" fy="222.988" r="2"/><radialGradient xlink:href="#a" id="o" cx="134.2" cy="222.988" fx="134.2" fy="222.988" r="2" gradientUnits="userSpaceOnUse" gradientTransform="matrix(6 0 0 6 -1596.155 -954.54)"/><radialGradient xlink:href="#a" id="n" gradientUnits="userSpaceOnUse" gradientTransform="matrix(4 0 0 4 -1263.755 -482.564)" cx="134.2" cy="222.988" fx="134.2" fy="222.988" r="2"/><radialGradient xlink:href="#a" id="m" gradientUnits="userSpaceOnUse" gradientTransform="matrix(4 0 0 4 -1263.755 -442.564)" cx="134.2" cy="222.988" fx="134.2" fy="222.988" r="2"/><radialGradient xlink:href="#a" id="l" gradientUnits="userSpaceOnUse" gradientTransform="matrix(6 0 0 6 -1508.155 -866.54)" cx="134.2" cy="222.988" fx="134.2" fy="222.988" r="2"/><radialGradient xlink:href="#a" id="k" gradientUnits="userSpaceOnUse" gradientTransform="matrix(6 0 0 6 -1508.155 -954.54)" cx="134.2" cy="222.988" fx="134.2" fy="222.988" r="2"/><linearGradient xlink:href="#b" id="f" x1="136" y1="256" x2="376" y2="256" gradientUnits="userSpaceOnUse" gradientTransform="translate(347.043 -12.613)"/><linearGradient id="b"><stop offset="0" stop-color="#babdb6"/><stop offset=".033" stop-color="#fff"/><stop offset=".2" stop-color="#7a8599"/><stop offset=".267" stop-color="#e4e6e8"/><stop offset=".284" stop-color="#c5c9cf"/><stop offset=".719" stop-color="#7a8599"/><stop offset=".751" stop-color="#fff"/><stop offset=".899" stop-color="#7a8599"/><stop offset="1" stop-color="#e4e6e8"/></linearGradient><radialGradient xlink:href="#c" id="e" cx="254.015" cy="419.989" fx="254.015" fy="419.989" r="223.985" gradientTransform="matrix(1.6429 0 0 1.643 -163.306 -270.045)" gradientUnits="userSpaceOnUse"/><linearGradient id="c"><stop offset="0" stop-color="#fc8a3e"/><stop offset="1" stop-color="#ed6204"/></linearGradient><radialGradient xlink:href="#a" id="g" gradientUnits="userSpaceOnUse" gradientTransform="matrix(.2308 0 0 .22763 -1507.88 83.084)" cx="279.422" cy="-61.739" fx="279.422" fy="-61.739" r="224"/><radialGradient xlink:href="#d" id="i" gradientUnits="userSpaceOnUse" gradientTransform="matrix(.17087 0 0 .16852 -1412.845 162.179)" cx="279.422" cy="-61.739" fx="279.422" fy="-61.739" r="224"/></defs><g transform="rotate(30 531.958 423.98)"><ellipse style="marker:none" cx="456.014" cy="-156" rx="47.986" ry="48" transform="translate(323.043 231.387)" opacity=".15"/><path transform="translate(347.043 -12.613)" d="M80.014 32a47.986 48 0 0 0-47.985 48A47.986 48 0 0 0 56 121.504v269.008A47.986 48 0 0 0 32.03 432a47.986 48 0 0 0 47.984 48 47.986 48 0 0 0 41.506-24h269.005a47.986 48 0 0 0 41.489 24A47.986 48 0 0 0 480 432a47.986 48 0 0 0-24-41.521V121.504A47.986 48 0 0 0 480 80a47.986 48 0 0 0-47.986-48 47.986 48 0 0 0-41.506 24H121.502a47.986 48 0 0 0-41.488-24z" style="marker:none" fill="url(#e)"/><path d="M519.043 115.387c-19.944 0-36 16.056-36 36v16c0 12.53 6.34 23.522 15.998 29.965v92.07c-9.657 6.444-15.998 17.435-15.998 29.965v16c0 17.85 12.865 32.575 29.864 35.473a36 36 0 0 0 .033.006 36.28 36.28 0 0 0 3.355.408 36 36 0 0 0 .428.032c.768.048 1.54.082 2.32.082 12.532 0 23.524-6.343 29.967-16.002h108.066a35.883 35.883 0 0 0 26.963 15.869 36 36 0 0 0 .252.017c.91.069 1.825.116 2.752.116 17.85 0 32.575-12.865 35.473-29.864v-.017a36 36 0 0 0 0-.016 36.24 36.24 0 0 0 .408-3.355 36 36 0 0 0 .031-.428c.055-.768.088-1.54.088-2.32v-16c0-12.53-6.34-23.522-15.998-29.965v-92.07a35.883 35.883 0 0 0 15.863-26.94 36 36 0 0 0 .024-.32c.066-.894.111-1.794.111-2.706v-16c0-19.944-16.056-36-36-36-18.59 0-33.796 13.952-35.775 31.999h-96.45c-1.979-18.047-17.184-31.999-35.775-31.999zm29.967 71.999h108.067a35.999 35.999 0 0 0 9.968 9.968v92.067c-8.616 5.747-14.587 15.114-15.777 25.965h-96.45a35.88 35.88 0 0 0-15.777-25.965v-92.067a36 36 0 0 0 9.97-9.968z" style="marker:none" fill="url(#f)"/><circle style="marker:none" cx="519.043" cy="151.387" r="36" fill="#fff"/><circle style="marker:none" cx="687.043" cy="151.387" r="36" fill="#fff"/><path style="marker:none" d="M527.043 151.385h152" fill="#fff" stroke="#fff" stroke-width="40" stroke-linecap="round"/><circle style="marker:none" cx="687.043" cy="319.387" r="36" fill="#fff"/><circle style="marker:none" cx="519.043" cy="319.387" r="36" fill="#fff"/><path style="marker:none" d="M679.043 319.385h-152m160.002-159.998v152m-168.004 0v-152" fill="#fff" stroke="#fff" stroke-width="40" stroke-linecap="round"/></g><g transform="rotate(15 -592.354 6719.751)"><path style="marker:none" d="M-1364.957 139.887a32 32 0 0 0-32 32 32 32 0 0 0 17 28.249v104.796a32 32 0 0 0-16.5 27.955 32 32 0 0 0 32 32 32 32 0 0 0 28.248-17h103.297a32 32 0 0 0 27.955 16.5 32 32 0 0 0 32-32 32 32 0 0 0-16-27.677V200.055a32 32 0 0 0 16-27.668 32 32 0 0 0-32-32 32 32 0 0 0-27.37 15.5h-104.962a32 32 0 0 0-27.668-16zm27.678 48h104.367a32 32 0 0 0 11.955 12.178V304.72a32 32 0 0 0-11.37 11.168h-105.036a32 32 0 0 0-10.594-10.37V198.98a32 32 0 0 0 10.678-11.094z" fill="#e35e0d"/><path d="M-1364.957 131.887a32 32 0 0 0-32 32 32 32 0 0 0 17 28.249v104.796a32 32 0 0 0-16.5 27.955 32 32 0 0 0 32 32 32 32 0 0 0 28.248-17h103.297a32 32 0 0 0 27.955 16.5 32 32 0 0 0 32-32 32 32 0 0 0-16-27.677V192.055a32 32 0 0 0 16-27.668 32 32 0 0 0-32-32 32 32 0 0 0-27.37 15.5h-104.962a32 32 0 0 0-27.668-16zm27.678 48h104.367a32 32 0 0 0 11.955 12.178V296.72a32 32 0 0 0-11.37 11.168h-105.036a32 32 0 0 0-10.594-10.37V190.98a32 32 0 0 0 10.678-11.094z" style="marker:none" fill="#fb8c14"/><path style="line-height:normal;font-variant-ligatures:normal;font-variant-position:normal;font-variant-caps:normal;font-variant-numeric:normal;font-variant-alternates:normal;font-feature-settings:normal;text-indent:0;text-align:start;text-decoration-line:none;text-decoration-style:solid;text-decoration-color:#000;text-transform:none;text-orientation:mixed;white-space:normal;shape-padding:0;isolation:auto;mix-blend-mode:normal;solid-color:#000;solid-opacity:1;marker:none" d="M-1443.707 51.887a39.75 39.75 0 0 0-39.75 39.75 39.75 39.75 0 0 0 23.5 36.239v247.539a39.75 39.75 0 0 0-23.5 36.222 39.75 39.75 0 0 0 39.75 39.75 39.75 39.75 0 0 0 36.395-23.822h246.238a39.75 39.75 0 0 0 36.367 23.822 39.75 39.75 0 0 0 39.75-39.75 39.75 39.75 0 0 0-24-36.48V128.085a39.75 39.75 0 0 0 24-36.448 39.75 39.75 0 0 0-39.75-39.75 39.75 39.75 0 0 0-36.466 23.971h-246.1a39.75 39.75 0 0 0-36.434-23.97zm36.254 55.971h246.51a39.75 39.75 0 0 0 19.986 20.018v247.539a39.75 39.75 0 0 0-20.074 20.15h-246.373a39.75 39.75 0 0 0-20.553-20.408V128.085a39.75 39.75 0 0 0 20.504-20.227z" color="#000" font-weight="400" font-family="sans-serif" overflow="visible" fill="#d5d3cf"/><path d="M-1443.707 43.887a39.75 39.75 0 0 0-39.75 39.75 39.75 39.75 0 0 0 23.5 36.239v247.539a39.75 39.75 0 0 0-23.5 36.222 39.75 39.75 0 0 0 39.75 39.75 39.75 39.75 0 0 0 36.395-23.822h246.238a39.75 39.75 0 0 0 36.367 23.822 39.75 39.75 0 0 0 39.75-39.75 39.75 39.75 0 0 0-24-36.48V120.085a39.75 39.75 0 0 0 24-36.448 39.75 39.75 0 0 0-39.75-39.75 39.75 39.75 0 0 0-36.466 23.971h-246.1a39.75 39.75 0 0 0-36.434-23.97zm36.254 55.971h246.51a39.75 39.75 0 0 0 19.986 20.018v247.539a39.75 39.75 0 0 0-20.074 20.15h-246.373a39.75 39.75 0 0 0-20.553-20.408V120.085a39.75 39.75 0 0 0 20.504-20.227z" style="line-height:normal;font-variant-ligatures:normal;font-variant-position:normal;font-variant-caps:normal;font-variant-numeric:normal;font-variant-alternates:normal;font-feature-settings:normal;text-indent:0;text-align:start;text-decoration-line:none;text-decoration-style:solid;text-decoration-color:#000;text-transform:none;text-orientation:mixed;white-space:normal;shape-padding:0;isolation:auto;mix-blend-mode:normal;solid-color:#000;solid-opacity:1;marker:none" color="#000" font-weight="400" font-family="sans-serif" overflow="visible" fill="#f6f5f4"/><circle style="marker:none" id="h" cx="-1443.207" cy="83.637" r="40.25" display="inline" opacity="1" fill="url(#g)" fill-opacity="1" stroke="none" stroke-width=".045" stroke-linecap="butt" stroke-linejoin="miter" stroke-miterlimit="4" stroke-dasharray="none" stroke-dashoffset="0" stroke-opacity="1" marker-start="none" marker-mid="none" marker-end="none" paint-order="normal"/><use height="100%" width="100%" transform="translate(318)" xlink:href="#h"/><use height="100%" width="100%" transform="translate(318 319.5)" xlink:href="#h"/><use height="100%" width="100%" transform="translate(0 319.5)" xlink:href="#h"/><circle style="marker:none" id="j" cx="-1364.957" cy="163.387" r="32" display="inline" opacity="1" fill="url(#i)" fill-opacity="1" stroke="none" stroke-width=".045" stroke-linecap="butt" stroke-linejoin="miter" stroke-miterlimit="4" stroke-dasharray="none" stroke-dashoffset="0" stroke-opacity="1" marker-start="none" marker-mid="none" marker-end="none" paint-order="normal"/><use height="100%" width="100%" transform="translate(160)" xlink:href="#j"/><use height="100%" width="100%" transform="translate(160 161.5)" xlink:href="#j"/><use height="100%" width="100%" transform="translate(0 161.5)" xlink:href="#j"/></g><g transform="translate(2441.487 -897.107) scale(3.01813)"><path d="M-788.605 393.74h82.687v82.686h-82.687z" style="line-height:normal;font-variant-ligatures:normal;font-variant-position:normal;font-variant-caps:normal;font-variant-numeric:normal;font-variant-alternates:normal;font-feature-settings:normal;text-indent:0;text-align:start;text-decoration-line:none;text-decoration-style:solid;text-decoration-color:#000;text-transform:none;text-orientation:mixed;white-space:normal;shape-padding:0;isolation:auto;mix-blend-mode:normal;solid-color:#000;solid-opacity:1;marker:none" color="#000" font-weight="400" font-family="sans-serif" overflow="visible" fill="none"/><g color="#000" fill="none" stroke="#f6f5f4" stroke-width="8"><path d="M-726.957 455.387l24 24m-24-64l24-24m-64 64l-24 24m24-64l-24-24m24 24h40v40h-40z" style="marker:none" overflow="visible"/><path style="marker:none" overflow="visible" d="M-790.957 391.387h88v88h-88z"/></g><path style="marker:none" fill="#d5d3cf" d="M-712.457 393.387v2h-69v-2z"/><path d="M-690.957 391.387c0 6.628-5.372 12-12 12-1.849 0-3.222-.095-5.165-1.165-1.092-1.726-3.55-4.585-5.668-5.667-1.071-1.943-1.167-3.317-1.167-5.168 0-6.627 5.373-12 12-12 6.628 0 12 5.373 12 12z" style="marker:none" color="#000" overflow="visible" fill="#d5d3cf"/><path style="marker:none" fill="#d5d3cf" d="M-700.957 402.387h2v69h-2z"/><circle r="12" cy="479.387" cx="-702.957" style="marker:none" color="#000" overflow="visible" fill="#d5d3cf"/><path style="marker:none" fill="#d5d3cf" d="M-731.957 457.387v2h-30v-2zm20.605 16.426l-1.414 1.414-15-15 1.415-1.414zm3.453-74.633l1.414 1.414-15 15-1.414-1.414z"/><circle r="12" cy="389.387" cx="-702.957" style="marker:none" color="#000" overflow="visible" fill="url(#k)"/><path style="marker:none" fill="#d5d3cf" d="M-724.957 421.387h2v26h-2zm-7-4v2h-30v-2z"/><circle r="8" cy="415.387" cx="-726.957" style="marker:none" color="#000" overflow="visible" fill="#d5d3cf"/><path style="marker:none" fill="#d5d3cf" d="M-712.457 481.387v2h-69v-2z"/><circle style="marker:none" cx="-702.957" cy="477.387" r="12" color="#000" overflow="visible" fill="url(#l)"/><path d="M-718.957 455.387c0 .666 0 1-.234 1.932-1.166.59-4.766 4.543-5.788 5.822-.502.246-1.295.246-1.978.246a8 8 0 1 1 8-8z" style="marker:none" color="#000" overflow="visible" fill="#d5d3cf"/><circle r="8" cy="453.387" cx="-726.957" style="marker:none" color="#000" overflow="visible" fill="url(#m)"/><circle style="marker:none" cx="-726.957" cy="413.387" r="8" color="#000" overflow="visible" fill="url(#n)"/><path style="marker:none" fill="#d5d3cf" d="M-788.957 402.387h2v69h-2z"/><circle style="marker:none" cx="-790.957" cy="479.387" r="12" color="#000" overflow="visible" fill="#d5d3cf"/><path style="marker:none" fill="#d5d3cf" d="M-764.957 421.387h2v26h-2z"/><circle style="marker:none" cx="-766.957" cy="415.387" r="8" color="#000" overflow="visible" fill="#d5d3cf"/><path style="marker:none" fill="#d5d3cf" d="M-767.37 458.973l1.414 1.414-15 15-1.415-1.414z"/><path style="marker:none" d="M-803.045 391.387c0 6.628 5.373 12 12 12 1.85 0 3.222-.095 5.165-1.165 1.092-1.726 3.55-4.585 5.668-5.667 1.071-1.943 1.167-3.317 1.167-5.168 0-6.627-5.373-12-12-12s-12 5.373-12 12z" color="#000" overflow="visible" fill="#d5d3cf"/><path style="marker:none" fill="#d5d3cf" d="M-770.88 414.34l-1.414 1.415-15-15 1.415-1.414z"/><circle style="marker:none" cx="-790.957" cy="389.387" r="12" color="#000" overflow="visible" fill="url(#o)"/><circle r="12" cy="477.387" cx="-790.957" style="marker:none" color="#000" overflow="visible" fill="url(#p)"/><circle r="8" cy="413.387" cx="-766.957" style="marker:none" color="#000" overflow="visible" fill="url(#q)"/><path style="marker:none" d="M-774.957 455.387c0 .666 0 1 .235 1.932 1.166.59 4.765 4.543 5.788 5.822.502.246 1.295.246 1.977.246a8 8 0 1 0-8-8z" color="#000" overflow="visible" fill="#d5d3cf"/><circle style="marker:none" cx="-766.957" cy="453.387" r="8" color="#000" overflow="visible" fill="url(#r)"/></g><rect style="marker:none" width="92.923" height="91.424" x="1029.642" y="322.731" rx="2" ry="2" fill="#fca937"/><rect ry="2" rx="2" y="204.33" x="1029.642" height="91.424" width="92.923" style="marker:none" fill="#ed6204"/></svg>