<svg xmlns="http://www.w3.org/2000/svg" width="800" height="400" version="1.0"><circle style="marker:none" cx="167" cy="157" r="33" fill="#26a269"/><circle r="33" cy="238" cx="651" style="marker:none" fill="#26a269"/><circle style="marker:none" cx="419" cy="154" r="33" fill="#26a269"/><g transform="translate(110 131)"><rect ry="11.393" rx="11.393" y="71" x="70" height="52" width="410" style="marker:none" fill="#fff" stroke="#26a269" stroke-width="2" stroke-linejoin="round"/><circle r="11" cy="97" cx="97" style="marker:none" fill="#1f1f1f"/><circle style="marker:none" cx="125" cy="97" r="11" fill="#1f1f1f"/><circle style="marker:none" cx="153" cy="97" r="11" fill="#1f1f1f"/><circle r="11" cy="97" cx="181" style="marker:none" fill="#1f1f1f"/><circle style="marker:none" cx="209" cy="97" r="11" fill="#1f1f1f"/><circle r="11" cy="97" cx="237" style="marker:none" fill="#1f1f1f"/><circle r="11" cy="97" cx="265" style="marker:none" fill="#1f1f1f"/><circle style="marker:none" cx="293" cy="97" r="11" fill="#1f1f1f"/></g><path style="marker:none" d="M187 158h440c12.314 0 21 9.739 21 21v57" fill="none" stroke="#26a269" stroke-width="20" stroke-linejoin="round"/><path style="line-height:normal;font-variant-ligatures:normal;font-variant-position:normal;font-variant-caps:normal;font-variant-numeric:normal;font-variant-alternates:normal;font-feature-settings:normal;text-indent:0;text-align:start;text-decoration-line:none;text-decoration-style:solid;text-decoration-color:#000;text-transform:none;text-orientation:mixed;white-space:normal;shape-padding:0;isolation:auto;mix-blend-mode:normal;solid-color:#000;solid-opacity:1;marker:none" d="M413 144a8 8 0 0 0-8 8 8 8 0 0 0 8 8 8 8 0 0 0 7.74-6H429v4h6v-8h-14.266a8 8 0 0 0-7.734-6zm0 4a4 4 0 0 1 4 4 4 4 0 0 1-4 4 4 4 0 0 1-4-4 4 4 0 0 1 4-4z" color="#000" font-weight="400" font-family="sans-serif" overflow="visible" fill="#fff"/><g fill="#fff" color="#bebebe"><path style="marker:none" d="M640.938 234c-1.108 0-2 .892-2 2v12h24v-12c0-1.108-.892-2-2-2z" overflow="visible"/><path style="line-height:normal;font-variant-ligatures:normal;font-variant-position:normal;font-variant-caps:normal;font-variant-numeric:normal;font-variant-alternates:normal;font-feature-settings:normal;text-indent:0;text-align:start;text-decoration-line:none;text-decoration-style:solid;text-decoration-color:#000;text-transform:none;text-orientation:mixed;white-space:normal;shape-padding:0;isolation:auto;mix-blend-mode:normal;solid-color:#000;solid-opacity:1;marker:none" d="M658.914 222c-3.288 0-5.93 2.71-5.914 6v12h4v-12c0-1.142.772-2 1.914-2h.032c1.142 0 2 .858 2 2v2h4v-2c0-3.29-2.71-6-6-6z" font-weight="400" font-family="sans-serif" overflow="visible"/></g><path style="marker:none" d="M165 143c-3.29 0-6 2.71-6 6v6h-2c-1.108 0-2 .892-2 2v12h24v-12c0-1.108-.892-2-2-2h-2v-6c0-3.29-2.71-6-6-6zm0 4h4c1.143 0 2 .857 2 2v6h-8v-6c0-1.143.857-2 2-2z" color="#bebebe" overflow="visible" fill="#fff"/></svg>