<svg xmlns="http://www.w3.org/2000/svg" width="512" height="512"><path d="M340.426 415.655c-70.053 0-126.837-53.565-126.837-119.633 0-66.06 56.784-119.625 126.837-119.625 70.057 0 126.842 53.565 126.842 119.625 0 66.068-56.785 119.633-126.842 119.633z" fill="#fff"/><path d="M267.396 282.544c.926-16.782 9.166-31.593 21.568-42.082 12.185-10.31 28.556-16.608 46.434-16.608 17.877 0 34.248 6.298 46.433 16.608 12.402 10.489 20.63 25.3 21.577 42.074.946 17.274-5.988 33.322-18.156 45.192-12.406 12.096-30.083 19.695-49.854 19.695-19.772 0-37.46-7.599-49.867-19.695-12.168-11.878-19.09-27.918-18.131-45.184" fill="#0d528b"/><path d="M159.077 316.527c.112 6.556 2.216 19.328 5.359 29.325 6.608 21.113 17.825 40.647 33.438 57.876a172.844 172.844 0 0 0 58.481 41.985 188.034 188.034 0 0 0 76.814 15.985 188.614 188.614 0 0 0 76.79-16.238c22.762-10.186 42.453-24.442 58.46-42.175 15.582-17.277 26.783-36.868 33.404-57.989a147.431 147.431 0 0 0 6.273-32.367c.834-10.702.48-21.436-1.035-32.146a149.486 149.486 0 0 0-21.315-58.331 163.48 163.48 0 0 0-38.883-42.88l.024-.02-157.35-120.838-.404-.322c-10.343-7.918-27.705-7.898-39.051.052-11.492 8.038-12.785 21.31-2.579 29.704l-.028.032 65.62 53.388-200.057.201h-.282c-16.528.008-32.407 10.88-35.574 24.575-3.212 13.977 8.026 25.558 25.199 25.634v.044l101.388-.189L22.82 330.718l-.693.524C5.07 344.305-.458 366.047 10.284 379.802c10.923 13.998 34.116 14.01 51.373.065l98.745-80.803s-1.426 10.92-1.325 17.463zm253.747 36.513c-20.34 20.751-48.807 32.5-79.659 32.557-30.848.068-59.335-11.592-79.687-32.299a94.668 94.668 0 0 1-21.758-34.047 88.563 88.563 0 0 1-5-38.033 89.953 89.953 0 0 1 10.92-35.82 98.927 98.927 0 0 1 24.207-28.789c19.772-16.125 44.939-24.844 71.298-24.877 26.36-.032 51.526 8.615 71.298 24.676a98.46 98.46 0 0 1 24.208 28.688 90.155 90.155 0 0 1 10.92 35.8 88.628 88.628 0 0 1-5.001 38.028 95.183 95.183 0 0 1-21.746 34.116" fill="#f5792a"/></svg>