<svg xmlns="http://www.w3.org/2000/svg" xmlns:xlink="http://www.w3.org/1999/xlink" width="872" height="512"><defs><radialGradient xlink:href="#a" id="i" gradientUnits="userSpaceOnUse" gradientTransform="matrix(22.22797 0 0 4.4603 -1219.105 -496.068)" cx="64.846" cy="194.19" fx="64.846" fy="194.19" r="44"/><linearGradient id="a"><stop offset="0" stop-color="#fff"/><stop offset="1" stop-color="#fff" stop-opacity=".094"/></linearGradient><linearGradient xlink:href="#b" id="j" gradientUnits="userSpaceOnUse" gradientTransform="matrix(-4.1143 0 0 4.1143 447.353 -779.735)" x1="22.472" y1="257" x2="100.444" y2="257"/><linearGradient id="b"><stop offset="0" stop-color="#57e389"/><stop offset="1" stop-color="#57e389" stop-opacity=".204"/></linearGradient><linearGradient xlink:href="#c" id="k" gradientUnits="userSpaceOnUse" gradientTransform="matrix(.25 0 0 .25 -30 125.009)" x1="167.785" y1="619.964" x2="520.004" y2="620.196"/><linearGradient id="c"><stop offset="0" stop-color="#d5d3cf"/><stop offset=".046" stop-color="#e4e1de"/><stop offset=".091" stop-color="#d5d3cf"/><stop offset=".909" stop-color="#d5d3cf"/><stop offset=".955" stop-color="#e4e1de"/><stop offset="1" stop-color="#d5d3cf"/></linearGradient><linearGradient xlink:href="#d" id="l" gradientUnits="userSpaceOnUse" gradientTransform="translate(-8)" x1="36" y1="264" x2="36" y2="286"/><linearGradient id="d"><stop offset="0" stop-color="#e01b24"/><stop offset=".5" stop-color="#ce1e2b"/><stop offset=".682" stop-color="#ed333b"/><stop offset=".818" stop-color="#b31c2a"/><stop offset="1" stop-color="#7a1621"/></linearGradient><linearGradient xlink:href="#e" id="m" gradientUnits="userSpaceOnUse" gradientTransform="translate(2)" x1="36" y1="264" x2="36" y2="286"/><linearGradient id="e"><stop offset="0" stop-color="#5e5c64"/><stop offset=".5" stop-color="#5e5c64"/><stop offset=".682" stop-color="#77767b"/><stop offset=".818" stop-color="#5e5c64"/><stop offset="1" stop-color="#3d3846"/></linearGradient><linearGradient xlink:href="#e" id="n" gradientUnits="userSpaceOnUse" gradientTransform="translate(12)" x1="36" y1="264" x2="36" y2="286"/><linearGradient xlink:href="#e" id="o" gradientUnits="userSpaceOnUse" gradientTransform="translate(22)" x1="36" y1="264" x2="36" y2="286"/><linearGradient xlink:href="#e" id="p" gradientUnits="userSpaceOnUse" gradientTransform="translate(32)" x1="36" y1="264" x2="36" y2="286"/><linearGradient xlink:href="#e" id="q" gradientUnits="userSpaceOnUse" gradientTransform="translate(42)" x1="36" y1="264" x2="36" y2="286"/><radialGradient xlink:href="#f" id="r" gradientUnits="userSpaceOnUse" gradientTransform="translate(-394.688 -39.563) scale(1.1875)" cx="185" cy="211" fx="185" fy="211" r="16"/><linearGradient id="f"><stop offset="0" stop-color="#deddda"/><stop offset="1" stop-color="#9a9996"/></linearGradient><linearGradient xlink:href="#g" id="s" gradientUnits="userSpaceOnUse" x1="163" y1="216" x2="197" y2="216"/><linearGradient id="g"><stop offset="0" stop-color="#c0bfbc"/><stop offset=".45" stop-color="#fff"/><stop offset=".75" stop-color="#c0bfbc"/><stop offset="1" stop-color="#9a9996"/></linearGradient><linearGradient xlink:href="#h" id="t" gradientUnits="userSpaceOnUse" x1="170.438" y1="254" x2="189.531" y2="254"/><linearGradient id="h"><stop offset="0" stop-color="#3d3846"/><stop offset=".448" stop-color="#9a9996"/><stop offset=".75" stop-color="#5e5c64"/><stop offset="1" stop-color="#3d3846"/></linearGradient><linearGradient xlink:href="#g" id="u" gradientUnits="userSpaceOnUse" x1="166" y1="227.5" x2="194" y2="227.5"/></defs><rect style="marker:none" width="427.889" height="255.087" x="17.753" y="145.986" rx="16.457" ry="16.457" fill="#241f31"/><path d="M429.186 384.616H34.212V166.558h394.974z" style="marker:none" opacity=".05" fill="url(#i)"/><path d="M34.212 269.416h394.971v16.456H34.213z" opacity=".261" fill="#f8e45c"/><path d="M346.553 277.641H42.44" fill="none" stroke="url(#j)" stroke-width="16.457" stroke-linecap="round"/><g fill="none" stroke="#33d17a" stroke-width="16.457" stroke-linecap="round"><path d="M75.354 236.5v82.287m41.143-65.828v49.372m41.143-53.488v57.601m41.144-74.057V322.9m41.14-115.2v139.886m41.146-106.971v74.058m41.142-86.403v98.744"/><path d="M75.354 265.302v24.686m41.143-20.573v16.457m41.143-24.686v32.915m41.144-32.915v32.915m41.14-53.485v74.058m41.146-53.488v32.915m41.142-28.8v24.687" stroke="#f9f06b"/></g><g transform="translate(356.41 -731.252) scale(4.19485)"><rect ry="8" rx="8" y="180" x="16" height="110" width="80" style="marker:none" fill="#f6f5f4"/><path d="M16 272v12c0 4.432 3.568 8 8 8h64c4.432 0 8-3.568 8-8v-12c0 4.432-3.568 8-8 8H24c-4.432 0-8-3.568-8-8z" style="marker:none" fill="url(#k)"/><rect ry="2" rx="2" width="62" height="26" x="25" y="264" fill="#3d3846"/><rect ry="2" rx="2" width="62" height="24" x="25" y="262" fill="#c0bfbc"/><path d="M25 264h62v22H25z" fill="#9a9996"/><rect ry="4" rx="4" y="220" x="24" height="34" width="64" style="marker:none" fill="#c0bfbc" stroke="#c0bfbc" stroke-width=".011"/><rect ry="4" rx="4" style="marker:none" width="64" height="34" x="24" y="218" fill="#deddda"/><rect rx="2" style="marker:none" width="32" height="12" x="40" y="228" ry="2" fill="#77767b"/><g transform="translate(-8)" fill="#77767b"><circle cx="36" cy="192" r="2"/><circle r="2" cy="192" cx="44"/><circle r="2" cy="192" cx="52"/><circle cx="60" cy="192" r="2"/><circle r="2" cy="192" cx="68"/><circle cx="76" cy="192" r="2"/><circle cx="84" cy="192" r="2"/><circle r="2" cy="192" cx="92"/><circle r="2" cy="200" cx="36"/><circle cx="44" cy="200" r="2"/><circle cx="52" cy="200" r="2"/><circle r="2" cy="200" cx="60"/><circle cx="68" cy="200" r="2"/><circle r="2" cy="200" cx="76"/><circle r="2" cy="200" cx="84"/><circle cx="92" cy="200" r="2"/><circle cx="36" cy="208" r="2"/><circle r="2" cy="208" cx="44"/><circle r="2" cy="208" cx="52"/><circle cx="60" cy="208" r="2"/><circle r="2" cy="208" cx="68"/><circle cx="76" cy="208" r="2"/><circle cx="84" cy="208" r="2"/><circle r="2" cy="208" cx="92"/></g><rect rx="2" ry="2" y="229" x="40" height="12" width="32" style="marker:none" fill="#3d3846"/><circle r="3" cy="235" cx="47" fill="#deddda"/><circle cx="65" cy="235" r="3" fill="#deddda"/><path d="M53 233h6v4h-6z" style="marker:none" fill="#9a9996"/><path d="M26 264h10v22H26z" fill="url(#l)"/><path d="M36 264h10v22H36z" fill="#5e5c64"/><path d="M36 264h10v22H36z" fill="url(#m)"/><path d="M36 264h1v22h-1z" fill-opacity=".319"/><path d="M46 264h10v22H46z" fill="url(#n)"/><path d="M56 264h10v22H56z" fill="url(#o)"/><path d="M66 264h10v22H66z" fill="url(#p)"/><path d="M76 264h10v22H76z" fill="url(#q)"/><path d="M46 264h1v22h-1zm10 0h1v22h-1zm10 0h1v22h-1zm10 0h1v22h-1z" fill-opacity=".319"/><circle cx="29" cy="247" r="2" fill="#77767b"/><path d="M33 246h10v2H33z" fill="#77767b"/><g transform="translate(-77)"><circle cx="-180" cy="216" r="16" transform="scale(-1 1)" fill="url(#r)"/><path d="M163 214h34v4h-34z" fill="url(#s)"/><ellipse cx="180" cy="282" rx="8" ry="2" fill="#3d3846"/><path d="M168 227h24l-4 55h-16z" fill="url(#t)"/><path d="M166 225h28l-1 5h-26z" fill="url(#u)"/></g></g></svg>