<svg xmlns="http://www.w3.org/2000/svg" width="1280" height="350"><path d="M-23.234-27.797h1321.28v405.071H-23.234z" style="marker:none" fill="#c7ddf7"/><path d="M148.492 151H734.38v127.279H148.492z" style="marker:none" fill="#f3ebe5"/><path d="M-55.558-90.427h561.645v491.944H-55.558z" style="marker:none" fill="#f3ebe5"/><path d="M148.492 73.218h555.584v43.437H148.492z" style="marker:none" fill="#f3ebe5"/><path d="M265.63-217.336c0-23.504-18.923-42.426-42.427-42.426H107.036c-23.505 0-42.427 18.922-42.427 42.426V150.36c0 23.504 18.922 42.426 42.427 42.426h116.167c23.504 0 42.427-18.922 42.427-42.426" style="marker:none" fill="none" stroke="#ffa348" stroke-width="6" stroke-linecap="round"/><path style="marker:none" d="M213.142-60.122c0-23.505-18.922-42.427-42.426-42.427H54.548c-23.504 0-42.426 18.922-42.426 42.427v367.695c0 23.504 18.922 42.427 42.426 42.427h116.168c23.504 0 42.426-18.923 42.426-42.427" fill="none" stroke="#f8e45c" stroke-width="6" stroke-linecap="round"/><path style="marker:none" d="M112.127-102.549c0-23.504 18.922-42.426 42.426-42.426h116.168c23.504 0 42.426 18.922 42.426 42.426v367.696c0 23.504-18.922 42.426-42.426 42.426H154.553c-23.504 0-42.426-18.922-42.426-42.426" fill="none" stroke="#fff" stroke-width="4" stroke-linecap="round"/><path style="marker:none" d="M265.63 150.36c0-23.504 18.922-42.426 42.426-42.426h116.167c23.505 0 42.427 18.922 42.427 42.426v367.695c0 23.505-18.922 42.427-42.427 42.427H308.056c-23.504 0-42.426-18.922-42.426-42.426" fill="none" stroke="#ffa348" stroke-width="6" stroke-linecap="round"/><path d="M112.127 265.147c0-23.504-18.922-42.427-42.426-42.427H-46.467c-23.504 0-42.426 18.923-42.426 42.427v367.695c0 23.504 18.922 42.427 42.426 42.427H69.701c23.504 0 42.426-18.922 42.426-42.427m101.015-325.269c0-23.504 18.922-42.426 42.427-42.426h116.167c23.504 0 42.427 18.922 42.427 42.426v367.696c0 23.504-18.923 42.426-42.427 42.426H255.57c-23.505 0-42.427-18.922-42.427-42.426M313.652 6.043c23.505 0 42.427 18.922 42.427 42.426v116.168c0 23.504-18.922 42.426-42.427 42.426H-54.043c-23.504 0-42.427-18.922-42.427-42.426V48.469c0-23.504 18.923-42.426 42.427-42.426" style="marker:none" fill="none" stroke="#fff" stroke-width="4" stroke-linecap="round"/><path d="M466.619 217.955l-19.4 46.528 19.4-8.414 18.671 9.405z" fill="#f5c211" stroke="#fff" stroke-width="4"/><path d="M466.619 253.819l.006-30.57 14.937 38.157z" fill="#e5a50a"/><path d="M145 177h44.193v38H145z" style="marker:none" fill="#1a5fb4"/><path d="M158.961 204.571h3.97v-15.929h-2.363l-6.404 3.19 1.492 2.847 3.305-1.377zm11.682.229c4.293 0 7.116-1.859 7.116-4.682 0-2.02-1.355-3.534-3.466-3.947 1.584-.414 2.57-1.699 2.57-3.49 0-2.662-2.111-4.268-5.646-4.268-1.882 0-3.764.459-5.508 1.4l.895 2.96c1.423-.619 2.662-.963 3.787-.963 1.423 0 2.341.55 2.341 1.469 0 1.055-1.17 1.767-2.915 1.767h-1.101v2.984h1.101c2.318 0 3.81.757 3.81 1.905 0 .94-1.01 1.469-2.823 1.469-1.4 0-2.96-.299-4.292-.85l-.918 3.099c1.698.803 3.167 1.148 5.05 1.148z" word-spacing="0" letter-spacing="0" font-size="22.952" font-weight="800" aria-label="13" font-family="Cantarell" fill="#fff"/><path d="M98 330h32.193v38H98z" style="marker:none" fill="#1a5fb4"/><path word-spacing="0" letter-spacing="0" font-size="22.952" font-weight="800" aria-label="9" d="M113.728 341.413c-3.672 0-6.105 2.226-6.105 5.554 0 2.984 1.905 4.912 4.751 4.912 1.515 0 2.8-.528 3.787-1.56-.23 2.776-1.584 4.268-3.993 4.268-1.033 0-2.342-.275-3.283-.688l-1.01 2.96c1.217.597 2.732.942 4.453.942 5.073 0 7.758-3.099 7.758-8.584 0-5.119-2.318-7.804-6.358-7.804zm-2.249 5.256c0-1.194.78-1.974 1.974-1.974 1.354 0 2.226 1.056 2.57 2.938-.642.688-1.537 1.102-2.41 1.102-1.285 0-2.134-.827-2.134-2.066z" font-family="Cantarell" fill="#fff"/><rect style="marker:none" width="223.244" height="97.401" x="-1215.967" y="31.68" rx="22.223" ry="22.223"/><text word-spacing="0" letter-spacing="0" font-size="48.162" font-weight="800" style="line-height:1.25;-inkscape-font-specification:'Cantarell, Ultra-Bold';font-variant-ligatures:normal;font-variant-caps:normal;font-variant-numeric:normal;font-feature-settings:normal;text-align:start" x="-1144.597" y="100.319" font-family="Cantarell" fill="#fff"><tspan x="-1144.597" y="100.319">852<tspan font-size="48.163" font-weight="400" style="-inkscape-font-specification:'Cantarell, Normal';font-variant-ligatures:normal;font-variant-caps:normal;font-variant-numeric:normal;font-feature-settings:normal;text-align:start">m</tspan> </tspan></text><g fill="#fff" stroke-width=".422" font-weight="400" color="#000" font-family="Sans"><path overflow="visible" style="line-height:normal;-inkscape-font-specification:Sans;text-indent:0;text-align:start;text-decoration-line:none;text-transform:none;marker:none" d="M-1179.208 72.598l-5.035 5.035 9.478 9.55 5.035-5.034z" opacity=".35"/><path overflow="visible" style="line-height:normal;-inkscape-font-specification:Sans;text-indent:0;text-align:start;text-decoration-line:none;text-transform:none;marker:none" d="M-1168.841 72.162l3.407 3.407-10.516 10.511v14.504h7.109V89.042l8.442-8.442 3.405 3.41V72.162z"/></g><path d="M-1104.23 177h44.192v38h-44.193z" style="marker:none" fill="#1a5fb4"/><text word-spacing="0" letter-spacing="0" font-size="22.952" font-weight="800" y="204.571" x="-1095.319" style="line-height:1.25;-inkscape-font-specification:'Cantarell, Ultra-Bold';font-variant-ligatures:normal;font-variant-caps:normal;font-variant-numeric:normal;font-feature-settings:normal;text-align:start" font-family="Cantarell" fill="#fff"><tspan y="204.571" x="-1095.319">13</tspan></text><path d="M843 543h325v205H843z" style="marker:none" fill="#613583"/></svg>