<svg xmlns="http://www.w3.org/2000/svg" xmlns:xlink="http://www.w3.org/1999/xlink" width="663" height="400" version="1.0"><defs><linearGradient id="b"><stop offset="0" stop-color="#a51d2d"/><stop offset="1" stop-color="#ce1921"/></linearGradient><linearGradient id="a"><stop offset="0" stop-color="#d81d25"/><stop offset="1" stop-color="#f66151"/></linearGradient><linearGradient xlink:href="#c" id="h" gradientUnits="userSpaceOnUse" gradientTransform="matrix(-2.68212 0 0 2.68212 3146.962 -907.275)" x1="953.275" y1="350.856" x2="944.207" y2="359.924"/><linearGradient id="c"><stop offset="0" stop-color="#e9b96e"/><stop offset="1" stop-color="#dc9321"/></linearGradient><linearGradient xlink:href="#d" id="i" gradientUnits="userSpaceOnUse" gradientTransform="matrix(-2.68212 0 0 2.68212 1537.692 -338.666)" x1="418.838" y1="227" x2="433.35" y2="212.868"/><linearGradient id="d"><stop offset="0" stop-color="#9a9996"/><stop offset=".416" stop-color="#c0bfbc"/><stop offset="1" stop-color="#deddda"/></linearGradient><radialGradient xlink:href="#e" id="j" gradientUnits="userSpaceOnUse" gradientTransform="matrix(-4.68201 0 0 4.68201 2483.339 -845.13)" cx="450.948" cy="225.395" fx="450.948" fy="225.395" r="40"/><linearGradient id="e"><stop offset="0" stop-color="#5b5b5b"/><stop offset=".634" stop-color="#262e39"/><stop offset="1" stop-color="#113f78"/></linearGradient><linearGradient xlink:href="#f" id="k" gradientUnits="userSpaceOnUse" x1="19.25" y1="44" x2="54.82" y2="79.57"/><linearGradient id="f"><stop offset="0" stop-color="#a347ba"/><stop offset="1" stop-color="#103c72"/></linearGradient><radialGradient xlink:href="#g" id="l" gradientUnits="userSpaceOnUse" gradientTransform="matrix(5.6933 -.04662 .02655 3.24234 -78.001 -464.656)" cx="67.567" cy="250.281" fx="67.567" fy="250.281" r="11.077"/><linearGradient id="g"><stop offset="0" stop-color="#113f78" stop-opacity="0"/><stop offset=".786" stop-color="#113f78" stop-opacity=".106"/><stop offset="1" stop-color="#103c72"/></linearGradient></defs><path d="M637.014 38.903L358.86 317.069c-12.49 13.006-33.227 13.216-45.978.466-12.75-12.751-12.54-33.488.466-45.978l233.94-233.953c27.846-23.884 66.97-21.456 89.725 1.299z" style="line-height:normal;font-variant-ligatures:normal;font-variant-position:normal;font-variant-caps:normal;font-variant-numeric:normal;font-variant-alternates:normal;font-feature-settings:normal;text-indent:0;text-align:start;text-decoration-line:none;text-decoration-style:solid;text-decoration-color:#000;text-transform:none;text-orientation:mixed;white-space:normal;shape-padding:0;isolation:auto;mix-blend-mode:normal;solid-color:#000;solid-opacity:1" color="#000" font-weight="400" font-family="sans-serif" overflow="visible" fill="url(#h)"/><path d="M488.4 99.121c38.523.017 57.521 46.846 29.895 73.695L368.097 323.015c-16.719 16.998-44.087 17.112-60.946.252-16.86-16.858-16.746-44.227.252-60.946l150.199-150.198a42.918 42.918 0 0 1 30.797-13.002z" style="line-height:normal;font-variant-ligatures:normal;font-variant-position:normal;font-variant-caps:normal;font-variant-numeric:normal;font-variant-alternates:normal;font-feature-settings:normal;text-indent:0;text-align:start;text-decoration-line:none;text-decoration-style:solid;text-decoration-color:#000;text-transform:none;text-orientation:mixed;white-space:normal;shape-padding:0;isolation:auto;mix-blend-mode:normal;solid-color:#000;solid-opacity:1" color="#000" font-weight="400" font-family="sans-serif" overflow="visible" fill="url(#i)"/><path d="M364.024 152.649c62.82 0 113.746 50.926 113.746 113.746 0 62.82-50.926 113.746-113.746 113.746H250.278V266.395c0-62.82 50.926-113.746 113.746-113.746z" style="marker:none" fill="url(#j)"/><ellipse transform="scale(-1)" cy="-215.227" cx="-369.694" style="marker:none" rx="17.045" ry="17.045" color="#000" overflow="visible" opacity=".3" fill="#fff"/><path style="marker:none" d="M12 27.867v24a9.636 9.636 0 0 1 6.673-1.004 9.636 9.636 0 0 1 5.666 3.664c1.763 2.39 2.313 5.462 2.457 8.429.144 2.966-.067 5.96.395 8.894.629 4 2.54 7.794 5.41 10.65 2.87 2.857 6.687 4.753 10.703 5.27 2.61.337 5.255.202 7.887.212L56 88v-1.328V86a71.427 71.427 0 0 0-6.155-1.158c-1.343-.192-2.698-.348-3.999-.735-1.3-.387-2.56-1.027-3.46-2.042-.757-.854-1.226-1.94-1.43-3.063-.205-1.123-.152-2.282.05-3.405.404-2.247 1.39-4.339 2.13-6.498 2.397-6.988 2.17-14.797-.375-21.732-2.806-7.643-8.545-14.313-16.01-17.564A27.073 27.073 0 0 0 12 27.867z" transform="matrix(5.6873 0 0 5.6873 -68.21 -120.341)" fill="url(#k)"/><path style="marker:none" d="M198.56 359.52l24.365 20.519 118.35.102-23.367-22.483c-23.227-22.347-51.32-34.39-67.63-34.39 0 34.124-31.63 40.376-51.718 36.253z" fill="url(#l)"/></svg>