<svg xmlns="http://www.w3.org/2000/svg" width="512" height="512" version="1.0"><path style="marker:none" d="M73.99 36.663v.028a37.121 37.121 0 0 0-.027-.002h-37.12v37.12a37.121 37.121 0 0 0 37.12 37.124 37.121 37.121 0 0 0 .658-.024 334.04 334.04 0 0 1 235.608 97.85 334.04 334.04 0 0 1 97.851 235.775 37.121 37.121 0 0 0-.025.49 37.121 37.121 0 0 0 37.123 37.122h37.12v-37.082a37.121 37.121 0 0 0 .001-.04 37.121 37.121 0 0 0 0-.027h.026a408.384 408.384 0 0 0-119.598-288.736A408.384 408.384 0 0 0 73.99 36.663zm-.074 148.465v.047H36.842v37.121a37.121 37.121 0 0 0 37.121 37.121 37.121 37.121 0 0 0 .975-.033c102.473.546 184.588 82.99 184.588 185.598h.047a37.121 37.121 0 0 0-.002.043 37.121 37.121 0 0 0 37.12 37.12h37.122v-37.12a37.121 37.121 0 0 0-.07-2.008c-1.066-142.174-117.41-257.889-259.827-257.889zm37.168 148.531a74.243 74.243 0 0 0-74.242 74.245 74.243 74.243 0 0 0 74.242 74.242 74.243 74.243 0 0 0 74.244-74.242 74.243 74.243 0 0 0-74.244-74.245z" color="#000" overflow="visible" fill="#fff"/></svg>