<svg xmlns="http://www.w3.org/2000/svg" xmlns:xlink="http://www.w3.org/1999/xlink" width="460" height="286" viewBox="0 0 920 572"><defs><linearGradient id="a"><stop offset="0" stop-color="#a51d2d"/><stop offset=".034" stop-color="#ed333b"/><stop offset=".071" stop-color="#c01c28"/><stop offset=".928" stop-color="#c01c28"/><stop offset=".964" stop-color="#ed333b"/><stop offset="1" stop-color="#c01c28"/></linearGradient><clipPath clipPathUnits="userSpaceOnUse" id="b"><path d="M208 4h96v48h-96z" fill="#949390" stroke-width="16" stroke-linecap="round" stroke-linejoin="round" stroke-dashoffset="11.2"/></clipPath><clipPath clipPathUnits="userSpaceOnUse" id="c"><path d="M208 4h96v48h-96z" fill="#949390" stroke-width="16" stroke-linecap="round" stroke-linejoin="round" stroke-dashoffset="11.2"/></clipPath><linearGradient gradientTransform="translate(0 12)" xlink:href="#a" id="d" x1="8" y1="264" x2="120" y2="264" gradientUnits="userSpaceOnUse"/><clipPath clipPathUnits="userSpaceOnUse" id="e"><path d="M208 4h96v48h-96z" fill="#949390" stroke-width="16" stroke-linecap="round" stroke-linejoin="round" stroke-dashoffset="11.2"/></clipPath></defs><g opacity=".371"><g transform="rotate(-15 -1322.8 3796.713) scale(2)"><rect ry="8" rx="8" y="521.2" x="623" height="49.8" width="232.4" fill="#c65f00"/><rect width="232.4" height="157.7" x="623" y="405" rx="8" ry="8" fill="#ff9533"/><path d="M681.1 558.55h116.2L789 537.8h-99.6z" fill="#949390" stroke="#949390" stroke-width="8" stroke-linecap="round" stroke-linejoin="round"/><g transform="translate(606.4 -1.7) scale(2.075)" fill="#424048" stroke-width=".482"><circle r="2" cy="202" cx="14"/><circle cx="14" cy="266" r="2"/><circle cx="114" cy="202" r="2"/><circle r="2" cy="266" cx="114"/></g><path d="M672.8 558.55h132.8V571H672.8z" fill="#6b696c"/><path d="M656.2 421.6h166l16.6 16.6v91.3H639.6v-91.3z" fill="#f6f5f4"/><g transform="translate(606.4 -1.7) scale(2.075)" stroke-width=".482"><path d="M16 218h96v28H16z" fill="#424048"/><circle r="6" cy="232" cx="40" fill="#f6f5f4"/><circle cx="88" cy="232" r="6" fill="#f6f5f4"/><path d="M52 226h24v12H52z" fill="#949390"/><path d="M272 28c0 61.856-50.144 112-112 112S48 89.856 48 28 98.144-84 160-84 272-33.856 272 28z" clip-path="url(#b)" transform="matrix(.25 0 0 .25 0 225)" opacity=".5" fill="#424048"/></g></g><g transform="rotate(-60 -214.597 439.48) scale(4.15)" stroke-width=".482"><rect ry="3.855" rx="3.855" y="252" x="8" height="24" width="112" fill="#241f31"/><rect width="112" height="76" x="8" y="196" rx="3.855" ry="3.855" fill="#424048"/><path d="M24 204h80l8 8v44H16v-44z" fill="#fff"/><path d="M16 222h96v24H16z"/><circle cx="40" cy="234" r="8" fill="#424048"/><circle r="8" cy="234" cx="88" fill="#424048"/><path d="M36 270h56l-4-10H40z" fill="#68676b" stroke="#68676b" stroke-width="3.855" stroke-linecap="round" stroke-linejoin="round"/><circle cx="14" cy="202" r="2" fill="#68676b"/><circle r="2" cy="266" cx="14" fill="#68676b"/><circle r="2" cy="202" cx="114" fill="#68676b"/><circle cx="114" cy="266" r="2" fill="#68676b"/><path d="M52 228h24v12H52z" fill="#949390"/><path transform="matrix(.25 0 0 .25 0 227)" clip-path="url(#c)" d="M272 28c0 61.856-50.144 112-112 112S48 89.856 48 28 98.144-84 160-84 272-33.856 272 28z" opacity=".5" fill="#424048"/><circle r="6" cy="234" cx="40" fill="#fff"/><circle cx="88" cy="234" r="6" fill="#fff"/><path d="M32 270h64v6H32z" fill="#424048"/><circle cx="40" cy="264" r="2" fill="#424048"/><circle r="2" cy="262" cx="48" fill="#424048"/><circle r="2" cy="264" cx="-88" transform="scale(-1 1)" fill="#424048"/><circle cx="-80" cy="262" r="2" transform="scale(-1 1)" fill="#424048"/><path d="M24 256v-37c0-7 6-7 6-7h14" fill="none" stroke="#f66151" stroke-width="3.855"/><path d="M25 256v-36c0-7 6-7 6-7h13" fill="none" stroke="#f9f06b" stroke-width="2.892"/><path d="M26 256v-35c0-7 6-7 6-7h12" fill="none" stroke="#33d17a" stroke-width="1.928"/><path d="M27 256v-34c0-6.75 6-7 6-7h11" fill="none" stroke="#3979cb" stroke-width=".964"/><path d="M48 208.5h56m-56 4h56m-56 4h56" fill="none" stroke="#d5d3cf"/></g></g><g transform="translate(-32.728 -818.2) scale(4.0909)" stroke-width=".489"><rect ry="3.911" rx="3.911" y="264" x="8" height="24" width="112" fill="url(#d)"/><rect width="112" height="84" x="8" y="200" rx="3.911" ry="4.323" fill="#ed333b"/><path d="M36 282h56l-4-10H40z" fill="#5e5c64" stroke="#5e5c64" stroke-width="3.911" stroke-linecap="round" stroke-linejoin="round"/><path d="M32 282h64v6H32z" fill="#424048"/><path d="M24 208h80l8 8v52H16v-52z" fill="#f6f5f4"/><g transform="translate(0 8)"><path d="M16 216h96v32H16z" fill="#424048"/><circle r="6" cy="232" cx="40" fill="#f6f5f4"/><circle cx="88" cy="232" r="6" fill="#f6f5f4"/><path d="M52 226h24v12H52z" fill="#949390"/><path d="M272 28c0 61.856-50.144 112-112 112S48 89.856 48 28 98.144-84 160-84 272-33.856 272 28z" clip-path="url(#e)" transform="matrix(.25 0 0 .25 0 225)" opacity=".5" fill="#424048"/></g></g></svg>