<svg xmlns="http://www.w3.org/2000/svg" xmlns:xlink="http://www.w3.org/1999/xlink" width="512" height="512" version="1.0"><defs><linearGradient id="b"><stop offset="0" stop-color="#c8c6c0"/><stop offset=".16" stop-color="#fff"/><stop offset=".36" stop-color="#fff"/><stop offset="1" stop-color="#68676b"/></linearGradient><linearGradient id="c"><stop offset="0" stop-color="#e01b24"/><stop offset=".225" stop-color="#ac1d2e"/><stop offset=".45" stop-color="#e01b24"/><stop offset=".725" stop-color="#f66151"/><stop offset="1" stop-color="#f66151"/></linearGradient><linearGradient id="e"><stop offset="0" stop-color="#68676b"/><stop offset=".762" stop-color="#edece9"/><stop offset="1" stop-color="#c8c6c0"/></linearGradient><linearGradient id="d"><stop offset="0" stop-color="#68676b"/><stop offset=".042" stop-color="#c8c6c0"/><stop offset=".083" stop-color="#949390"/><stop offset=".917" stop-color="#9e9e9b"/><stop offset=".958" stop-color="#c8c6c0"/><stop offset="1" stop-color="#68676b"/></linearGradient><linearGradient id="a"><stop offset="0" stop-color="#191622"/><stop offset="1" stop-color="#949390"/></linearGradient><linearGradient xlink:href="#a" id="h" x1="255.75" y1="400" x2="255.75" y2="208" gradientUnits="userSpaceOnUse" gradientTransform="rotate(3.034 3726.023 438.255) scale(.94198)"/><linearGradient xlink:href="#b" id="j" x1="256" y1="-212" x2="256" y2="-93.481" gradientUnits="userSpaceOnUse" gradientTransform="matrix(1.15437 0 0 1.01733 -36.154 51.443)"/><linearGradient xlink:href="#c" id="i" x1="197.5" y1="-124.344" x2="197.5" y2="-212" gradientUnits="userSpaceOnUse" gradientTransform="matrix(.97172 0 0 .96216 5.931 39.978)"/><linearGradient xlink:href="#d" id="g" x1="64" y1="60" x2="448" y2="60" gradientUnits="userSpaceOnUse" gradientTransform="matrix(.93799 0 0 .94198 19.757 -5.515)"/><linearGradient xlink:href="#e" id="f" x1="56" y1="-76" x2="56" y2="-156" gradientUnits="userSpaceOnUse" gradientTransform="matrix(.94198 0 0 .63825 33.043 -11.097)"/></defs><g transform="translate(0 212)"><rect style="marker:none" width="75.358" height="61.272" x="48.115" y="-115.77" rx="4.352" ry="2.949" transform="rotate(3.031)" fill="url(#f)"/><rect style="marker:none" width="360.188" height="331.575" x="79.789" y="-114.784" rx="7.966" ry="8" transform="rotate(3.031)" fill="url(#g)"/><rect style="marker:none" width="360.494" height="346.647" x="79.483" y="-143.629" rx="7.973" ry="8" transform="rotate(3.031)" fill="#d5d3cf"/><rect style="marker:none" width="305.198" height="289.938" x="106.988" y="-114.784" rx="0" ry="0" transform="rotate(3.031)" fill="#fff"/><path style="marker:none" d="M271.656-111.12c-59.272-3.316-117.057-.783-173.789 5.888-4.661.549-9.124 1.87-13.107 3.905L78.88 9.698c3.753 2.462 8.05 4.304 12.611 5.475 102.594 26.323 214.738 30.716 334.46 17.712 4.662-.507 9.123-1.808 13.104-3.837l5.89-111.205c-3.75-2.452-8.048-4.264-12.617-5.362-54.915-13.202-108.372-20.677-160.672-23.602z" fill-opacity=".079"/><path style="marker:none" d="M209.359-51.033l-4.828 91.167-68.198-3.611L250.642 162.45 377.612 49.3l-67.728-3.587 4.828-91.168z" fill="url(#h)"/><path style="marker:none" d="M136.379 35.658l14.283 15.85 53.117 2.812.797-15.05zm173.55 9.191l-.796 15.05 52.647 2.789 15.877-14.252z" opacity=".15"/><rect style="marker:none" width="301.432" height="7.536" x="108.401" y="-84.641" rx="0" ry="0" transform="rotate(3.031)" fill="#aaa"/><path style="marker:none" d="M134.753-164c75.9-12.773 155.023-15.4 239.876 0 10.89 1.976 19.99 9.44 19.99 21.168v42.335c0 11.726-9.059 19.425-19.99 21.167-85.132 13.565-165.504 14.65-239.876 0-10.858-2.139-19.99-9.44-19.99-21.167v-42.335c0-11.727 9.075-19.331 19.99-21.168z" fill="url(#i)" transform="matrix(1.39827 .07405 -.0753 1.42204 -102.06 83.333)"/><rect style="marker:none" width="110.82" height="203.467" x="203.955" y="-164.232" rx="0" ry="0" transform="rotate(3.031)" fill="url(#j)"/><path style="marker:none" d="M136.379 35.658l7.141 7.925 58.064 3.075.399-7.525zm176.577 9.351l-.399 7.526 57.162 3.027 7.938-7.126z" fill="#c8c6c0"/><path d="M165.356 67.378l180.606 9.565-7.924 7.127-165.555-8.768z" fill="#5a5a5d"/><path d="M186.736 91.15l135.455 7.173-7.924 7.127-120.404-6.377z" fill="#424048"/><path d="M208.116 114.921l90.303 4.782-7.923 7.127-75.253-3.985z" fill="#191622"/><path d="M229.497 138.692l44.945 2.38-7.923 7.127-29.896-1.583z"/></g></svg>