<svg xmlns="http://www.w3.org/2000/svg" width="512" height="512" version="1.0"><path style="line-height:normal;font-variant-ligatures:normal;font-variant-position:normal;font-variant-caps:normal;font-variant-numeric:normal;font-variant-alternates:normal;font-feature-settings:normal;text-indent:0;text-align:start;text-decoration-line:none;text-decoration-style:solid;text-decoration-color:#000;text-transform:none;text-orientation:mixed;white-space:normal;shape-padding:0;isolation:auto;mix-blend-mode:normal;solid-color:#000;solid-opacity:1;marker:none" d="M84.156 48.74v203.752c0 60.301 43.631 107.557 82.465 142.31 38.834 34.754 77.393 57.405 77.393 57.405l15.004 8.852 14.89-9.041s38.442-23.255 77.176-58.254c38.734-35 82.361-81.767 82.361-141.272V48.74zm58.215 58.215h232.86v145.537c0 26.77-29.141 67.324-63.176 98.078-20.581 18.597-40.304 32.842-53.444 41.8-13.102-8.74-32.708-22.636-53.168-40.946-33.935-30.37-63.072-70.435-63.072-98.932z" color="#bebebe" font-weight="400" font-family="sans-serif" overflow="visible" fill="#fff"/><path style="marker:none" d="M259.404 79.754v330.922c-18.526-12.993-25.634-15.67-51.017-38.607-48.031-43.401-81.352-100.055-81.352-115.823V79.754z" color="#bebebe" overflow="visible" fill="#fff"/></svg>