<?xml version="1.0" encoding="UTF-8" standalone="no"?>
<svg
   xmlns:dc="http://purl.org/dc/elements/1.1/"
   xmlns:cc="http://creativecommons.org/ns#"
   xmlns:rdf="http://www.w3.org/1999/02/22-rdf-syntax-ns#"
   xmlns:svg="http://www.w3.org/2000/svg"
   xmlns="http://www.w3.org/2000/svg"
   xmlns:sodipodi="http://sodipodi.sourceforge.net/DTD/sodipodi-0.dtd"
   xmlns:inkscape="http://www.inkscape.org/namespaces/inkscape"
   inkscape:version="1.0 (4035a4fb49, 2020-05-01)"
   sodipodi:docname="featured-maps-bg.svg"
   id="svg54"
   version="1.1"
   height="350"
   width="758.03265">
  <metadata
     id="metadata60">
    <rdf:RDF>
      <cc:Work
         rdf:about="">
        <dc:format>image/svg+xml</dc:format>
        <dc:type
           rdf:resource="http://purl.org/dc/dcmitype/StillImage" />
        <dc:title></dc:title>
      </cc:Work>
    </rdf:RDF>
  </metadata>
  <defs
     id="defs58" />
  <sodipodi:namedview
     inkscape:current-layer="svg54"
     inkscape:window-maximized="1"
     inkscape:window-y="0"
     inkscape:window-x="0"
     inkscape:cy="330.91864"
     inkscape:cx="582.74494"
     inkscape:zoom="1.0296875"
     fit-margin-bottom="0"
     fit-margin-right="0"
     fit-margin-left="0"
     fit-margin-top="0"
     showgrid="false"
     id="namedview56"
     inkscape:window-height="1043"
     inkscape:window-width="1920"
     inkscape:pageshadow="2"
     inkscape:pageopacity="0"
     guidetolerance="10"
     gridtolerance="10"
     objecttolerance="10"
     borderopacity="1"
     bordercolor="#666666"
     pagecolor="#ffffff" />
  <path
     id="path2"
     fill="#c7ddf7"
     style="fill:#c7ddf7;fill-opacity:1;stroke-width:0.704069;marker:none"
     d="M 0,0 H 758.03266 V 350 H 0 Z" />
  <path
     id="path4"
     fill="#f3ebe5"
     style="marker:none"
     d="M 171.726,151 H 757.614 V 278.279 H 171.726 Z" />
  <path
     id="path6"
     fill="#f3ebe5"
     style="marker:none"
     d="M -32.324,-90.427 H 529.321 V 401.517 H -32.324 Z" />
  <path
     id="path8"
     fill="#f3ebe5"
     style="marker:none"
     d="M 171.726,73.218 H 727.31 v 43.437 H 171.726 Z" />
  <path
     id="path10"
     stroke-linecap="round"
     stroke-width="6"
     stroke="#ffa348"
     fill="none"
     style="marker:none"
     d="m 288.864,-217.336 c 0,-23.504 -18.923,-42.426 -42.427,-42.426 H 130.27 c -23.505,0 -42.427,18.922 -42.427,42.426 V 150.36 c 0,23.504 18.922,42.426 42.427,42.426 h 116.167 c 23.504,0 42.427,-18.922 42.427,-42.426" />
  <path
     id="path12"
     stroke-linecap="round"
     stroke-width="6"
     stroke="#f8e45c"
     fill="none"
     d="m 236.376,-60.122 c 0,-23.505 -18.922,-42.427 -42.426,-42.427 H 77.782 c -23.504,0 -42.426,18.922 -42.426,42.427 V 307.573 C 35.356,331.077 54.278,350 77.782,350 H 193.95 c 23.504,0 42.426,-18.923 42.426,-42.427"
     style="marker:none" />
  <path
     id="path14"
     stroke-linecap="round"
     stroke-width="4"
     stroke="#ffffff"
     fill="none"
     d="m 135.361,-102.549 c 0,-23.504 18.922,-42.426 42.426,-42.426 h 116.168 c 23.504,0 42.426,18.922 42.426,42.426 v 367.696 c 0,23.504 -18.922,42.426 -42.426,42.426 H 177.787 c -23.504,0 -42.426,-18.922 -42.426,-42.426"
     style="marker:none" />
  <path
     id="path16"
     stroke-linecap="round"
     stroke-width="6"
     stroke="#ffa348"
     fill="none"
     d="m 288.864,150.36 c 0,-23.504 18.922,-42.426 42.426,-42.426 h 116.167 c 23.505,0 42.427,18.922 42.427,42.426 v 367.695 c 0,23.505 -18.922,42.427 -42.427,42.427 H 331.29 c -23.504,0 -42.426,-18.922 -42.426,-42.426"
     style="marker:none" />
  <path
     id="path18"
     stroke-linecap="round"
     stroke-width="4"
     stroke="#ffffff"
     fill="none"
     style="marker:none"
     d="m 135.361,265.147 c 0,-23.504 -18.922,-42.427 -42.426,-42.427 H -23.233 c -23.504,0 -42.426,18.923 -42.426,42.427 v 367.695 c 0,23.504 18.922,42.427 42.426,42.427 H 92.935 c 23.504,0 42.426,-18.922 42.426,-42.427 M 236.376,307.573 c 0,-23.504 18.922,-42.426 42.427,-42.426 H 394.97 c 23.504,0 42.427,18.922 42.427,42.426 v 367.696 c 0,23.504 -18.923,42.426 -42.427,42.426 H 278.804 c -23.505,0 -42.427,-18.922 -42.427,-42.426 M 336.886,6.043 c 23.505,0 42.427,18.922 42.427,42.426 v 116.168 c 0,23.504 -18.922,42.426 -42.427,42.426 H -30.809 c -23.504,0 -42.427,-18.922 -42.427,-42.426 V 48.469 c 0,-23.504 18.923,-42.426 42.427,-42.426" />
  <path
     id="path20"
     stroke-width="4"
     stroke="#ffffff"
     fill="#f5c211"
     d="m 489.853,217.955 -19.4,46.528 19.4,-8.414 18.671,9.405 z" />
  <path
     id="path22"
     fill="#e5a50a"
     d="m 489.853,253.819 0.006,-30.57 14.937,38.157 z" />
  <path
     id="path24"
     fill="#1a5fb4"
     style="marker:none"
     d="m 168.234,177 h 44.193 v 38 h -44.193 z" />
  <path
     id="path26"
     fill="#ffffff"
     font-family="Cantarell"
     aria-label="13"
     font-weight="800"
     font-size="22.952px"
     letter-spacing="0"
     word-spacing="0"
     d="m 182.195,204.571 h 3.97 v -15.929 h -2.363 l -6.404,3.19 1.492,2.847 3.305,-1.377 z m 11.682,0.229 c 4.293,0 7.116,-1.859 7.116,-4.682 0,-2.02 -1.355,-3.534 -3.466,-3.947 1.584,-0.414 2.57,-1.699 2.57,-3.49 0,-2.662 -2.111,-4.268 -5.646,-4.268 -1.882,0 -3.764,0.459 -5.508,1.4 l 0.895,2.96 c 1.423,-0.619 2.662,-0.963 3.787,-0.963 1.423,0 2.341,0.55 2.341,1.469 0,1.055 -1.17,1.767 -2.915,1.767 h -1.101 v 2.984 h 1.101 c 2.318,0 3.81,0.757 3.81,1.905 0,0.94 -1.01,1.469 -2.823,1.469 -1.4,0 -2.96,-0.299 -4.292,-0.85 l -0.918,3.099 c 1.698,0.803 3.167,1.148 5.05,1.148 z" />
  <path
     id="path28"
     fill="#1a5fb4"
     style="marker:none"
     d="m 121.234,330 h 32.193 v 38 h -32.193 z" />
  <path
     id="path30"
     fill="#ffffff"
     font-family="Cantarell"
     d="m 136.962,341.413 c -3.672,0 -6.105,2.226 -6.105,5.554 0,2.984 1.905,4.912 4.751,4.912 1.515,0 2.8,-0.528 3.787,-1.56 -0.23,2.776 -1.584,4.268 -3.993,4.268 -1.033,0 -2.342,-0.275 -3.283,-0.688 l -1.01,2.96 c 1.217,0.597 2.732,0.942 4.453,0.942 5.073,0 7.758,-3.099 7.758,-8.584 0,-5.119 -2.318,-7.804 -6.358,-7.804 z m -2.249,5.256 c 0,-1.194 0.78,-1.974 1.974,-1.974 1.354,0 2.226,1.056 2.57,2.938 -0.642,0.688 -1.537,1.102 -2.41,1.102 -1.285,0 -2.134,-0.827 -2.134,-2.066 z"
     aria-label="9"
     font-weight="800"
     font-size="22.952px"
     letter-spacing="0"
     word-spacing="0" />
  <rect
     id="rect32"
     ry="22.223"
     rx="22.223"
     y="31.68"
     x="-1192.733"
     height="97.401001"
     width="223.244"
     style="marker:none" />
  <text
     id="text38"
     fill="#ffffff"
     font-family="Cantarell"
     y="100.319"
     x="-1121.363"
     style="line-height:1.25;-inkscape-font-specification:'Cantarell, Ultra-Bold';font-variant-ligatures:normal;font-variant-caps:normal;font-variant-numeric:normal;font-feature-settings:normal;text-align:start"
     font-weight="800"
     font-size="48.162px"
     letter-spacing="0"
     word-spacing="0"><tspan
       id="tspan36"
       y="100.319"
       x="-1121.363">852<tspan
   id="tspan34"
   style="-inkscape-font-specification:'Cantarell, Normal';font-variant-ligatures:normal;font-variant-caps:normal;font-variant-numeric:normal;font-feature-settings:normal;text-align:start"
   font-weight="400"
   font-size="48.163px">m</tspan></tspan></text>
  <g
     transform="translate(23.234)"
     id="g44"
     font-family="Sans"
     color="#000000"
     font-weight="400"
     stroke-width="0.422"
     fill="#ffffff">
    <path
       id="path40"
       opacity="0.35"
       d="m -1179.208,72.598 -5.035,5.035 9.478,9.55 5.035,-5.034 z"
       style="line-height:normal;-inkscape-font-specification:Sans;text-indent:0;text-align:start;text-decoration:none;text-decoration-line:none;text-transform:none;marker:none"
       overflow="visible" />
    <path
       id="path42"
       d="m -1168.841,72.162 3.407,3.407 -10.516,10.511 v 14.504 h 7.109 V 89.042 l 8.442,-8.442 3.405,3.41 V 72.162 Z"
       style="line-height:normal;-inkscape-font-specification:Sans;text-indent:0;text-align:start;text-decoration:none;text-decoration-line:none;text-transform:none;marker:none"
       overflow="visible" />
  </g>
  <path
     id="path46"
     fill="#1a5fb4"
     style="marker:none"
     d="m -1080.996,177 h 44.192 v 38 h -44.193 z" />
  <text
     id="text50"
     fill="#ffffff"
     font-family="Cantarell"
     style="line-height:1.25;-inkscape-font-specification:'Cantarell, Ultra-Bold';font-variant-ligatures:normal;font-variant-caps:normal;font-variant-numeric:normal;font-feature-settings:normal;text-align:start"
     x="-1072.085"
     y="204.571"
     font-weight="800"
     font-size="22.952px"
     letter-spacing="0"
     word-spacing="0"><tspan
       id="tspan48"
       x="-1072.085"
       y="204.571">13</tspan></text>
</svg>
