<svg xmlns="http://www.w3.org/2000/svg" width="2000" height="470" viewBox="0 0 1875 440.626"><path style="marker:none" d="M1048.979 64.572c-46.19 0-83.374 37.185-83.374 83.374v15.159c0 46.189 37.185 83.374 83.374 83.374h621.341l45.479 45.478V246.48h7.578c46.189 0 83.374-37.185 83.374-83.374v-15.159c0-46.189-37.185-83.374-83.374-83.374z" color="#000" overflow="visible" fill="#33d17a"/><path style="marker:none" d="M965.604 155.526v7.58c0 46.189 37.185 83.374 83.374 83.374h621.343l45.477 45.476v-7.58l-45.477-45.476h-621.343c-46.19 0-83.374-37.185-83.374-83.374zm841.147 0c0 46.19-37.184 83.374-83.373 83.374h-7.58v7.58h7.58c46.189 0 83.373-37.185 83.373-83.374z" color="#000" overflow="visible" fill="#228f5d"/><path d="M175.444 155.527c-46.19 0-83.374 37.185-83.374 83.374v15.158c0 46.19 37.184 83.375 83.374 83.375h22.739v45.476l45.476-45.476h386.438c46.19 0 83.372-37.185 83.372-83.375v-15.158c0-46.19-37.183-83.374-83.372-83.374z" fill="#f6f5f4" fill-rule="evenodd"/><path d="M92.166 250.27a85.333 85.333 0 00-.096 3.79c0 46.188 37.184 83.373 83.373 83.373h22.739v-7.58h-22.739c-44.917 0-81.306-35.17-83.277-79.584zm621.208 0c0 41.7-38.36 79.584-83.278 79.584H243.658l-45.476 45.476v7.58l45.476-45.477h386.438c46.19 0 83.374-37.185 83.374-83.374 0-1.272-.04-2.532-.096-3.79z" fill="#deddda" fill-rule="evenodd"/></svg>