<svg xmlns="http://www.w3.org/2000/svg" width="1164" height="235.733" viewBox="0 0 1091.25 221"><g color="#000"><path d="M5 74.286h260v86h52.5" style="isolation:auto;mix-blend-mode:normal;solid-color:#000;solid-opacity:1;marker:none" overflow="visible" fill="none" stroke="#a8c74f" stroke-width="10" stroke-linecap="square"/><path d="M5 34.286h243.5v108h70" style="isolation:auto;mix-blend-mode:normal;solid-color:#000;solid-opacity:1;marker:none" overflow="visible" fill="none" stroke="#c2754a" stroke-width="10" stroke-linecap="square"/><path d="M5 55.286h277.5v69h36" style="isolation:auto;mix-blend-mode:normal;solid-color:#000;solid-opacity:1;marker:none" overflow="visible" fill="none" stroke="#c4ae4d" stroke-width="10" stroke-linecap="square"/><g fill="#418e64"><path d="M388.5 124.286v25.031c0 2.32-.235 4.988-1.969 7.312-1.734 2.325-4.926 3.773-9.281 3.657h-18.281l-4.64 4.5H375l13.5 13.5v-13.5h4.5a4.49 4.49 0 0 0 4.5-4.5v-31.5a4.49 4.49 0 0 0-4.5-4.5z" style="marker:none" overflow="visible"/><path d="M339 115.286a4.49 4.49 0 0 0-4.5 4.5v31.5a4.49 4.49 0 0 0 4.5 4.5h4.5v13.5l13.5-13.5h22.5a4.49 4.49 0 0 0 4.5-4.5v-31.5a4.49 4.49 0 0 0-4.5-4.5H339zm13.5 9h4.5v4.5h4.5v-4.5h4.5v4.5h4.5v4.5H366v4.5h4.5v4.5H366v4.5h-4.5v-4.5H357v4.5h-4.5v-4.5H348v-4.5h4.5v-4.5H348v-4.5h4.5v-4.5zm4.5 9v4.5h4.5v-4.5H357z" style="marker:none" overflow="visible"/></g><path d="M416.5 122.286h31v-52h638.75" style="isolation:auto;mix-blend-mode:normal;solid-color:#000;solid-opacity:1;marker:none" overflow="visible" fill="none" stroke="#a8c74f" stroke-width="10" stroke-linecap="square"/><path d="M416.5 140.286h57v-45h612.75" style="isolation:auto;mix-blend-mode:normal;solid-color:#000;solid-opacity:1;marker:none" overflow="visible" fill="none" stroke="#c4ae4d" stroke-width="10" stroke-linecap="square"/><path d="M416.5 158.286h31V359.57" style="isolation:auto;mix-blend-mode:normal;solid-color:#000;solid-opacity:1;marker:none" overflow="visible" fill="none" stroke="#c2754a" stroke-width="10" stroke-linecap="square"/><g fill="#a8c74f"><path style="marker:none" d="M388.5 122.286v25.031c0 2.32-.235 4.988-1.969 7.312-1.734 2.325-4.926 3.773-9.281 3.657h-18.281l-4.64 4.5H375l13.5 13.5v-13.5h4.5a4.49 4.49 0 0 0 4.5-4.5v-31.5a4.49 4.49 0 0 0-4.5-4.5z" overflow="visible"/><path style="marker:none" d="M339 113.286a4.49 4.49 0 0 0-4.5 4.5v31.5a4.49 4.49 0 0 0 4.5 4.5h4.5v13.5l13.5-13.5h22.5a4.49 4.49 0 0 0 4.5-4.5v-31.5a4.49 4.49 0 0 0-4.5-4.5H339zm13.5 9h4.5v4.5h4.5v-4.5h4.5v4.5h4.5v4.5H366v4.5h4.5v4.5H366v4.5h-4.5v-4.5H357v4.5h-4.5v-4.5H348v-4.5h4.5v-4.5H348v-4.5h4.5v-4.5zm4.5 9v4.5h4.5v-4.5H357z" overflow="visible"/></g></g></svg>