<?xml version="1.0" encoding="UTF-8" standalone="no"?>
<svg
   xmlns:dc="http://purl.org/dc/elements/1.1/"
   xmlns:cc="http://creativecommons.org/ns#"
   xmlns:rdf="http://www.w3.org/1999/02/22-rdf-syntax-ns#"
   xmlns:svg="http://www.w3.org/2000/svg"
   xmlns="http://www.w3.org/2000/svg"
   xmlns:sodipodi="http://sodipodi.sourceforge.net/DTD/sodipodi-0.dtd"
   xmlns:inkscape="http://www.inkscape.org/namespaces/inkscape"
   inkscape:version="1.0 (4035a4fb49, 2020-05-01)"
   sodipodi:docname="featured-FeedReader.svg"
   id="svg33"
   version="1.1"
   viewBox="0 0 135.83973 120.64994"
   height="455.99979"
   width="513.40948">
  <metadata
     id="metadata37">
    <rdf:RDF>
      <cc:Work
         rdf:about="">
        <dc:format>image/svg+xml</dc:format>
        <dc:type
           rdf:resource="http://purl.org/dc/dcmitype/StillImage" />
        <dc:title></dc:title>
      </cc:Work>
    </rdf:RDF>
  </metadata>
  <sodipodi:namedview
     inkscape:current-layer="svg33"
     inkscape:window-maximized="1"
     inkscape:window-y="0"
     inkscape:window-x="0"
     inkscape:cy="228"
     inkscape:cx="721.46522"
     inkscape:zoom="1.0296875"
     fit-margin-bottom="0"
     fit-margin-right="0"
     fit-margin-left="0"
     fit-margin-top="0"
     showgrid="false"
     id="namedview35"
     inkscape:window-height="1043"
     inkscape:window-width="1920"
     inkscape:pageshadow="2"
     inkscape:pageopacity="0"
     guidetolerance="10"
     gridtolerance="10"
     objecttolerance="10"
     borderopacity="1"
     bordercolor="#666666"
     pagecolor="#ffffff" />
  <defs
     id="defs5">
    <clipPath
       id="a"
       clipPathUnits="userSpaceOnUse">
      <path
         id="path2"
         d="m 135.996,846.686 h 338.667 v 120.65 H 135.996 Z"
         stroke-opacity="0.971"
         stroke-width="0"
         stroke="#f6c211"
         fill-opacity="0.965"
         fill="#f5c211" />
    </clipPath>
  </defs>
  <g
     id="g31"
     transform="translate(-135.996,-846.686)"
     clip-path="url(#a)">
    <circle
       id="circle7"
       fill-opacity="0.965"
       fill="#e5a50a"
       r="3.175"
       cy="772.495"
       cx="-510.556"
       transform="rotate(-45)" />
    <circle
       id="circle9"
       stroke-opacity="0.971"
       stroke-width="5.292"
       stroke="#f8e45c"
       fill="none"
       cx="-510.556"
       cy="772.495"
       r="9.8990002"
       transform="rotate(-45)" />
    <circle
       id="circle11"
       stroke-opacity="0.971"
       stroke-width="5.292"
       stroke="#f8e45c"
       fill="none"
       r="19.174999"
       cy="772.495"
       cx="-510.57101"
       transform="rotate(-45)" />
    <circle
       id="circle13"
       stroke-opacity="0.971"
       stroke-width="5.292"
       stroke="#f8e45c"
       fill="none"
       cx="-510.57101"
       cy="772.495"
       r="28.434999"
       transform="rotate(-45)" />
    <circle
       id="circle15"
       stroke-opacity="0.971"
       stroke-width="5.292"
       stroke="#f8e45c"
       fill="none"
       r="37.695"
       cy="772.495"
       cx="-510.57101"
       transform="rotate(-45)" />
    <circle
       id="circle17"
       stroke-opacity="0.971"
       stroke-width="5.292"
       stroke="#f8e45c"
       fill="none"
       cx="-510.57101"
       cy="772.495"
       r="37.695"
       transform="rotate(-45)" />
    <circle
       id="circle19"
       stroke-opacity="0.971"
       stroke-width="5.292"
       stroke="#f8e45c"
       fill="none"
       r="46.956001"
       cy="772.495"
       cx="-510.57101"
       transform="rotate(-45)" />
    <circle
       id="circle21"
       stroke-opacity="0.971"
       stroke-width="5.292"
       stroke="#f8e45c"
       fill="none"
       cx="-510.57101"
       cy="772.495"
       r="56.216"
       transform="rotate(-45)" />
    <circle
       id="circle23"
       stroke-opacity="0.971"
       stroke-width="5.292"
       stroke="#f8e45c"
       fill="none"
       r="65.476997"
       cy="772.495"
       cx="-510.57101"
       transform="rotate(-45)" />
    <circle
       id="circle25"
       stroke-opacity="0.971"
       stroke-width="5.292"
       stroke="#f8e45c"
       fill="none"
       cx="-510.57101"
       cy="772.495"
       r="74.737"
       transform="rotate(-45)" />
    <circle
       id="circle27"
       stroke-opacity="0.971"
       stroke-width="5.292"
       stroke="#f8e45c"
       fill="none"
       r="83.997002"
       cy="772.495"
       cx="-510.57101"
       transform="rotate(-45)" />
    <path
       id="path29"
       stroke-opacity="0.975"
       stroke-width="5.292"
       stroke="#e5a50a"
       fill="none"
       d="m 244.604,847.87 a 83.997,83.997 0 0 1 0,118.79 m -6.549,-112.242 a 74.737,74.737 0 0 1 0,105.694 m -6.548,-99.146 a 65.477,65.477 0 0 1 0,92.598 m -6.547,-86.05 a 56.216,56.216 0 0 1 0,79.502 m -6.549,-72.954 a 46.956,46.956 0 0 1 0,66.406 m -6.548,-59.858 a 37.695,37.695 0 0 1 0,53.31 m -6.548,-46.761 a 28.435,28.435 0 0 1 0,40.213 m -6.548,-33.665 a 19.175,19.175 0 0 1 0,27.117 m -6.548,-20.569 a 9.899,9.899 0 0 1 0,13.999" />
  </g>
</svg>
