<svg xmlns="http://www.w3.org/2000/svg" width="240" height="105"><g transform="translate(-8.801 -211.646)"><rect ry="20.88" rx="20.88" y="212.778" x="8.801" height="103.868" width="238.067" style="marker:none"/><g word-spacing="0" letter-spacing="0" font-size="48.162" font-weight="800" style="line-height:1.25;-inkscape-font-specification:'Cantarell, Ultra-Bold';font-variant-ligatures:normal;font-variant-caps:normal;font-variant-numeric:normal;font-feature-settings:normal;text-align:start" aria-label="852m" font-family="Cantarell" fill="#fff" stroke-width=".248"><path d="M100.626 286.487c8.731 0 14.484-4.416 14.484-10.939 0-4.827-3.236-7.138-7.037-8.68 3.75-1.848 5.855-4.725 5.855-8.062 0-5.394-5.239-8.99-12.736-8.99-8.218 0-13.61 4.367-13.61 10.838 0 4.006 2.155 6.317 4.98 7.91-3.8 1.489-5.957 4.365-5.957 8.011 0 5.907 5.701 9.913 14.021 9.913zm-4.417-26.295c0-1.9 1.746-3.288 4.52-3.288 2.772 0 4.571 1.387 4.571 3.544 0 2.106-1.798 3.596-4.468 3.955-2.671-.976-4.623-2.106-4.623-4.212zm-.975 14.74c0-2.054 1.335-3.39 3.8-3.852 3.954 1.233 7.447 2.26 7.447 4.982 0 1.952-2.003 3.338-5.29 3.338-3.595 0-5.957-1.746-5.957-4.468zm34.257 11.555c9.399 0 15.407-4.622 15.407-12.325 0-6.78-4.828-10.581-13.456-10.581-.77 0-1.439.051-2.003.103l.256-5.598h13.303v-7.756h-21.982l-.925 20.903c2.209-.41 5.034-.718 7.14-.718 5.341 0 8.422 1.695 8.422 4.571 0 2.414-2.207 3.698-6.214 3.698-3.082 0-6.523-.72-9.09-1.952l-2.415 6.985c3.441 1.747 7.345 2.671 11.557 2.671zm19.26-.513h25.166v-7.703h-12.224c7.55-6.01 11.3-11.763 11.3-17.411 0-6.677-5.24-11.043-13.303-11.043-4.622 0-8.834 1.438-12.274 4.262l2.26 6.524c2.875-2.003 5.7-3.031 8.268-3.031 3.544 0 5.803 1.9 5.803 4.674 0 4.417-5.7 9.757-14.996 17.462z"/><path font-size="48.163" font-weight="400" style="-inkscape-font-specification:'Cantarell, Normal';font-variant-ligatures:normal;font-variant-caps:normal;font-variant-numeric:normal;font-feature-settings:normal;text-align:start" d="M180.234 285.974h4.109v-19.362c1.849-1.49 4.057-2.312 6.42-2.312 3.955 0 6.112 2.26 6.112 6.266v15.408h4.109v-16.23c0-1.027-.104-1.952-.36-2.824 1.9-1.696 4.263-2.62 6.78-2.62 3.954 0 6.111 2.26 6.111 6.266v15.408h4.109v-16.23c0-5.495-3.595-9.04-9.09-9.04-3.288 0-6.523 1.336-9.04 3.7-1.54-2.364-4.16-3.7-7.55-3.7-2.825 0-5.599.977-7.91 2.671l-.924-2.156h-2.876z"/></g><g fill="#fff" stroke-width=".105" font-weight="400" color="#000" font-family="Sans"><path overflow="visible" d="M48 256.413l-5.369 5.37 10.107 10.182 5.37-5.367z" style="line-height:normal;-inkscape-font-specification:Sans;text-indent:0;text-align:start;text-decoration-line:none;text-transform:none;marker:none" opacity=".35"/><path overflow="visible" d="M59.056 255.948l3.633 3.633-11.214 11.21v15.466h7.58v-12.308l9.004-9.003 3.63 3.636v-12.634z" style="line-height:normal;-inkscape-font-specification:Sans;text-indent:0;text-align:start;text-decoration-line:none;text-transform:none;marker:none"/></g></g></svg>