<?xml version="1.0" encoding="UTF-8" standalone="no"?>
<svg
   xmlns:dc="http://purl.org/dc/elements/1.1/"
   xmlns:cc="http://creativecommons.org/ns#"
   xmlns:rdf="http://www.w3.org/1999/02/22-rdf-syntax-ns#"
   xmlns:svg="http://www.w3.org/2000/svg"
   xmlns="http://www.w3.org/2000/svg"
   xmlns:sodipodi="http://sodipodi.sourceforge.net/DTD/sodipodi-0.dtd"
   xmlns:inkscape="http://www.inkscape.org/namespaces/inkscape"
   width="1200"
   height="471.466"
   viewBox="0 0 1125 442"
   version="1.1"
   id="svg5756"
   sodipodi:docname="featured-polari.svg"
   inkscape:version="0.92.4 5da689c313, 2019-01-14">
  <metadata
     id="metadata5762">
    <rdf:RDF>
      <cc:Work
         rdf:about="">
        <dc:format>image/svg+xml</dc:format>
        <dc:type
           rdf:resource="http://purl.org/dc/dcmitype/StillImage" />
        <dc:title></dc:title>
      </cc:Work>
    </rdf:RDF>
  </metadata>
  <defs
     id="defs5760" />
  <sodipodi:namedview
     pagecolor="#ffffff"
     bordercolor="#666666"
     borderopacity="1"
     objecttolerance="10"
     gridtolerance="10"
     guidetolerance="10"
     inkscape:pageopacity="0"
     inkscape:pageshadow="2"
     inkscape:window-width="640"
     inkscape:window-height="480"
     id="namedview5758"
     showgrid="false"
     inkscape:zoom="1"
     inkscape:cx="716.85619"
     inkscape:cy="-69.281817"
     inkscape:current-layer="svg5756" />
  <path
     style="color:#000000;clip-rule:nonzero;display:inline;overflow:visible;visibility:visible;opacity:1;color-interpolation:sRGB;color-interpolation-filters:linearRGB;fill:#33d17a;fill-opacity:1;fill-rule:nonzero;stroke:none;stroke-width:0.14629614;stroke-linecap:round;stroke-linejoin:round;stroke-miterlimit:4;stroke-dasharray:none;stroke-dashoffset:0;stroke-opacity:1;marker:none;color-rendering:auto;image-rendering:auto;shape-rendering:auto;text-rendering:auto;enable-background:accumulate"
     d="m 306.51584,65.946597 c -46.18909,0 -83.37401,37.184883 -83.37401,83.374013 v 15.1587 c 0,46.18911 37.18492,83.37401 83.37401,83.37401 h 621.34107 l 45.4785,45.47852 v -45.47852 h 7.5782 c 46.18899,0 83.37389,-37.1849 83.37389,-83.37401 v -15.1587 c 0,-46.18913 -37.1849,-83.374013 -83.37389,-83.374013 z"
     id="rect1128-7"
     inkscape:connector-curvature="0"
     sodipodi:nodetypes="sssscccsssss" />
  <path
     style="color:#000000;clip-rule:nonzero;display:inline;overflow:visible;visibility:visible;opacity:1;color-interpolation:sRGB;color-interpolation-filters:linearRGB;fill:#228f5d;fill-opacity:1;fill-rule:nonzero;stroke:none;stroke-width:0.14629614;stroke-linecap:round;stroke-linejoin:round;stroke-miterlimit:4;stroke-dasharray:none;stroke-dashoffset:0;stroke-opacity:1;marker:none;color-rendering:auto;image-rendering:auto;shape-rendering:auto;text-rendering:auto;enable-background:accumulate"
     d="m 223.14091,156.90073 v 7.57946 c 0,46.18912 37.18474,83.37385 83.37386,83.37385 h 621.34354 l 45.4766,45.47665 v -7.57943 L 927.85831,240.2746 H 306.51477 c -46.18912,0 -83.37386,-37.18474 -83.37386,-83.37387 z m 841.14729,0 c 0,46.18913 -37.1848,83.37387 -83.37389,83.37387 h -7.5794 v 7.57944 h 7.5794 c 46.18909,0 83.37389,-37.18473 83.37389,-83.37385 z"
     id="rect1362-3"
     inkscape:connector-curvature="0"
     sodipodi:nodetypes="cssccccsccsccssc" />
  <path
     style="display:inline;fill:#f6f5f4;fill-opacity:1;fill-rule:evenodd;stroke:none;stroke-width:0.05352132px;stroke-linecap:butt;stroke-linejoin:miter;stroke-opacity:1;enable-background:new"
     d="m 175.44355,156.90117 c -46.18913,0 -83.37403,37.1849 -83.37403,83.37401 v 15.15869 c 0,46.18913 37.1849,83.37403 83.37403,83.37403 h 22.73925 v 45.47607 l 45.47608,-45.47607 h 386.43846 c 46.18912,0 83.3716,-37.1849 83.3716,-83.37403 v -15.15869 c 0,-46.18911 -37.18248,-83.37401 -83.3716,-83.37401 z"
     id="path1038-5"
     inkscape:connector-curvature="0"
     sodipodi:nodetypes="sssscccsssss" />
  <path
     inkscape:connector-curvature="0"
     style="display:inline;fill:#deddda;fill-opacity:1;fill-rule:evenodd;stroke:none;stroke-width:0.05352132px;stroke-linecap:butt;stroke-linejoin:miter;stroke-opacity:1;enable-background:new"
     d="m 92.16585,251.64377 c -0.0558,1.25773 -0.0963,2.51773 -0.0963,3.78972 0,46.18911 37.18473,83.37386 83.37385,83.37386 h 22.73833 v -7.57944 h -22.73829 c -44.91714,0 -81.30679,-35.17005 -83.27764,-79.58414 z m 621.20799,0 c 0,41.70037 -38.3605,79.58414 -83.27764,79.58414 H 243.65848 l -45.47666,45.47665 v 7.57944 l 45.47666,-45.47665 H 630.0962 c 46.18912,0 83.37387,-37.18475 83.37387,-83.37386 0,-1.27199 -0.0404,-2.53199 -0.0963,-3.78972 z"
     id="path1354-2"
     sodipodi:nodetypes="cssccscccsccccsscc" />
</svg>
