<svg xmlns="http://www.w3.org/2000/svg" xmlns:xlink="http://www.w3.org/1999/xlink" width="512" height="512" version="1.0"><defs><clipPath clipPathUnits="userSpaceOnUse" id="c"><path style="marker:none" d="M64-148h64l64-64 64 64h192c17.728 0 32 14.272 32 32v288c0 17.728-14.272 32-32 32H256l-64-64-64 64H64c-17.728 0-32-14.272-32-32v-288c0-17.728 14.409-34.199 32-32z" fill="none" stroke="#000" stroke-width="4" stroke-linecap="round" stroke-linejoin="round"/></clipPath><linearGradient id="b"><stop offset="0" stop-color="#a51d2d"/><stop offset="1" stop-color="#ce1921"/></linearGradient><linearGradient xlink:href="#a" id="e" gradientUnits="userSpaceOnUse" gradientTransform="matrix(.25 0 0 .25 8 225)" x1="336" y1="62" x2="336" y2="-180"/><linearGradient id="a"><stop offset="0" stop-color="#d81d25"/><stop offset="1" stop-color="#f66151"/></linearGradient><linearGradient xlink:href="#b" id="d" x1="320.5" y1="-68" x2="415.5" y2="-68" gradientUnits="userSpaceOnUse" gradientTransform="translate(115.032 109.18) scale(.25263)"/></defs><g transform="translate(0 250.693) scale(.98988)" clip-path="url(#c)"><path style="marker:none" d="M256 124h160v-272h96v384H256l-64-64-64 64H0V124h128l64-64z" fill="#cdab8f"/><path d="M0 123.975l128 .05V-148H0z" style="marker:none" fill="#55a7eb"/><path d="M144-164v272l48-48 64 64.058h144L416 108v-256H256l-64-64z" fill="#2ec27e"/><path style="line-height:normal;font-variant-ligatures:normal;font-variant-position:normal;font-variant-caps:normal;font-variant-numeric:normal;font-variant-alternates:normal;font-feature-settings:normal;text-indent:0;text-align:start;text-decoration-line:none;text-decoration-style:solid;text-decoration-color:#000;text-transform:none;text-orientation:mixed;white-space:normal;shape-padding:0;isolation:auto;mix-blend-mode:normal;solid-color:#000;solid-opacity:1" d="M399.898-147.89v238c0 10.027-9.373 17.948-16.949 17.948H256L192 44.59l-39.375 39.535L152-211.942h-24V108l-128 .058v32.102h127L192 76l64 64.16h126.95c26.424 0 47.962-22.048 49.05-50.05v-238z" color="#000" font-weight="400" font-family="sans-serif" overflow="visible" fill="#fff"/><path style="marker:none" d="M128 267.975l64 .05V-212h-64z" opacity=".3" fill="#fff"/><path d="M192 267.975l64 .05V-212h-64z" style="marker:none" opacity=".15"/></g><g transform="translate(0 -687.715) scale(3.95953)"><circle r="12" transform="matrix(0 1 1 0 0 0)" cy="92" cx="208" fill="url(#d)"/><path style="marker:none" d="M92 182a27.912 27.912 0 0 0-19.799 8.201c-10.934 10.935-10.934 28.663 0 39.598l19.8 19.8s13.82-13.823 19.798-19.8c10.935-10.935 10.935-28.663 0-39.598A27.912 27.912 0 0 0 92 182zm0 18a10 10 0 0 1 10 10 10 10 0 0 1-10 10 10 10 0 0 1-10-10 10 10 0 0 1 10-10z" fill="#a51d2d"/><path d="M92 180a27.912 27.912 0 0 0-19.799 8.201c-10.934 10.935-10.934 28.663 0 39.598l19.8 19.8s13.82-13.823 19.798-19.8c10.935-10.935 10.935-28.663 0-39.598A27.912 27.912 0 0 0 92 180zm0 18a10 10 0 0 1 10 10 10 10 0 0 1-10 10 10 10 0 0 1-10-10 10 10 0 0 1 10-10z" style="marker:none" fill="url(#e)"/></g></svg>