<svg xmlns="http://www.w3.org/2000/svg" xmlns:xlink="http://www.w3.org/1999/xlink" width="512" height="512" version="1.0"><defs><linearGradient id="b"><stop offset="0" stop-color="#8c839c"/><stop offset="1" stop-color="#3d3846"/></linearGradient><linearGradient id="a"><stop offset="0" stop-color="#fff"/><stop offset="1" stop-color="#fff" stop-opacity="0"/></linearGradient><radialGradient xlink:href="#a" id="d" cx="86" cy="218" fx="86" fy="218" r="20" gradientUnits="userSpaceOnUse" gradientTransform="matrix(4.2002 0 0 4.2002 -.302 -932.436)"/><radialGradient xlink:href="#b" id="c" cx="30.493" cy="197.655" fx="30.493" fy="197.655" r="31.25" gradientTransform="matrix(6.3386 0 0 8.83033 -65.509 -1885.898)" gradientUnits="userSpaceOnUse"/></defs><g transform="translate(0 212)"><path d="M135.097-172.49l-.073 38.853-30.214 24.405-.008.008A120.757 120.757 0 0 0 90.15-96.705l-54.946 30.82-.985 15.201L54.17-10.782l48.778-16.546a40.952 40.952 0 0 0 32.076 15.496c21.473-.025 39.282-16.629 40.804-38.048l.05-.017 1.148 39.115c-.03 19.463-13.24 34.501-32.186 38.964-16.903 3.982-22.273-1.206-42.58 7.074-27.922 11.384-48.162 28.05-50.043 57.083l-.147 16.875 41.985 42.002c-19.267 0-43.954 25.202-43.954 25.202v16.8h243.612v-16.8s4.2-25.202-40.907-25.202l43.925-42.817V-11.83c0-66.692-54.064-120.756-120.755-120.756-.714.029-1.428.064-2.142.106a38.857 38.857 0 0 0-.943-9.836c-4.04-17.628-19.709-30.137-37.794-30.172z" style="marker:none"/><path style="marker:none" d="M134.244-184.541l-.073 38.852-98.968 79.804 19.951 39.902 48.778-16.547a40.952 40.952 0 0 0 32.076 15.497c21.473-.026 38.576-16.63 40.1-38.048v-.017 39.114c-.03 19.464-11.338 34.502-30.283 38.965-16.904 3.982-22.274-1.206-42.582 7.074C72.38 32.638 52.22 59.008 52.217 92.339l42.823 43.676c-23.72 0-44.94 17.827-44.94 40.403h243.613c0-25.223-18.895-40.403-39.922-40.403l43.925-42.817V-27.033c0-66.692-54.064-117.606-120.756-117.606-.714.03-1.428.065-2.141.107a38.857 38.857 0 0 0-.943-9.836c-4.04-17.628-21.547-30.137-39.632-30.173z" fill="url(#c)"/><path style="marker:none" d="M136.082-187.688l-.025 12.273c10.373 5.004 18.311 14.492 21.018 26.3a38.857 38.857 0 0 1 .943 9.837 121.9 121.9 0 0 1 2.141-.107c66.692 0 120.756 54.064 120.756 120.756V101.6l-27.12 34.414 43.921-42.814v-120.23c0-66.692-54.064-120.757-120.756-120.757-.714.03-1.428.065-2.14.107a38.857 38.857 0 0 0-.944-9.836c-4.04-17.628-19.71-30.137-37.794-30.172zM74.933 141.045a43.53 43.53 0 0 0-7.088 4.7c3.332-.834 6.802-1.328 10.394-1.328z" fill="#fff" fill-opacity=".071"/><path d="M360.164-65.634c-51.716 0-92.527 41.925-92.527 93.641.04 40.203 25.732 75.896 63.845 88.688l-25.2 115.906-70.972 26.755v18.36l251.612.527v-17.821l-73.622-27.82-23.355-115.937c38.109-12.784 63.808-48.462 63.86-88.658 0-51.716-41.924-93.64-93.64-93.64z" style="marker:none" fill="#9a9996"/><path style="marker:none" d="M360.907-83.643c-51.307 0-92.899 41.592-92.899 92.898.04 39.884 25.528 75.294 63.339 87.985l-62.835 129.58c-15.607 0-33.202 17.671-33.202 33.278l251.612.324c0-15.607-17.995-33.602-33.601-33.602L390.45 97.21c37.807-12.683 63.302-48.078 63.354-87.955 0-51.306-41.592-92.898-92.898-92.898z" fill="#deddda"/><circle style="marker:none" cx="360.916" cy="8.41" r="84.004" fill="url(#d)"/><path style="marker:none" d="M486.922 260.422c0-14.555-17.633-25.201-33.601-25.201H268.51c-18.225 0-33.201 8.914-33.201 24.877 0-15.98 16.108-33.278 33.202-33.278H453.32c17.823 0 33.601 16.83 33.601 33.602z" fill="#f6f5f4"/><path style="marker:none" d="M268.92 8.736a92.404 92.404 0 0 0-.408 8.074 92.404 92.404 0 0 0 92.404 92.404 92.404 92.404 0 0 0 92.405-92.404 92.404 92.404 0 0 0-.408-7.996 92.404 92.404 0 0 1-91.997 84.33A92.404 92.404 0 0 1 268.92 8.736z" fill="#c0bfbc"/></g></svg>