<svg xmlns="http://www.w3.org/2000/svg" xmlns:xlink="http://www.w3.org/1999/xlink" width="436" height="256"><defs><linearGradient xlink:href="#a" id="B" x1="23.712" y1="268.75" x2="27.212" y2="268.75" gradientUnits="userSpaceOnUse" gradientTransform="translate(573.574 748.234)"/><linearGradient id="a"><stop offset="0" stop-color="#e54b57"/><stop offset="1" stop-color="#a51d2d"/></linearGradient><linearGradient xlink:href="#b" id="A" x1="106.712" y1="227" x2="58.712" y2="227" gradientUnits="userSpaceOnUse" gradientTransform="translate(573.574 749.234)"/><linearGradient id="b"><stop offset="0" stop-color="#26a269"/><stop offset="1" stop-color="#26a269" stop-opacity="0"/></linearGradient><linearGradient xlink:href="#c" id="z" gradientUnits="userSpaceOnUse" gradientTransform="matrix(.25 0 0 .25 558.286 873.243)" x1="120" y1="619.964" x2="568" y2="619.964"/><linearGradient id="c"><stop offset="0" stop-color="#d5d3cf"/><stop offset=".036" stop-color="#e4e1de"/><stop offset=".071" stop-color="#d5d3cf"/><stop offset=".929" stop-color="#d5d3cf"/><stop offset=".964" stop-color="#e4e1de"/><stop offset="1" stop-color="#d5d3cf"/></linearGradient><linearGradient xlink:href="#c" id="y" gradientUnits="userSpaceOnUse" gradientTransform="matrix(.25 0 0 .25 564.786 1049.243)" x1="513.5" y1="-88.536" x2="277.5" y2="-88.536"/><radialGradient xlink:href="#d" id="l" gradientUnits="userSpaceOnUse" gradientTransform="matrix(-10.40175 0 0 -2.08723 561.044 -641.02)" cx="64.846" cy="194.19" fx="64.846" fy="194.19" r="44"/><linearGradient id="d"><stop offset="0" stop-color="#fff"/><stop offset="1" stop-color="#fff" stop-opacity=".094"/></linearGradient><linearGradient xlink:href="#e" id="m" gradientUnits="userSpaceOnUse" gradientTransform="matrix(-1 0 0 1 122.916 -6)" x1="22.472" y1="257" x2="100.444" y2="257"/><linearGradient id="e"><stop offset="0" stop-color="#57e389"/><stop offset="1" stop-color="#57e389" stop-opacity=".204"/></linearGradient><linearGradient xlink:href="#f" id="n" gradientUnits="userSpaceOnUse" gradientTransform="matrix(.25 0 0 .25 -30 125.009)" x1="167.785" y1="619.964" x2="520.004" y2="620.196"/><linearGradient id="f"><stop offset="0" stop-color="#d5d3cf"/><stop offset=".046" stop-color="#e4e1de"/><stop offset=".091" stop-color="#d5d3cf"/><stop offset=".909" stop-color="#d5d3cf"/><stop offset=".955" stop-color="#e4e1de"/><stop offset="1" stop-color="#d5d3cf"/></linearGradient><linearGradient xlink:href="#g" id="o" gradientUnits="userSpaceOnUse" gradientTransform="translate(-8)" x1="36" y1="264" x2="36" y2="286"/><linearGradient id="g"><stop offset="0" stop-color="#e01b24"/><stop offset=".5" stop-color="#ce1e2b"/><stop offset=".682" stop-color="#ed333b"/><stop offset=".818" stop-color="#b31c2a"/><stop offset="1" stop-color="#7a1621"/></linearGradient><linearGradient xlink:href="#h" id="p" gradientUnits="userSpaceOnUse" gradientTransform="translate(2)" x1="36" y1="264" x2="36" y2="286"/><linearGradient id="h"><stop offset="0" stop-color="#5e5c64"/><stop offset=".5" stop-color="#5e5c64"/><stop offset=".682" stop-color="#77767b"/><stop offset=".818" stop-color="#5e5c64"/><stop offset="1" stop-color="#3d3846"/></linearGradient><linearGradient xlink:href="#h" id="q" gradientUnits="userSpaceOnUse" gradientTransform="translate(12)" x1="36" y1="264" x2="36" y2="286"/><linearGradient xlink:href="#h" id="r" gradientUnits="userSpaceOnUse" gradientTransform="translate(22)" x1="36" y1="264" x2="36" y2="286"/><linearGradient xlink:href="#h" id="s" gradientUnits="userSpaceOnUse" gradientTransform="translate(32)" x1="36" y1="264" x2="36" y2="286"/><linearGradient xlink:href="#h" id="t" gradientUnits="userSpaceOnUse" gradientTransform="translate(42)" x1="36" y1="264" x2="36" y2="286"/><radialGradient xlink:href="#i" id="u" gradientUnits="userSpaceOnUse" gradientTransform="translate(-394.688 -39.563) scale(1.1875)" cx="185" cy="211" fx="185" fy="211" r="16"/><linearGradient id="i"><stop offset="0" stop-color="#deddda"/><stop offset="1" stop-color="#9a9996"/></linearGradient><linearGradient xlink:href="#j" id="v" gradientUnits="userSpaceOnUse" x1="163" y1="216" x2="197" y2="216"/><linearGradient id="j"><stop offset="0" stop-color="#c0bfbc"/><stop offset=".45" stop-color="#fff"/><stop offset=".75" stop-color="#c0bfbc"/><stop offset="1" stop-color="#9a9996"/></linearGradient><linearGradient xlink:href="#k" id="w" gradientUnits="userSpaceOnUse" x1="170.438" y1="254" x2="189.531" y2="254"/><linearGradient id="k"><stop offset="0" stop-color="#3d3846"/><stop offset=".448" stop-color="#9a9996"/><stop offset=".75" stop-color="#5e5c64"/><stop offset="1" stop-color="#3d3846"/></linearGradient><linearGradient xlink:href="#j" id="x" gradientUnits="userSpaceOnUse" x1="166" y1="227.5" x2="194" y2="227.5"/></defs><g transform="translate(0 -866.52)"><rect ry="7.701" rx="7.701" y="941.474" x="17.753" height="119.37" width="200.234" style="marker:none" fill="#241f31"/><path transform="scale(-1)" style="marker:none" opacity=".05" fill="url(#l)" d="M-210.286-1053.143h184.831v102.042h-184.831z"/><path opacity=".261" fill="#f8e45c" d="M25.455 999.234h184.83v7.701H25.456z"/><path d="M98.416 251H24.5" fill="none" stroke="url(#m)" stroke-width="4" stroke-linecap="round" transform="matrix(1.92532 0 0 1.92532 -17.865 519.828)"/><g stroke="#33d17a" fill="none" stroke-width="4" stroke-linecap="round"><path d="M44.708 983.831v38.507M63.961 991.533v23.104M83.214 989.607v26.955M102.468 981.906v42.357M121.72 970.354v65.461M140.974 985.757v34.656M160.227 979.98v46.208" stroke-width="7.70128"/><path d="M44.708 997.309v11.552M63.961 999.234v7.701M83.214 995.383v15.403M102.468 995.383v15.403M121.72 985.757v34.656M140.974 995.383v15.403M160.227 997.309v11.552" stroke="#f9f06b" stroke-width="7.70128"/></g><g transform="matrix(1.96301 0 0 1.96301 176.23 530.964)"><rect style="marker:none" width="80" height="110" x="16" y="180" rx="8" ry="8" fill="#f6f5f4"/><path style="marker:none" d="M16 272v12c0 4.432 3.568 8 8 8h64c4.432 0 8-3.568 8-8v-12c0 4.432-3.568 8-8 8H24c-4.432 0-8-3.568-8-8z" fill="url(#n)"/><rect y="264" x="25" height="26" width="62" rx="2" ry="2" fill="#3d3846"/><rect y="262" x="25" height="24" width="62" rx="2" ry="2" fill="#c0bfbc"/><path fill="#9a9996" d="M25 264h62v22H25z"/><rect style="marker:none" width="64" height="34" x="24" y="220" rx="4" ry="4" fill="#c0bfbc" stroke="#c0bfbc" stroke-width=".011"/><rect y="218" x="24" height="34" width="64" style="marker:none" rx="4" ry="4" fill="#deddda"/><rect ry="2" y="228" x="40" height="12" width="32" style="marker:none" rx="2" fill="#77767b"/><g transform="translate(-8)" fill="#77767b"><circle r="2" cy="192" cx="36"/><circle cx="44" cy="192" r="2"/><circle cx="52" cy="192" r="2"/><circle r="2" cy="192" cx="60"/><circle cx="68" cy="192" r="2"/><circle r="2" cy="192" cx="76"/><circle r="2" cy="192" cx="84"/><circle cx="92" cy="192" r="2"/><circle cx="36" cy="200" r="2"/><circle r="2" cy="200" cx="44"/><circle r="2" cy="200" cx="52"/><circle cx="60" cy="200" r="2"/><circle r="2" cy="200" cx="68"/><circle cx="76" cy="200" r="2"/><circle cx="84" cy="200" r="2"/><circle r="2" cy="200" cx="92"/><circle r="2" cy="208" cx="36"/><circle cx="44" cy="208" r="2"/><circle cx="52" cy="208" r="2"/><circle r="2" cy="208" cx="60"/><circle cx="68" cy="208" r="2"/><circle r="2" cy="208" cx="76"/><circle r="2" cy="208" cx="84"/><circle cx="92" cy="208" r="2"/></g><rect style="marker:none" width="32" height="12" x="40" y="229" ry="2" rx="2" fill="#3d3846"/><circle cx="47" cy="235" r="3" fill="#deddda"/><circle r="3" cy="235" cx="65" fill="#deddda"/><path style="marker:none" fill="#9a9996" d="M53 233h6v4h-6z"/><path fill="url(#o)" d="M26 264h10v22H26z"/><path fill="#5e5c64" d="M36 264h10v22H36z"/><path fill="url(#p)" d="M36 264h10v22H36z"/><path fill-opacity=".319" d="M36 264h1v22h-1z"/><path fill="url(#q)" d="M46 264h10v22H46z"/><path fill="url(#r)" d="M56 264h10v22H56z"/><path fill="url(#s)" d="M66 264h10v22H66z"/><path fill="url(#t)" d="M76 264h10v22H76z"/><g fill-opacity=".319"><path d="M46 264h1v22h-1zM56 264h1v22h-1zM66 264h1v22h-1zM76 264h1v22h-1z"/></g><circle r="2" cy="247" cx="29" fill="#77767b"/><path fill="#77767b" d="M33 246h10v2H33z"/><g transform="translate(-77)"><circle transform="scale(-1 1)" r="16" cy="216" cx="-180" fill="url(#u)"/><path fill="url(#v)" d="M163 214h34v4h-34z"/><ellipse ry="2" rx="8" cy="282" cx="180" fill="#3d3846"/><path d="M168 227h24l-4 55h-16z" fill="url(#w)"/><path d="M166 225h28l-1 5h-26z" fill="url(#x)"/></g></g><rect style="marker:none" width="112" height="86" x="588.286" y="952.234" rx="8" ry="8" fill="#f6f5f4"/><path d="M644.286 988.234v40h44.994a3 3 0 0 0 3.006-3.006V991.24a3 3 0 0 0-3.006-3.006z" style="marker:none" fill="url(#y)"/><path style="marker:none" d="M588.286 1028.234v4c0 4.432 3.568 8 8 8h96c4.432 0 8-3.568 8-8v-4c0 4.432-3.568 8-8 8h-96c-4.432 0-8-3.568-8-8z" fill="url(#z)"/><rect ry="1.945" rx="1.945" y="960.234" x="596.286" height="24" width="96" style="marker:none" fill="#241f31"/><rect ry="0" rx="0" y="960.234" x="609.286" height="24" width="66" style="marker:none" fill="url(#A)"/><path opacity=".623" fill="#26a269" d="M676.286 971.234h16v2h-16z"/><path d="M674.286 972.234l-77-.002" opacity=".8" fill="none" stroke="#57e389" stroke-width="2" stroke-linecap="square"/><path d="M622.286 969.243v5.99M630.286 970.234v4M638.286 969.234v5.958M646.286 967.234v10M654.286 965.234v14M662.286 968.234v8M670.286 968.234v8" fill="none" stroke="#33d17a" stroke-width="4" stroke-linecap="round"/><path d="M622.286 971.234v2M630.286 972.234v0M638.286 971.234v2M646.286 970.234v4M654.286 969.234v6M662.286 970.234v4M670.286 971.276v1.958" fill="none" stroke="#f9f06b" stroke-width="4" stroke-linecap="round"/><path d="M644.286 986.234v38h44.994a3 3 0 0 0 3.006-3.006V989.24a3 3 0 0 0-3.006-3.006z" style="marker:none" fill="#fff"/><path style="marker:none" d="M644.286 988.234v40h-44.994a3 3 0 0 1-3.006-3.006V991.24a3 3 0 0 1 3.006-3.006z" fill="url(#B)"/><path style="marker:none" d="M644.286 988.234v38h-44.994a3 3 0 0 1-3.006-3.006V991.24a3 3 0 0 1 3.006-3.006z" fill="#e01b24"/><circle r="9" cy="1008.234" cx="620.286" style="marker:none" fill="#fff"/><path d="M652.286 996.234v16l16-8zM668.286 996.234h6v16h-6zM678.286 996.234h6v16h-6z" style="marker:none" fill="#241f31"/><path style="marker:none" fill="#8ff0a4" d="M675.286 960.234h2v24h-2z"/><path d="M598.23 960.234a1.942 1.942 0 0 0-1.945 1.945v2c0-1.077.868-1.945 1.945-1.945h92.11c1.078 0 1.946.868 1.946 1.945v-2a1.942 1.942 0 0 0-1.946-1.945z" style="marker:none" fill="#241f31" fill-opacity=".374"/></g></svg>