<?xml version="1.0" encoding="UTF-8" standalone="no"?>
<svg
   xmlns:dc="http://purl.org/dc/elements/1.1/"
   xmlns:cc="http://creativecommons.org/ns#"
   xmlns:rdf="http://www.w3.org/1999/02/22-rdf-syntax-ns#"
   xmlns:svg="http://www.w3.org/2000/svg"
   xmlns="http://www.w3.org/2000/svg"
   xmlns:sodipodi="http://sodipodi.sourceforge.net/DTD/sodipodi-0.dtd"
   xmlns:inkscape="http://www.inkscape.org/namespaces/inkscape"
   version="1.1"
   x="0px"
   y="0px"
   viewBox="0 0 16 16"
   enable-background="new 0 0 100 100"
   xml:space="preserve"
   id="svg2"
   inkscape:version="0.92.2 (5c3e80d, 2017-08-06)"
   sodipodi:docname="gs-auto-updates-off-symbolic.svg"
   width="16"
   height="16"><metadata
     id="metadata10"><rdf:RDF><cc:Work
         rdf:about=""><dc:format>image/svg+xml</dc:format><dc:type
           rdf:resource="http://purl.org/dc/dcmitype/StillImage" /><dc:title /></cc:Work></rdf:RDF></metadata><defs
     id="defs8"><style
       id="style1015">.a{fill:#999;}.b{fill:none;}</style><style
       id="style1046">.a{fill:#999;}.b{fill:none;}</style></defs><sodipodi:namedview
     pagecolor="#ffffff"
     bordercolor="#666666"
     borderopacity="1"
     objecttolerance="10"
     gridtolerance="10"
     guidetolerance="10"
     inkscape:pageopacity="0"
     inkscape:pageshadow="2"
     inkscape:window-width="1920"
     inkscape:window-height="1053"
     id="namedview6"
     showgrid="false"
     inkscape:zoom="26.700352"
     inkscape:cx="0.79139105"
     inkscape:cy="11.607456"
     inkscape:window-x="0"
     inkscape:window-y="27"
     inkscape:window-maximized="1"
     inkscape:current-layer="svg2" /><path
     style="fill:#999999"
     inkscape:connector-curvature="0"
     class="a"
     d="m 11.03,10.074 a 0.125,0.125 0 0 0 -0.086,0.213 l 1.347,1.35 a 5.733,5.733 0 0 1 -4.238,1.9 5.6,5.6 0 0 1 -2.282,-0.484 l -1.11,1.11 a 7.024,7.024 0 0 0 3.392,0.875 7.3,7.3 0 0 0 5.3,-2.339 l 1.357,1.36 a 0.125,0.125 0 0 0 0.213,-0.086 L 15,9.9999999 Z"
     id="path1052" /><path
     style="fill:#999999"
     inkscape:connector-curvature="0"
     class="a"
     d="m 2.51,7.9889999 h -1 a 0.261,0.261 0 0 0 -0.257,0.265 A 6.955,6.955 0 0 0 3.068,12.93 l 1.056,-1.056 a 5.49,5.49 0 0 1 -1.37,-3.6400001 0.248,0.248 0 0 0 -0.244,-0.245 z"
     id="path1054" /><path
     style="fill:#999999"
     inkscape:connector-curvature="0"
     class="a"
     d="m 14.07,4.7549999 -1.149,1.145 a 6.354,6.354 0 0 1 0.326,1.863 0.248,0.248 0 0 0 0.244,0.244 h 1 a 0.261,0.261 0 0 0 0.257,-0.265 7.543,7.543 0 0 0 -0.678,-2.987 z"
     id="path1056" /><path
     style="fill:#999999"
     inkscape:connector-curvature="0"
     class="a"
     d="m 7.948,0.9609999 a 7.3,7.3 0 0 0 -5.297,2.339 l -1.358,-1.36 a 0.125,0.125 0 0 0 -0.214,0.086 l -0.079,3.974 3.971,-0.074 a 0.125,0.125 0 0 0 0.086,-0.213 l -1.347,-1.35 a 5.733,5.733 0 0 1 4.238,-1.9 5.328,5.328 0 0 1 3.926,1.662 l 1.056,-1.058 a 6.84,6.84 0 0 0 -4.982,-2.106 z"
     id="path1058" /><rect
     style="fill:#999999"
     class="a"
     x="-9.1986332"
     y="9.8088856"
     width="18.396999"
     height="1.5"
     rx="0.25"
     ry="0.25"
     transform="rotate(-45)"
     id="rect1060" /></svg>