<?xml version="1.0" encoding="UTF-8" standalone="no"?>
<svg
   xmlns:dc="http://purl.org/dc/elements/1.1/"
   xmlns:cc="http://creativecommons.org/ns#"
   xmlns:rdf="http://www.w3.org/1999/02/22-rdf-syntax-ns#"
   xmlns:svg="http://www.w3.org/2000/svg"
   xmlns="http://www.w3.org/2000/svg"
   xmlns:sodipodi="http://sodipodi.sourceforge.net/DTD/sodipodi-0.dtd"
   xmlns:inkscape="http://www.inkscape.org/namespaces/inkscape"
   version="1.1"
   x="0px"
   y="0px"
   viewBox="0 0 16 16"
   enable-background="new 0 0 100 100"
   xml:space="preserve"
   id="svg2"
   inkscape:version="0.92.2 (5c3e80d, 2017-08-06)"
   sodipodi:docname="gs-auto-updates-on-symbolic.svg"
   width="16"
   height="16"><metadata
     id="metadata10"><rdf:RDF><cc:Work
         rdf:about=""><dc:format>image/svg+xml</dc:format><dc:type
           rdf:resource="http://purl.org/dc/dcmitype/StillImage" /><dc:title /></cc:Work></rdf:RDF></metadata><defs
     id="defs8"><style
       id="style1015">.a{fill:#999;}.b{fill:none;}</style></defs><sodipodi:namedview
     pagecolor="#ffffff"
     bordercolor="#666666"
     borderopacity="1"
     objecttolerance="10"
     gridtolerance="10"
     guidetolerance="10"
     inkscape:pageopacity="0"
     inkscape:pageshadow="2"
     inkscape:window-width="1920"
     inkscape:window-height="1053"
     id="namedview6"
     showgrid="false"
     inkscape:zoom="37.76"
     inkscape:cx="10.895116"
     inkscape:cy="6.6350295"
     inkscape:window-x="0"
     inkscape:window-y="27"
     inkscape:window-maximized="1"
     inkscape:current-layer="svg2" /><path
     style="fill:#999999"
     inkscape:connector-curvature="0"
     class="a"
     d="m 5.1821109,5.7140088 -1.347,-1.351 a 5.733,5.733 0 0 1 4.238,-1.9 5.173,5.173 0 0 1 5.2999991,5.305 0.248,0.248 0 0 0 0.244,0.244 h 1 a 0.261,0.261 0 0 0 0.257,-0.265 6.684,6.684 0 0 0 -6.8009991,-6.78500003 7.3,7.3 0 0 0 -5.298,2.33900003 l -1.357,-1.36 a 0.125,0.125 0 0 0 -0.213,0.086 l -0.08,3.974 3.971,-0.074 a 0.125,0.125 0 0 0 0.086,-0.213 z"
     id="path1021" /><path
     style="fill:#999999"
     inkscape:connector-curvature="0"
     class="a"
     d="m 10.904389,10.075009 a 0.125,0.125 0 0 0 -0.086,0.213 l 1.347,1.35 a 5.733,5.733 0 0 1 -4.2379994,1.9 5.173,5.173 0 0 1 -5.3,-5.3050002 0.248,0.248 0 0 0 -0.244,-0.245 h -1 a 0.261,0.261 0 0 0 -0.257,0.265 6.684,6.684 0 0 0 6.8,6.7850002 7.3,7.3 0 0 0 5.2999994,-2.339 l 1.357,1.36 a 0.125,0.125 0 0 0 0.214,-0.086 l 0.077,-3.972 z"
     id="path1023" /></svg>