<?xml version="1.0" encoding="UTF-8" standalone="no"?>
<svg
   width="64"
   height="64"
   version="1.1"
   id="svg8"
   sodipodi:docname="adaptive-symbolic.svg"
   inkscape:version="1.1-rc (52f87abb86, 2021-05-02)"
   xmlns:inkscape="http://www.inkscape.org/namespaces/inkscape"
   xmlns:sodipodi="http://sodipodi.sourceforge.net/DTD/sodipodi-0.dtd"
   xmlns="http://www.w3.org/2000/svg"
   xmlns:svg="http://www.w3.org/2000/svg">
  <sodipodi:namedview
     id="namedview12"
     pagecolor="#ffffff"
     bordercolor="#666666"
     borderopacity="1.0"
     objecttolerance="10.0"
     gridtolerance="10.0"
     guidetolerance="10.0"
     inkscape:pageshadow="2"
     inkscape:pageopacity="0.0"
     inkscape:pagecheckerboard="0"
     showgrid="false"
     inkscape:zoom="7.2111616"
     inkscape:cx="25.238652"
     inkscape:cy="6.379"
     inkscape:window-width="1920"
     inkscape:window-height="1011"
     inkscape:window-x="0"
     inkscape:window-y="0"
     inkscape:window-maximized="1"
     inkscape:current-layer="svg8" />
  <defs
     id="defs12" />
  <g
     id="g846"
     transform="translate(2.1401,17.4951)">
    <g
       id="g14049"
       transform="translate(-8590.5069,-2411.7412)"
       style="fill:#241f31;fill-opacity:1">
      <path
         id="path14047"
         style="color:#000000;font-style:normal;font-variant:normal;font-weight:normal;font-stretch:normal;font-size:medium;line-height:normal;font-family:sans-serif;font-variant-ligatures:normal;font-variant-position:normal;font-variant-caps:normal;font-variant-numeric:normal;font-variant-alternates:normal;font-variant-east-asian:normal;font-feature-settings:normal;font-variation-settings:normal;text-indent:0;text-align:start;text-decoration:none;text-decoration-line:none;text-decoration-style:solid;text-decoration-color:#000000;letter-spacing:normal;word-spacing:normal;text-transform:none;writing-mode:lr-tb;direction:ltr;text-orientation:mixed;dominant-baseline:auto;baseline-shift:baseline;text-anchor:start;white-space:normal;shape-padding:0;shape-margin:0;inline-size:0;clip-rule:nonzero;display:inline;overflow:visible;visibility:visible;opacity:0.986;isolation:auto;mix-blend-mode:normal;color-interpolation:sRGB;color-interpolation-filters:linearRGB;solid-color:#000000;solid-opacity:1;fill:#241f31;fill-opacity:1;fill-rule:nonzero;stroke:none;stroke-width:2.00001;stroke-linecap:round;stroke-linejoin:round;stroke-miterlimit:4;stroke-dasharray:none;stroke-dashoffset:0;stroke-opacity:1;color-rendering:auto;image-rendering:auto;shape-rendering:auto;text-rendering:auto;enable-background:accumulate;stop-color:#000000;stop-opacity:1"
         d="m 5559.5,1156 c -1.3677,0 -2.5,1.1323 -2.5,2.5 v 10 c 0,1.3678 1.1323,2.5 2.5,2.5 h 5 c 1.3677,0 2.5,-1.1322 2.5,-2.5 v -10 c 0,-1.3677 -1.1323,-2.5 -2.5,-2.5 z m 0,2 h 0.5 4 0.5 c 0.2943,0 0.5,0.2058 0.5,0.5 v 10 c 0,0.2943 -0.2057,0.5 -0.5,0.5 h -5 c -0.2943,0 -0.5,-0.2057 -0.5,-0.5 v -10 c 0,-0.2942 0.2057,-0.5 0.5,-0.5 z"
         transform="translate(3036.3713,1263.2468)"
         sodipodi:nodetypes="ssssssssssccssssssss" />
    </g>
    <rect
       style="fill:#241f31;fill-opacity:0.988235;stroke:none;stroke-width:1.99999;stroke-linecap:round;stroke-linejoin:round;stroke-dashoffset:26.4;stroke-opacity:0"
       id="rect2081"
       width="4"
       height="2"
       x="5.8644066"
       y="8.5056496"
       rx="1"
       ry="1" />
  </g>
  <path
     d="m 22.5035,26.0015 c -1.3677,0 -2.5,1.1323 -2.5,2.5 v 8.498 h 2 v -8.498 c 0,-0.2943 0.2057,-0.5 0.5,-0.5 h 11.0039 c 0.2943,0 0.5,0.2057 0.5,0.5 v 8.498 h 2 v -8.498 c 0,-1.3677 -1.1322,-2.5 -2.5,-2.5 z m -0.018,13.998 c 0.01,0 0.012,0 0.018,0 h 11.0039 c 0.01,0 0.012,0 0.018,0 z"
     style="color:#000000;font-style:normal;font-variant:normal;font-weight:normal;font-stretch:normal;font-size:medium;line-height:normal;font-family:sans-serif;font-variant-ligatures:normal;font-variant-position:normal;font-variant-caps:normal;font-variant-numeric:normal;font-variant-alternates:normal;font-variant-east-asian:normal;font-feature-settings:normal;font-variation-settings:normal;text-indent:0;text-align:start;text-decoration:none;text-decoration-line:none;text-decoration-style:solid;text-decoration-color:#000000;letter-spacing:normal;word-spacing:normal;text-transform:none;writing-mode:lr-tb;direction:ltr;text-orientation:mixed;dominant-baseline:auto;baseline-shift:baseline;text-anchor:start;white-space:normal;shape-padding:0;shape-margin:0;inline-size:0;clip-rule:nonzero;display:inline;overflow:visible;visibility:visible;opacity:0.986;isolation:auto;mix-blend-mode:normal;color-interpolation:sRGB;color-interpolation-filters:linearRGB;solid-color:#000000;solid-opacity:1;vector-effect:none;fill:#241f31;fill-opacity:1;fill-rule:nonzero;stroke:none;stroke-width:2;stroke-linecap:round;stroke-linejoin:round;stroke-miterlimit:4;stroke-dasharray:none;stroke-dashoffset:0;stroke-opacity:1;color-rendering:auto;image-rendering:auto;shape-rendering:auto;text-rendering:auto;enable-background:accumulate;stop-color:#000000"
     id="path14079" />
  <path
     d="m 18.0035,37.9995 a 2,2 0 0 0 2,2 v 0 h 16 v 0 a 2,2 0 0 0 2,-2 h -2 v 0 h -16 v 0 z"
     style="fill:#241f31;fill-opacity:1;stroke-width:2;stroke-linecap:round;stroke-linejoin:round;stroke-opacity:0.988235"
     id="path14081" />
  <path
     style="fill:#241f31;fill-opacity:1"
     d="m 56.0042,25.0001 c 1.662,0 3,1.338 3,3 v 6 c 0,1.662 -1.338,3 -3,3 h -12 c -1.662,0 -3,-1.338 -3,-3 v -6 c 0,-1.662 1.338,-3 3,-3 z m 0,2 h -12 c -0.554,0 -1,0.446 -1,1 v 6 c 0,0.554 0.446,1 1,1 h 12 c 0.554,0 1,-0.446 1,-1 v -6 c 0,-0.554 -0.446,-1 -1,-1 z"
     fill="#474747"
     id="path14083" />
  <path
     d="m 45.0042,39.9995 a 2,2 0 0 1 2,-2 v 0 h 6 v 0 a 2,2 0 0 1 2,2 h -2 v 0 h -6 v 0 z"
     style="fill:#241f31;fill-opacity:1;stroke-width:2;stroke-linecap:round;stroke-linejoin:round;stroke-opacity:0.988235"
     id="path14085" />
</svg>
