<?xml version="1.0" encoding="UTF-8"?>
<svg xmlns="http://www.w3.org/2000/svg" xmlns:xlink="http://www.w3.org/1999/xlink" width="16px" height="16px" viewBox="0 0 16 16" version="1.1">
<g id="surface25330">
<path style=" stroke:none;fill-rule:nonzero;fill:rgb(13.333334%,13.333334%,13.333334%);fill-opacity:0.501961;" d="M 11 0 C 9.621094 0 8.5 1.121094 8.5 2.5 C 8.5 3.878906 9.621094 5 11 5 C 12.378906 5 13.5 3.878906 13.5 2.5 C 13.5 1.121094 12.378906 0 11 0 Z M 9 6 C 8.117188 6 6.933594 6.585938 6.230469 7.277344 L 10.953125 12 L 15 12 C 15.554688 12 16 11.554688 16 11 L 16 9 C 16 7.339844 14.660156 6 13 6 Z M 9 6 "/>
<path style=" stroke:none;fill-rule:nonzero;fill:rgb(13.333334%,13.333334%,13.333334%);fill-opacity:1;" d="M 5 4 C 4.425781 4 3.898438 4.195312 3.476562 4.523438 L 6.980469 8.027344 C 7.304688 7.601562 7.5 7.074219 7.5 6.5 C 7.5 5.121094 6.378906 4 5 4 Z M 2.609375 5.78125 C 2.539062 6.007812 2.5 6.25 2.5 6.5 C 2.5 7.878906 3.621094 9 5 9 C 5.25 9 5.492188 8.964844 5.722656 8.894531 Z M 3 10 C 1.339844 10 0 11.339844 0 13 L 0 15 C 0 15.554688 0.445312 16 1 16 L 9 16 C 9.554688 16 10 15.554688 10 15 L 10 13.171875 L 6.828125 10 Z M 3 10 "/>
<path style=" stroke:none;fill-rule:nonzero;fill:rgb(13.333334%,13.333334%,13.333334%);fill-opacity:1;" d="M 1.53125 0.457031 L 0.46875 1.519531 L 14.46875 15.519531 L 15.53125 14.457031 Z M 1.53125 0.457031 "/>
</g>
</svg>
