<?xml version="1.0" encoding="UTF-8" standalone="no"?>
<svg
   width="16"
   height="16"
   version="1.1"
   id="svg8"
   xmlns="http://www.w3.org/2000/svg"
   xmlns:svg="http://www.w3.org/2000/svg">
  <defs
     id="defs12" />
  <g
     id="g14025"
     transform="translate(-8219.1032,-2424.2474)"
     style="fill:#294d7a;fill-opacity:1">
    <path
       id="path14021"
       fill="#474747"
       d="m 8232.1032,2425.2474 c 1.662,0 3,1.338 3,3 v 6 c 0,1.662 -1.338,3 -3,3 h -10 c -1.662,0 -3,-1.338 -3,-3 v -6 c 0,-1.662 1.338,-3 3,-3 z m 0,2 h -10 c -0.554,0 -1,0.446 -1,1 v 6 c 0,0.554 0.446,1 1,1 h 10 c 0.554,0 1,-0.446 1,-1 v -6 c 0,-0.554 -0.446,-1 -1,-1 z"
       style="fill:#241f31;fill-opacity:1" />
    <path
       id="path14023"
       style="fill:#241f31;fill-opacity:1;stroke-width:2;stroke-linecap:round;stroke-linejoin:round;stroke-opacity:0.988235"
       d="m 8222.1032,2440.2468 a 2,2 0 0 1 2,-2 v 0 h 6 v 0 a 2,2 0 0 1 2,2 h -2 v 0 h -6 v 0 z" />
  </g>
</svg>
