<svg height="16" width="16" xmlns="http://www.w3.org/2000/svg"><path style="fill:#2e3436" d="m1.531.469-1.06 1.06L2.85 3.91l1.41 1.418a.985.985 0 0 1 .005-.004L5.94 7h-.003L9 10.063v-.004l.941.941h-.004l1.868 1.867h.004l2.662 2.662 1.06-1.06-2.396-2.397c.53-.537.861-1.268.861-2.076A3.01 3.01 0 0 0 11 7H9V5h4V3H9V1H7v2H5c-.281 0-.557.042-.82.117L1.53.47zM6.063 5H7v.938L6.062 5zm-3.97.277A2.99 2.99 0 0 0 5 8.992v.012h.82L2.094 5.277zM10.064 9H11a.98.98 0 0 1 .996.996.994.994 0 0 1-.26.678L10.062 9zM7 10.184V11H3v2h4v2h2v-2h.82L7 10.184z"/></svg>