<?xml version="1.0" encoding="UTF-8"?>
<svg height="128px" viewBox="0 0 128 128" width="128px" xmlns="http://www.w3.org/2000/svg" xmlns:xlink="http://www.w3.org/1999/xlink">
    <radialGradient id="a" cx="64" cy="40" gradientUnits="userSpaceOnUse" r="60">
        <stop offset="0" stop-color="#f8e45c"/>
        <stop offset="1" stop-color="#f5c211"/>
    </radialGradient>
    <linearGradient id="b" gradientUnits="userSpaceOnUse">
        <stop offset="0" stop-color="#f66151"/>
        <stop offset="0.6" stop-color="#e6272f"/>
        <stop offset="1" stop-color="#e01b24"/>
    </linearGradient>
    <radialGradient id="c" cx="52" cy="29.856375" gradientTransform="matrix(0.776974 0 0 0.621716 11.597331 20.590141)" r="16.084499" xlink:href="#b"/>
    <radialGradient id="d" cx="52" cy="29.856375" gradientTransform="matrix(0.776974 0 0 0.621716 51.597511 20.590141)" r="16.084499" xlink:href="#b"/>
    <path d="m 124 64 c 0 33.136719 -26.863281 60 -60 60 s -60 -26.863281 -60 -60 s 26.863281 -60 60 -60 s 60 26.863281 60 60 z m 0 0" fill="url(#a)"/>
    <path d="m 123.824219 59.539062 c -1.871094 31.679688 -28.089844 56.421876 -59.824219 56.460938 c -31.402344 -0.003906 -57.488281 -24.222656 -59.824219 -55.539062 c -0.09375 1.175781 -0.152343 2.359374 -0.175781 3.539062 c 0 33.136719 26.863281 60 60 60 s 60 -26.863281 60 -60 c -0.003906 -1.488281 -0.0625 -2.976562 -0.175781 -4.460938 z m 0 0" fill="#e5a50a"/>
    <path d="m 71.632812 64.992188 c 0 2.503906 -1.457031 4.816406 -3.816406 6.066406 c -2.363281 1.253906 -5.269531 1.253906 -7.632812 0 c -2.359375 -1.25 -3.816406 -3.5625 -3.816406 -6.066406" fill="none" stroke="#3d3846" stroke-linecap="round" stroke-linejoin="round" stroke-width="4"/>
    <path d="m 51.910156 31.996094 c -2.082031 0.058594 -4.0625 0.929687 -5.515625 2.425781 l -2.34375 2.34375 l -2.34375 -2.34375 c -1.507812 -1.546875 -3.578125 -2.421875 -5.738281 -2.421875 c -3.257812 0 -6.1875 1.976562 -7.414062 4.992188 c -1.222657 3.019531 -0.496094 6.476562 1.839843 8.746093 l 10.832031 10.832031 v -0.007812 c 1.5625 1.5625 4.09375 1.5625 5.65625 0 l 10.824219 -10.824219 c 2.371094 -2.296875 3.085938 -5.8125 1.804688 -8.855469 c -1.285157 -3.039062 -4.300781 -4.980468 -7.601563 -4.886718 z m 0 0" fill="url(#c)"/>
    <path d="m 91.914062 31.996094 c -2.085937 0.058594 -4.066406 0.929687 -5.519531 2.425781 l -2.34375 2.34375 l -2.34375 -2.34375 c -1.507812 -1.546875 -3.578125 -2.421875 -5.738281 -2.421875 c -3.257812 0 -6.1875 1.976562 -7.410156 4.992188 c -1.226563 3.019531 -0.5 6.476562 1.835937 8.746093 l 10.832031 10.832031 v -0.007812 c 1.5625 1.5625 4.09375 1.5625 5.65625 0 l 10.824219 -10.824219 c 2.371094 -2.296875 3.085938 -5.8125 1.804688 -8.855469 c -1.285157 -3.039062 -4.300781 -4.980468 -7.597657 -4.886718 z m 0 0" fill="url(#d)"/>
    <g fill="#c01c28">
        <path d="m 28.121094 38.492188 c -0.511719 2.644531 0.34375 5.367187 2.273437 7.246093 l 10.832031 10.832031 v -0.007812 c 1.5625 1.5625 4.09375 1.5625 5.65625 0 l 10.824219 -10.824219 c 1.933594 -1.875 2.792969 -4.597656 2.285157 -7.246093 c -0.308594 1.617187 -1.105469 3.101562 -2.285157 4.246093 l -10.824219 10.824219 c -1.5625 1.5625 -4.09375 1.5625 -5.65625 0 v 0.007812 l -10.832031 -10.832031 c -1.175781 -1.148437 -1.972656 -2.628906 -2.273437 -4.246093 z m 0 0"/>
        <path d="m 68.121094 38.492188 c -0.511719 2.644531 0.34375 5.367187 2.273437 7.246093 l 10.832031 10.832031 v -0.007812 c 1.5625 1.5625 4.09375 1.5625 5.65625 0 l 10.824219 -10.824219 c 1.933594 -1.875 2.792969 -4.597656 2.285157 -7.246093 c -0.308594 1.617187 -1.105469 3.101562 -2.285157 4.246093 l -10.824219 10.824219 c -1.5625 1.5625 -4.09375 1.5625 -5.65625 0 v 0.007812 l -10.832031 -10.832031 c -1.175781 -1.148437 -1.972656 -2.628906 -2.273437 -4.246093 z m 0 0"/>
    </g>
</svg>
