<?xml version="1.0" encoding="UTF-8"?>
<svg height="128px" viewBox="0 0 128 128" width="128px" xmlns="http://www.w3.org/2000/svg" xmlns:xlink="http://www.w3.org/1999/xlink">
    <linearGradient id="a" gradientUnits="userSpaceOnUse" x1="20.00001801213" x2="108.00010899163" y1="88.00001906939" y2="88.00001906939">
        <stop offset="0" stop-color="#1a5fb4"/>
        <stop offset="0.0340909" stop-color="#1c71d8"/>
        <stop offset="0.0681818" stop-color="#3584e4"/>
        <stop offset="0.931818" stop-color="#3584e4"/>
        <stop offset="0.965909" stop-color="#1c71d8"/>
        <stop offset="1" stop-color="#1a5fb4"/>
    </linearGradient>
    <linearGradient id="b" gradientTransform="matrix(0.272543 0 0 0.295903 1.85959 50.447067)" gradientUnits="userSpaceOnUse" x1="88.574776" x2="367.430145" y1="1.578945" y2="1.578945">
        <stop offset="0" stop-color="#1a5fb4"/>
        <stop offset="0.0263158" stop-color="#3584e4"/>
        <stop offset="0.973324" stop-color="#3584e4"/>
        <stop offset="1" stop-color="#1a5fb4"/>
    </linearGradient>
    <path d="m 28.722656 44 h 70.554688 c 4.816406 0 8.722656 3.90625 8.722656 8.722656 v 58.554688 c 0 4.816406 -3.90625 8.722656 -8.722656 8.722656 h -70.554688 c -4.816406 0 -8.722656 -3.90625 -8.722656 -8.722656 v -58.554688 c 0 -4.816406 3.90625 -8.722656 8.722656 -8.722656 z m 0 0" fill="url(#a)"/>
    <path d="m 28.722656 8 h 70.554688 c 4.816406 0 8.722656 3.90625 8.722656 8.722656 v 70.554688 c 0 4.816406 -3.90625 8.722656 -8.722656 8.722656 h -70.554688 c -4.816406 0 -8.722656 -3.90625 -8.722656 -8.722656 v -70.554688 c 0 -4.816406 3.90625 -8.722656 8.722656 -8.722656 z m 0 0" fill="#62a0ea"/>
    <path d="m 48 80 h 32 c 2.210938 0 4 1.789062 4 4 v 22 c 0 2.210938 -1.789062 4 -4 4 h -32 c -2.210938 0 -4 -1.789062 -4 -4 v -22 c 0 -2.210938 1.789062 -4 4 -4 z m 0 0" fill="#62a0ea"/>
    <path d="m 30 14 h 68 c 2.210938 0 4 1.789062 4 4 v 68 c 0 2.210938 -1.789062 4 -4 4 h -68 c -2.210938 0 -4 -1.789062 -4 -4 v -68 c 0 -2.210938 1.789062 -4 4 -4 z m 0 0" fill="url(#b)"/>
    <path d="m 48 84 h 32 c 2.210938 0 4 1.789062 4 4 v 12 c 0 2.210938 -1.789062 4 -4 4 h -32 c -2.210938 0 -4 -1.789062 -4 -4 v -12 c 0 -2.210938 1.789062 -4 4 -4 z m 0 0" fill="#deddda"/>
    <path d="m 30.203125 20 c -1.203125 0 -2.179687 1.03125 -2.179687 2.304688 l -0.0625 66.773437 s 1.039062 0.582031 2.039062 0.582031 h 14 v 6.339844 h 40 v -6.339844 h 14 c 1 0 2.011719 -0.566406 2.011719 -0.566406 l -0.066407 -66.789062 c 0 -1.273438 -0.976562 -2.304688 -2.179687 -2.304688 z m 0 0" fill="#ffffff"/>
    <path d="m 40 68 l 6 6 l 10 -10" fill="none" stroke="#3d3846" stroke-width="4"/>
    <path d="m 64 40 h 24 v 4 h -24 z m 0 0" fill="#c0bfbc"/>
    <path d="m 64 68 h 24 v 4 h -24 z m 0 0" fill="#c0bfbc"/>
    <path d="m 40 40 l 6 6 l 10 -10" fill="none" stroke="#3d3846" stroke-width="4"/>
</svg>
