<?xml version="1.0" encoding="UTF-8"?>
<svg height="128px" viewBox="0 0 128 128" width="128px" xmlns="http://www.w3.org/2000/svg" xmlns:xlink="http://www.w3.org/1999/xlink">
    <linearGradient id="a" gradientUnits="userSpaceOnUse">
        <stop offset="0" stop-color="#9a9996"/>
        <stop offset="1" stop-color="#9a9996" stop-opacity="0"/>
    </linearGradient>
    <linearGradient id="b" gradientTransform="matrix(0 -1.333333 -1.333333 0 414.662385 134.674892)" x1="38" x2="50" xlink:href="#a" y1="248" y2="248"/>
    <linearGradient id="c" gradientTransform="matrix(0 -1.333333 -1.333333 0 374.778504 134.674892)" x1="38" x2="50" xlink:href="#a" y1="248" y2="248"/>
    <path d="m 89.175781 41.980469 l 6.082031 7.5625 l 22.648438 -4.671875 l 9.875 47.90625 c 1.488281 7.234375 -2.171875 14.546875 -8.851562 17.695312 c -6.679688 3.148438 -14.648438 1.316406 -19.28125 -4.433594 l -35.40625 -44 z m 0 0" fill="#deddda"/>
    <path d="m 39.175781 41.980469 l -6.082031 7.5625 l -22.648438 -4.671875 l -9.875 47.90625 c -1.488281 7.234375 2.171876 14.546875 8.851563 17.695312 c 6.679687 3.148438 14.648437 1.316406 19.28125 -4.433594 l 35.40625 -44 z m 0 0" fill="#deddda"/>
    <path d="m 41.113281 28.007812 h 46 v 32 h -46 z m 0 0" fill="#deddda"/>
    <path d="m 60.445312 59.289062 l -31.984374 39.75 c -3.859376 4.78125 -10.117188 6.929688 -16.101563 5.527344 s -10.632813 -6.105468 -11.96875 -12.105468 l -0.066406 0.316406 c -1.484375 7.234375 2.171875 14.546875 8.855469 17.695312 c 6.679687 3.148438 14.648437 1.316406 19.28125 -4.433594 l 35.402343 -44 z m 7.101563 0 l -3.421875 2.75 l 35.40625 44 c 4.632812 5.75 12.601562 7.582032 19.28125 4.433594 c 6.683594 -3.148437 10.339844 -10.460937 8.851562 -17.695312 l -0.0625 -0.316406 c -1.335937 6 -5.988281 10.703124 -11.96875 12.105468 c -5.984374 1.402344 -12.242187 -0.746094 -16.101562 -5.527344 z m 0 0" fill="#5e5c64" fill-opacity="0.235294"/>
    <g fill="#c0bfbc">
        <path d="m 54.113281 49.007812 c 0 12.152344 -9.851562 22 -22 22 c -12.152343 0 -22 -9.847656 -22 -22 c 0 -12.148437 9.847657 -22 22 -22 c 12.148438 0 22 9.851563 22 22 z m 0 0"/>
        <path d="m 46.113281 32.007812 h 36 v 52 h -36 z m 0 0"/>
        <path d="m 118.113281 49.007812 c 0 12.152344 -9.851562 22 -22 22 c -12.152343 0 -22 -9.847656 -22 -22 c 0 -12.148437 9.847657 -22 22 -22 c 12.148438 0 22 9.851563 22 22 z m 0 0"/>
        <path d="m 57.996094 80.007812 c 0 7.667969 -6.214844 13.882813 -13.882813 13.882813 s -13.886719 -6.214844 -13.886719 -13.882813 c 0 -7.667968 6.21875 -13.882812 13.886719 -13.882812 s 13.882813 6.214844 13.882813 13.882812 z m 0 0"/>
        <path d="m 97.996094 80.007812 c 0 7.667969 -6.214844 13.882813 -13.882813 13.882813 s -13.886719 -6.214844 -13.886719 -13.882813 c 0 -7.667968 6.21875 -13.882812 13.886719 -13.882812 s 13.882813 6.214844 13.882813 13.882812 z m 0 0"/>
    </g>
    <path d="m 46.113281 32.007812 h 36 v 48 h -36 z m 0 0" fill="#f6f5f4"/>
    <path d="m 57.996094 78.007812 c 0 7.667969 -6.214844 13.882813 -13.882813 13.882813 s -13.886719 -6.214844 -13.886719 -13.882813 c 0 -7.667968 6.21875 -13.882812 13.886719 -13.882812 s 13.882813 6.214844 13.882813 13.882812 z m 0 0" fill="#f6f5f4"/>
    <path d="m 97.996094 78.007812 c 0 7.667969 -6.214844 13.882813 -13.882813 13.882813 s -13.886719 -6.214844 -13.886719 -13.882813 c 0 -7.667968 6.21875 -13.882812 13.886719 -13.882812 s 13.882813 6.214844 13.882813 13.882812 z m 0 0" fill="#f6f5f4"/>
    <path d="m 54.113281 47.007812 c 0 12.152344 -9.851562 22 -22 22 c -12.152343 0 -22 -9.847656 -22 -22 c 0 -12.148437 9.847657 -22 22 -22 c 12.148438 0 22 9.851563 22 22 z m 0 0" fill="#f6f5f4"/>
    <path d="m 118.113281 47.007812 c 0 12.152344 -9.851562 22 -22 22 c -12.152343 0 -22 -9.847656 -22 -22 c 0 -12.148437 9.847657 -22 22 -22 c 12.148438 0 22 9.851563 22 22 z m 0 0" fill="#f6f5f4"/>
    <path d="m 29.996094 36.007812 c -1.109375 0 -2 0.890626 -2 2 v 6 h -6 c -1.109375 0 -2 0.890626 -2 2 v 4 c 0 1.109376 0.890625 2 2 2 h 6 v 6 c 0 1.109376 0.890625 2 2 2 h 4 c 1.109375 0 2 -0.890624 2 -2 v -6 h 6 c 1.109375 0 2 -0.890624 2 -2 v -4 c 0 -1.109374 -0.890625 -2 -2 -2 h -6 v -6 c 0 -1.109374 -0.890625 -2 -2 -2 z m 0 0" fill="#3d3846"/>
    <path d="m 29.996094 34.007812 c -1.109375 0 -2 0.890626 -2 2 v 6 h -6 c -1.109375 0 -2 0.890626 -2 2 v 4 c 0 1.109376 0.890625 2 2 2 h 6 v 6 c 0 1.109376 0.890625 2 2 2 h 4 c 1.109375 0 2 -0.890624 2 -2 v -6 h 6 c 1.109375 0 2 -0.890624 2 -2 v -4 c 0 -1.109374 -0.890625 -2 -2 -2 h -6 v -6 c 0 -1.109374 -0.890625 -2 -2 -2 z m 0 0" fill="#5e5c64"/>
    <path d="m 109.996094 50.007812 v 2 c 0 3.324219 -2.675782 6 -6 6 c -3.324219 0 -6 -2.675781 -6 -6 v -2 z m 0 0" fill="#c01c28"/>
    <path d="m 97.996094 50.007812 c 0 3.3125 2.6875 6 6 6 s 6 -2.6875 6 -6 s -2.6875 -6 -6 -6 s -6 2.6875 -6 6 z m 0 0" fill="#ed333b"/>
    <path d="m 93.996094 42.007812 v 2 c 0 3.324219 -2.675782 6 -6 6 c -3.324219 0 -6 -2.675781 -6 -6 v -2 z m 0 0" fill="#1a5fb4"/>
    <path d="m 81.996094 42.007812 c 0 3.3125 2.6875 6 6 6 s 6 -2.6875 6 -6 s -2.6875 -6 -6 -6 s -6 2.6875 -6 6 z m 0 0" fill="#3584e4"/>
    <path d="m 54.113281 78.007812 c 0 5.523438 -4.480469 10 -10 10 c -5.523437 0 -10 -4.476562 -10 -10 c 0 -5.523437 4.476563 -10 10 -10 c 5.519531 0 10 4.476563 10 10 z m 0 0" fill="#241f31"/>
    <path d="m 94.113281 78.007812 c 0 5.523438 -4.480469 10 -10 10 c -5.523437 0 -10 -4.476562 -10 -10 c 0 -5.523437 4.476563 -10 10 -10 c 5.519531 0 10 4.476563 10 10 z m 0 0" fill="#241f31"/>
    <path d="m 54.113281 76.007812 c 0 5.523438 -4.480469 10 -10 10 c -5.523437 0 -10 -4.476562 -10 -10 c 0 -5.523437 4.476563 -10 10 -10 c 5.519531 0 10 4.476563 10 10 z m 0 0" fill="#3d3846"/>
    <path d="m 94.113281 76.007812 c 0 5.523438 -4.480469 10 -10 10 c -5.523437 0 -10 -4.476562 -10 -10 c 0 -5.523437 4.476563 -10 10 -10 c 5.519531 0 10 4.476563 10 10 z m 0 0" fill="#3d3846"/>
    <path d="m 83.996094 68.007812 c -4.417969 0 -8 3.582032 -8 8 c 0 4.417969 3.582031 8 8 8 c 4.417968 0 8 -3.582031 8 -8 c 0 -4.417968 -3.582032 -8 -8 -8 z m 0 0" fill="url(#b)"/>
    <path d="m 44.113281 68.007812 c -4.417969 0 -8 3.582032 -8 8 c 0 4.417969 3.582031 8 8 8 s 8 -3.582031 8 -8 c 0 -4.417968 -3.582031 -8 -8 -8 z m 0 0" fill="url(#c)"/>
</svg>
