<?xml version="1.0" encoding="UTF-8" standalone="no"?>
<svg
   width="16"
   height="16"
   version="1.1"
   id="svg8"
   xmlns="http://www.w3.org/2000/svg"
   xmlns:svg="http://www.w3.org/2000/svg">
  <defs
     id="defs12" />
  <g
     id="g14049"
     transform="translate(-8590.3713,-2418.2468)"
     style="fill:#241f31;fill-opacity:1">
    <path
       id="path14047"
       style="color:#000000;font-style:normal;font-variant:normal;font-weight:normal;font-stretch:normal;font-size:medium;line-height:normal;font-family:sans-serif;font-variant-ligatures:normal;font-variant-position:normal;font-variant-caps:normal;font-variant-numeric:normal;font-variant-alternates:normal;font-variant-east-asian:normal;font-feature-settings:normal;font-variation-settings:normal;text-indent:0;text-align:start;text-decoration:none;text-decoration-line:none;text-decoration-style:solid;text-decoration-color:#000000;letter-spacing:normal;word-spacing:normal;text-transform:none;writing-mode:lr-tb;direction:ltr;text-orientation:mixed;dominant-baseline:auto;baseline-shift:baseline;text-anchor:start;white-space:normal;shape-padding:0;shape-margin:0;inline-size:0;clip-rule:nonzero;display:inline;overflow:visible;visibility:visible;opacity:0.986;isolation:auto;mix-blend-mode:normal;color-interpolation:sRGB;color-interpolation-filters:linearRGB;solid-color:#000000;solid-opacity:1;fill:#241f31;fill-opacity:1;fill-rule:nonzero;stroke:none;stroke-width:2.00001;stroke-linecap:round;stroke-linejoin:round;stroke-miterlimit:4;stroke-dasharray:none;stroke-dashoffset:0;stroke-opacity:1;color-rendering:auto;image-rendering:auto;shape-rendering:auto;text-rendering:auto;enable-background:accumulate;stop-color:#000000;stop-opacity:1"
       d="m 5559.5,1156 c -1.3677,0 -2.5,1.1323 -2.5,2.5 v 10 c 0,1.3678 1.1323,2.5 2.5,2.5 h 5 c 1.3677,0 2.5,-1.1322 2.5,-2.5 v -10 c 0,-1.3677 -1.1323,-2.5 -2.5,-2.5 z m 0,2 h 0.5 4 0.5 c 0.2943,0 0.5,0.2058 0.5,0.5 v 10 c 0,0.2943 -0.2057,0.5 -0.5,0.5 h -5 c -0.2943,0 -0.5,-0.2057 -0.5,-0.5 v -10 c 0,-0.2942 0.2057,-0.5 0.5,-0.5 z"
       transform="translate(3036.3713,1263.2468)" />
  </g>
  <rect
     style="fill:#241f31;fill-opacity:0.988235;stroke:none;stroke-width:1.99999;stroke-linecap:round;stroke-linejoin:round;stroke-dashoffset:26.4;stroke-opacity:0"
     id="rect2081"
     width="4"
     height="2"
     x="6"
     y="2"
     rx="1"
     ry="1" />
</svg>
