<?xml version="1.0" encoding="UTF-8" standalone="no"?>
<svg
   width="16"
   height="16"
   version="1.1"
   id="svg8"
   xmlns="http://www.w3.org/2000/svg"
   xmlns:svg="http://www.w3.org/2000/svg">
  <defs
     id="defs12" />
  <g
     color="#bebebe"
     fill="#474747"
     id="g6">
    <path
       d="M2 1v7c0 2.072 1.498 3.695 2.832 4.889a18.66 18.66 0 002.66 1.972l.516.305.512-.31s1.32-.8 2.65-2.002C12.5 11.65 14 10.044 14 8V1zm2 2h8v5c0 .92-1 2.313-2.17 3.37-.913.825-1.477 1.154-1.836 1.386-.358-.226-.918-.543-1.828-1.358C5 10.355 4 8.98 4 8z"
       style="line-height:normal;font-variant-ligatures:normal;font-variant-position:normal;font-variant-caps:normal;font-variant-numeric:normal;font-variant-alternates:normal;font-feature-settings:normal;text-indent:0;text-align:start;text-decoration-line:none;text-decoration-style:solid;text-decoration-color:#000;text-transform:none;text-orientation:mixed;shape-padding:0;isolation:auto;mix-blend-mode:normal;marker:none;fill:#241f31"
       font-weight="400"
       font-family="sans-serif"
       overflow="visible"
       id="path2" />
  </g>
  <g
     id="path8562"
     style="fill:#241f31">
    <path
       style="color:#000000;fill:#241f31;fill-opacity:0;stroke-width:2;-inkscape-stroke:none"
       d="M 5.5,6.5 8,9 13,4"
       id="path845" />
    <path
       style="color:#000000;fill:#241f31;-inkscape-stroke:none"
       d="M 12.292969,3.2929688 8,7.5859375 6.2070312,5.7929687 4.7929687,7.2070312 8,10.414063 13.707031,4.7070312 Z"
       id="path847" />
  </g>
</svg>
