<?xml version="1.0" encoding="UTF-8" standalone="no"?>
<svg
   width="16"
   height="16"
   version="1.1"
   id="svg1"
   xmlns="http://www.w3.org/2000/svg"
   xmlns:svg="http://www.w3.org/2000/svg">
  <defs
     id="defs1" />
  <path
     style="color:#000000;fill:#000000;stroke-linecap:round;stroke-linejoin:round;-inkscape-stroke:none"
     d="M 2,1 C 1.4477381,1.0000552 1.0000552,1.4477381 1,2 v 6 c 0,1.8333315 0.8798961,3.57379 2.125,4.984375 1.2451039,1.410585 2.8756812,2.51631 4.6152344,2.982422 0.1701533,0.04577 0.3493779,0.04577 0.5195312,0 C 9.9993188,15.500685 11.629896,14.39496 12.875,12.984375 14.120104,11.57379 15,9.8333315 15,8 V 2 C 14.999945,1.4477381 14.552262,1.0000552 14,1 Z m 1,2 h 10 v 5 c 0,1.1666655 -0.620106,2.523659 -1.625,3.662109 C 10.438202,12.723413 9.1866952,13.530021 8,13.914063 6.8133048,13.530021 5.5617981,12.723413 4.625,11.662109 3.6201062,10.523659 3,9.1666655 3,8 Z"
     id="path2" />
  <path
     style="color:#000000;fill:#000000;stroke-linecap:round;stroke-linejoin:round;-inkscape-stroke:none"
     d="m 14,3 c -0.265201,4.01e-5 -0.519526,0.1054233 -0.707031,0.2929688 L 8,8.5859375 6.2070312,6.7929687 c -0.390507,-0.3904235 -1.0235554,-0.3904235 -1.4140625,0 -0.3904235,0.3905071 -0.3904235,1.0235555 0,1.4140626 l 2.5,2.4999997 c 0.3905299,0.390368 1.0235327,0.390368 1.4140626,0 L 14.707031,4.7070312 c 0.390424,-0.390507 0.390424,-1.0235554 0,-1.4140624 C 14.519526,3.1054233 14.265201,3.0000401 14,3 Z"
     id="path3" />
</svg>
