<?xml version="1.0" encoding="UTF-8"?>
<svg height="128px" viewBox="0 0 128 128" width="128px" xmlns="http://www.w3.org/2000/svg" xmlns:xlink="http://www.w3.org/1999/xlink">
    <linearGradient id="a" gradientUnits="userSpaceOnUse" x1="8.157114" x2="122.745697" y1="77.241079" y2="77.241079">
        <stop offset="0" stop-color="#99c1f1"/>
        <stop offset="0.0575141" stop-color="#1a5fb4"/>
        <stop offset="0.388232" stop-color="#1a5fb4"/>
        <stop offset="0.473021" stop-color="#2b7be0"/>
        <stop offset="0.618795" stop-color="#154d91"/>
        <stop offset="0.953538" stop-color="#1a5fb4"/>
        <stop offset="1" stop-color="#2f7fe1"/>
    </linearGradient>
    <clipPath id="b">
        <path d="m 6 1 h 117 v 118 h -117 z m 0 0"/>
    </clipPath>
    <clipPath id="c">
        <path d="m 70.335938 115.847656 l 50.097656 -50.097656 c 3.253906 -3.253906 3.253906 -8.53125 0 -11.785156 l -50.097656 -50.101563 c -3.253907 -3.253906 -8.535157 -3.253906 -11.789063 0 l -50.097656 50.101563 c -3.253907 3.253906 -3.253907 8.53125 0 11.785156 l 50.097656 50.097656 c 3.253906 3.257813 8.535156 3.257813 11.789063 0 z m 0 0"/>
    </clipPath>
    <path d="m 70.40625 119.546875 l 50.207031 -50.207031 c 1.660157 -1.660156 2.574219 -3.839844 2.453125 -6.003906 l -0.140625 -3.058594 l -52.519531 -52.953125 c -3.257812 -3.289063 -8.394531 -3.121094 -11.8125 0 l -52.550781 52.996093 l -0.042969 3.144532 c -0.027344 2.125 0.761719 4.246094 2.390625 5.875 l 50.203125 50.207031 c 3.273438 3.269531 8.542969 3.269531 11.8125 0 z m 0 0" fill="url(#a)"/>
    <g clip-path="url(#b)">
        <g clip-path="url(#c)">
            <path d="m 70.335938 115.847656 l 50.097656 -50.097656 c 3.253906 -3.253906 3.253906 -8.53125 0 -11.785156 l -50.097656 -50.101563 c -3.253907 -3.253906 -8.535157 -3.253906 -11.789063 0 l -50.097656 50.101563 c -3.253907 3.253906 -3.253907 8.53125 0 11.785156 l 50.097656 50.097656 c 3.253906 3.257813 8.535156 3.257813 11.789063 0 z m 0 0" fill="#62a0ea"/>
        </g>
    </g>
    <g fill="#99c1f1">
        <path d="m 48 82 h 32 v 8 h -32 z m 0 0"/>
        <path d="m 52 66 h 8 v 8 h -8 z m 0 0"/>
        <path d="m 68 66 h 8 v 8 h -8 z m 0 0"/>
        <path d="m 84 66 h 8 v 8 h -8 z m 0 0"/>
        <path d="m 36 66 h 8 v 8 h -8 z m 0 0"/>
        <path d="m 44 50 h 8 v 8 h -8 z m 0 0"/>
        <path d="m 60 50 h 8 v 8 h -8 z m 0 0"/>
        <path d="m 76 50 h 8 v 8 h -8 z m 0 0"/>
        <path d="m 28 50 h 8 v 8 h -8 z m 0 0"/>
        <path d="m 92 50 h 8 v 8 h -8 z m 0 0"/>
    </g>
</svg>
