<?xml version="1.0" encoding="UTF-8"?>
<svg height="128px" viewBox="0 0 128 128" width="128px" xmlns="http://www.w3.org/2000/svg" xmlns:xlink="http://www.w3.org/1999/xlink">
    <linearGradient id="a" gradientUnits="userSpaceOnUse" x1="8.157114" x2="122.745697" y1="77.241079" y2="77.241079">
        <stop offset="0" stop-color="#99c1f1"/>
        <stop offset="0.0575141" stop-color="#1a5fb4"/>
        <stop offset="0.388232" stop-color="#1a5fb4"/>
        <stop offset="0.473021" stop-color="#2b7be0"/>
        <stop offset="0.618795" stop-color="#154d91"/>
        <stop offset="0.953538" stop-color="#1a5fb4"/>
        <stop offset="1" stop-color="#2f7fe1"/>
    </linearGradient>
    <clipPath id="b">
        <path d="m 6 1 h 117 v 118 h -117 z m 0 0"/>
    </clipPath>
    <clipPath id="c">
        <path d="m 70.335938 115.847656 l 50.097656 -50.097656 c 3.253906 -3.253906 3.253906 -8.53125 0 -11.785156 l -50.097656 -50.101563 c -3.253907 -3.253906 -8.535157 -3.253906 -11.789063 0 l -50.097656 50.101563 c -3.253907 3.253906 -3.253907 8.53125 0 11.785156 l 50.097656 50.097656 c 3.253906 3.257813 8.535156 3.257813 11.789063 0 z m 0 0"/>
    </clipPath>
    <clipPath id="d">
        <path d="m 18 41 h 57 v 57 h -57 z m 0 0"/>
    </clipPath>
    <clipPath id="e">
        <path d="m 70.335938 115.847656 l 50.097656 -50.097656 c 3.253906 -3.253906 3.253906 -8.53125 0 -11.785156 l -50.097656 -50.101563 c -3.253907 -3.253906 -8.535157 -3.253906 -11.789063 0 l -50.097656 50.101563 c -3.253907 3.253906 -3.253907 8.53125 0 11.785156 l 50.097656 50.097656 c 3.253906 3.257813 8.535156 3.257813 11.789063 0 z m 0 0"/>
    </clipPath>
    <clipPath id="f">
        <path d="m 36 59 h 56 v 56 h -56 z m 0 0"/>
    </clipPath>
    <clipPath id="g">
        <path d="m 70.335938 115.847656 l 50.097656 -50.097656 c 3.253906 -3.253906 3.253906 -8.53125 0 -11.785156 l -50.097656 -50.101563 c -3.253907 -3.253906 -8.535157 -3.253906 -11.789063 0 l -50.097656 50.101563 c -3.253907 3.253906 -3.253907 8.53125 0 11.785156 l 50.097656 50.097656 c 3.253906 3.257813 8.535156 3.257813 11.789063 0 z m 0 0"/>
    </clipPath>
    <clipPath id="h">
        <path d="m 48 47 h 56 v 56 h -56 z m 0 0"/>
    </clipPath>
    <clipPath id="i">
        <path d="m 70.335938 115.847656 l 50.097656 -50.097656 c 3.253906 -3.253906 3.253906 -8.53125 0 -11.785156 l -50.097656 -50.101563 c -3.253907 -3.253906 -8.535157 -3.253906 -11.789063 0 l -50.097656 50.101563 c -3.253907 3.253906 -3.253907 8.53125 0 11.785156 l 50.097656 50.097656 c 3.253906 3.257813 8.535156 3.257813 11.789063 0 z m 0 0"/>
    </clipPath>
    <clipPath id="j">
        <path d="m 17 48 h 68 v 69 h -68 z m 0 0"/>
    </clipPath>
    <clipPath id="k">
        <path d="m 70.335938 115.847656 l 50.097656 -50.097656 c 3.253906 -3.253906 3.253906 -8.53125 0 -11.785156 l -50.097656 -50.101563 c -3.253907 -3.253906 -8.535157 -3.253906 -11.789063 0 l -50.097656 50.101563 c -3.253907 3.253906 -3.253907 8.53125 0 11.785156 l 50.097656 50.097656 c 3.253906 3.257813 8.535156 3.257813 11.789063 0 z m 0 0"/>
    </clipPath>
    <clipPath id="l">
        <path d="m 68 27 h 55 v 56 h -55 z m 0 0"/>
    </clipPath>
    <clipPath id="m">
        <path d="m 70.335938 115.847656 l 50.097656 -50.097656 c 3.253906 -3.253906 3.253906 -8.53125 0 -11.785156 l -50.097656 -50.101563 c -3.253907 -3.253906 -8.535157 -3.253906 -11.789063 0 l -50.097656 50.101563 c -3.253907 3.253906 -3.253907 8.53125 0 11.785156 l 50.097656 50.097656 c 3.253906 3.257813 8.535156 3.257813 11.789063 0 z m 0 0"/>
    </clipPath>
    <clipPath id="n">
        <path d="m 48 28 h 34 v 34 h -34 z m 0 0"/>
    </clipPath>
    <clipPath id="o">
        <path d="m 70.335938 115.847656 l 50.097656 -50.097656 c 3.253906 -3.253906 3.253906 -8.53125 0 -11.785156 l -50.097656 -50.101563 c -3.253907 -3.253906 -8.535157 -3.253906 -11.789063 0 l -50.097656 50.101563 c -3.253907 3.253906 -3.253907 8.53125 0 11.785156 l 50.097656 50.097656 c 3.253906 3.257813 8.535156 3.257813 11.789063 0 z m 0 0"/>
    </clipPath>
    <clipPath id="p">
        <path d="m 45 44 h 21 v 21 h -21 z m 0 0"/>
    </clipPath>
    <clipPath id="q">
        <path d="m 70.335938 115.847656 l 50.097656 -50.097656 c 3.253906 -3.253906 3.253906 -8.53125 0 -11.785156 l -50.097656 -50.101563 c -3.253907 -3.253906 -8.535157 -3.253906 -11.789063 0 l -50.097656 50.101563 c -3.253907 3.253906 -3.253907 8.53125 0 11.785156 l 50.097656 50.097656 c 3.253906 3.257813 8.535156 3.257813 11.789063 0 z m 0 0"/>
    </clipPath>
    <clipPath id="r">
        <path d="m 65 24 h 21 v 21 h -21 z m 0 0"/>
    </clipPath>
    <clipPath id="s">
        <path d="m 70.335938 115.847656 l 50.097656 -50.097656 c 3.253906 -3.253906 3.253906 -8.53125 0 -11.785156 l -50.097656 -50.101563 c -3.253907 -3.253906 -8.535157 -3.253906 -11.789063 0 l -50.097656 50.101563 c -3.253907 3.253906 -3.253907 8.53125 0 11.785156 l 50.097656 50.097656 c 3.253906 3.257813 8.535156 3.257813 11.789063 0 z m 0 0"/>
    </clipPath>
    <clipPath id="t">
        <path d="m 51 24 h 35 v 35 h -35 z m 0 0"/>
    </clipPath>
    <clipPath id="u">
        <path d="m 70.335938 115.847656 l 50.097656 -50.097656 c 3.253906 -3.253906 3.253906 -8.53125 0 -11.785156 l -50.097656 -50.101563 c -3.253907 -3.253906 -8.535157 -3.253906 -11.789063 0 l -50.097656 50.101563 c -3.253907 3.253906 -3.253907 8.53125 0 11.785156 l 50.097656 50.097656 c 3.253906 3.257813 8.535156 3.257813 11.789063 0 z m 0 0"/>
    </clipPath>
    <clipPath id="v">
        <path d="m 64 28 h 15 v 15 h -15 z m 0 0"/>
    </clipPath>
    <clipPath id="w">
        <path d="m 70.335938 115.847656 l 50.097656 -50.097656 c 3.253906 -3.253906 3.253906 -8.53125 0 -11.785156 l -50.097656 -50.101563 c -3.253907 -3.253906 -8.535157 -3.253906 -11.789063 0 l -50.097656 50.101563 c -3.253907 3.253906 -3.253907 8.53125 0 11.785156 l 50.097656 50.097656 c 3.253906 3.257813 8.535156 3.257813 11.789063 0 z m 0 0"/>
    </clipPath>
    <clipPath id="x">
        <path d="m 58 34 h 10 v 9 h -10 z m 0 0"/>
    </clipPath>
    <clipPath id="y">
        <path d="m 70.335938 115.847656 l 50.097656 -50.097656 c 3.253906 -3.253906 3.253906 -8.53125 0 -11.785156 l -50.097656 -50.101563 c -3.253907 -3.253906 -8.535157 -3.253906 -11.789063 0 l -50.097656 50.101563 c -3.253907 3.253906 -3.253907 8.53125 0 11.785156 l 50.097656 50.097656 c 3.253906 3.257813 8.535156 3.257813 11.789063 0 z m 0 0"/>
    </clipPath>
    <path d="m 70.40625 119.546875 l 50.207031 -50.207031 c 1.660157 -1.660156 2.574219 -3.839844 2.453125 -6.003906 l -0.140625 -3.058594 l -52.519531 -52.953125 c -3.257812 -3.289063 -8.394531 -3.121094 -11.8125 0 l -52.550781 52.996093 l -0.042969 3.144532 c -0.027344 2.125 0.761719 4.246094 2.390625 5.875 l 50.203125 50.207031 c 3.273438 3.269531 8.542969 3.269531 11.8125 0 z m 0 0" fill="url(#a)"/>
    <g clip-path="url(#b)">
        <g clip-path="url(#c)">
            <path d="m 70.335938 115.847656 l 50.097656 -50.097656 c 3.253906 -3.253906 3.253906 -8.53125 0 -11.785156 l -50.097656 -50.101563 c -3.253907 -3.253906 -8.535157 -3.253906 -11.789063 0 l -50.097656 50.101563 c -3.253907 3.253906 -3.253907 8.53125 0 11.785156 l 50.097656 50.097656 c 3.253906 3.257813 8.535156 3.257813 11.789063 0 z m 0 0" fill="#62a0ea"/>
        </g>
    </g>
    <g clip-path="url(#d)">
        <g clip-path="url(#e)">
            <path d="m 200.630501 130.781609 c 0 2.292573 -1.86168 4.154252 -4.154253 4.154252 c -2.295335 -0.002762 -4.154252 -1.861679 -4.157014 -4.157014 c 0 -2.292573 1.861679 -4.154253 4.154252 -4.154253 c 2.295335 0.002763 4.154252 1.86168 4.157015 4.157015 z m 0 0" fill="none" stroke="#99c1f1" stroke-width="4.15432" transform="matrix(0.707107 0.707107 -0.707107 0.707107 0 -162)"/>
        </g>
    </g>
    <g clip-path="url(#f)">
        <g clip-path="url(#g)">
            <path d="m 225.556015 130.781609 c 0 2.292573 -1.86168 4.154252 -4.154253 4.154252 c -2.295335 -0.002762 -4.154252 -1.861679 -4.154252 -4.154252 c -0.002762 -2.295335 1.858917 -4.157015 4.154252 -4.154252 c 2.292573 0 4.151491 1.858917 4.154253 4.154252 z m 0 0" fill="none" stroke="#99c1f1" stroke-width="4.15432" transform="matrix(0.707107 0.707107 -0.707107 0.707107 0 -162)"/>
        </g>
    </g>
    <g clip-path="url(#h)">
        <g clip-path="url(#i)">
            <path d="m 225.556015 114.1646 c 0 2.292572 -1.86168 4.154252 -4.154253 4.154252 c -2.295335 -0.002762 -4.154252 -1.86168 -4.154252 -4.154252 c -0.002762 -2.295335 1.858917 -4.157015 4.154252 -4.154253 c 2.292573 0 4.151491 1.858918 4.154253 4.154253 z m 0 0" fill="none" stroke="#99c1f1" stroke-width="4.15432" transform="matrix(0.707107 0.707107 -0.707107 0.707107 0 -162)"/>
        </g>
    </g>
    <g clip-path="url(#j)">
        <g clip-path="url(#k)">
            <path d="m 43.515625 234.34375 l -2.9375 2.9375 v 5.875 l 11.75 11.75 h 5.875 l 2.9375 -2.9375" fill="none" stroke="#99c1f1" stroke-width="4.15432" transform="matrix(1 0 0 1 0 -162)"/>
        </g>
    </g>
    <g clip-path="url(#l)">
        <g clip-path="url(#m)">
            <path d="m -80.919532 221.401762 c 0 2.292573 -1.858918 4.151491 -4.154253 4.154253 c -2.292572 0 -4.154252 -1.86168 -4.154252 -4.154253 c 0.002762 -2.295335 1.86168 -4.154252 4.154252 -4.154252 c 2.295335 -0.002762 4.157015 1.858917 4.154253 4.154252 z m 0 0" fill="none" stroke="#99c1f1" stroke-width="4.15432" transform="matrix(0.707107 -0.707107 0.707107 0.707107 0 -162)"/>
        </g>
    </g>
    <g clip-path="url(#n)">
        <g clip-path="url(#o)">
            <path d="m 65.546875 29.746094 l 14.6875 14.6875 c 1.621094 1.625 1.621094 4.253906 0 5.875 l -10.28125 10.28125 c -1.621094 1.625 -4.253906 1.625 -5.875 0 l -14.6875 -14.6875 c -1.621094 -1.621094 -1.621094 -4.25 0 -5.875 l 10.28125 -10.28125 c 1.621094 -1.621094 4.253906 -1.621094 5.875 0 z m 0 0" fill="#1a5fb4"/>
        </g>
    </g>
    <g clip-path="url(#p)">
        <g clip-path="url(#q)">
            <path d="m 50.859375 44.433594 l -4.40625 4.40625 c -0.8125 0.816406 -0.8125 2.125 0 2.9375 c 0.8125 0.816406 2.125 0.816406 2.9375 0 l 4.40625 -4.40625 z m 5.875 5.875 l -4.40625 4.40625 c -0.8125 0.816406 -0.8125 2.125 0 2.9375 c 0.8125 0.816406 2.125 0.816406 2.9375 0 l 4.40625 -4.40625 z m 5.875 5.875 l -4.40625 4.40625 c -0.8125 0.816406 -0.8125 2.125 0 2.9375 c 0.8125 0.816406 2.125 0.816406 2.9375 0 l 4.40625 -4.40625 z m 0 0" fill="#99c1f1"/>
        </g>
    </g>
    <g clip-path="url(#r)">
        <g clip-path="url(#s)">
            <path d="m 65.546875 29.746094 l 4.40625 -4.40625 c 0.8125 -0.8125 2.125 -0.8125 2.9375 0 c 0.8125 0.816406 0.8125 2.125 0 2.9375 l -4.40625 4.40625 z m 5.875 5.875 l 4.40625 -4.40625 c 0.8125 -0.8125 2.125 -0.8125 2.9375 0 c 0.8125 0.816406 0.8125 2.125 0 2.9375 l -4.40625 4.40625 z m 5.875 5.875 l 4.40625 -4.40625 c 0.8125 -0.8125 2.125 -0.8125 2.9375 0 c 0.8125 0.816406 0.8125 2.125 0 2.9375 l -4.40625 4.40625 z m 0 0" fill="#99c1f1"/>
        </g>
    </g>
    <g clip-path="url(#t)">
        <g clip-path="url(#u)">
            <path d="m 69.953125 25.339844 l 14.6875 14.6875 c 1.621094 1.625 1.621094 4.253906 0 5.875 l -11.75 11.75 c -1.621094 1.625 -4.253906 1.625 -5.875 0 l -14.6875 -14.6875 c -1.621094 -1.621094 -1.621094 -4.25 0 -5.875 l 11.75 -11.75 c 1.621094 -1.621094 4.253906 -1.621094 5.875 0 z m 0 0" fill="#1c71d8"/>
        </g>
    </g>
    <g clip-path="url(#v)">
        <g clip-path="url(#w)">
            <path d="m 67.015625 28.277344 l 11.75 11.75 l -2.9375 2.9375 l -11.75 -11.75 z m 0 0" fill="#62a0ea"/>
        </g>
    </g>
    <g clip-path="url(#x)">
        <g clip-path="url(#y)">
            <path d="m 61.140625 34.152344 l 5.875 5.875 l -2.9375 2.9375 l -5.875 -5.875 z m 0 0" fill="#62a0ea"/>
        </g>
    </g>
</svg>
