<?xml version="1.0" encoding="UTF-8"?>
<svg height="128px" viewBox="0 0 128 128" width="128px" xmlns="http://www.w3.org/2000/svg" xmlns:xlink="http://www.w3.org/1999/xlink">
    <linearGradient id="a" gradientUnits="userSpaceOnUse" x1="8.157114" x2="122.745697" y1="77.241079" y2="77.241079">
        <stop offset="0" stop-color="#99c1f1"/>
        <stop offset="0.0575141" stop-color="#1a5fb4"/>
        <stop offset="0.388232" stop-color="#1a5fb4"/>
        <stop offset="0.473021" stop-color="#2b7be0"/>
        <stop offset="0.618795" stop-color="#154d91"/>
        <stop offset="0.953538" stop-color="#1a5fb4"/>
        <stop offset="1" stop-color="#2f7fe1"/>
    </linearGradient>
    <clipPath id="b">
        <path d="m 6 1 h 117 v 118 h -117 z m 0 0"/>
    </clipPath>
    <clipPath id="c">
        <path d="m 70.335938 115.847656 l 50.097656 -50.097656 c 3.253906 -3.253906 3.253906 -8.53125 0 -11.785156 l -50.097656 -50.101563 c -3.253907 -3.253906 -8.535157 -3.253906 -11.789063 0 l -50.097656 50.101563 c -3.253907 3.253906 -3.253907 8.53125 0 11.785156 l 50.097656 50.097656 c 3.253906 3.257813 8.535156 3.257813 11.789063 0 z m 0 0"/>
    </clipPath>
    <path d="m 70.40625 119.546875 l 50.207031 -50.207031 c 1.660157 -1.660156 2.574219 -3.839844 2.453125 -6.003906 l -0.140625 -3.058594 l -52.519531 -52.953125 c -3.257812 -3.289063 -8.394531 -3.121094 -11.8125 0 l -52.550781 52.996093 l -0.042969 3.144532 c -0.027344 2.125 0.761719 4.246094 2.390625 5.875 l 50.203125 50.207031 c 3.273438 3.269531 8.542969 3.269531 11.8125 0 z m 0 0" fill="url(#a)"/>
    <g clip-path="url(#b)">
        <g clip-path="url(#c)">
            <path d="m 70.335938 115.847656 l 50.097656 -50.097656 c 3.253906 -3.253906 3.253906 -8.53125 0 -11.785156 l -50.097656 -50.101563 c -3.253907 -3.253906 -8.535157 -3.253906 -11.789063 0 l -50.097656 50.101563 c -3.253907 3.253906 -3.253907 8.53125 0 11.785156 l 50.097656 50.097656 c 3.253906 3.257813 8.535156 3.257813 11.789063 0 z m 0 0" fill="#62a0ea"/>
        </g>
    </g>
    <path d="m 64.90625 30.5625 c -0.9375 0 -1.875 0.046875 -2.789062 0.132812 l -1.726563 8.898438 c -1.421875 0.3125 -2.816406 0.746094 -4.117187 1.328125 l -6.507813 -6.242187 c -1.652344 0.976562 -3.089844 2.183593 -4.515625 3.453124 l 3.851562 8.101563 c -0.945312 1.058594 -1.804687 2.21875 -2.523437 3.453125 l -8.898437 -1.195312 c -0.753907 1.738281 -1.3125 3.554687 -1.726563 5.445312 l 7.835937 4.25 c -0.074218 0.714844 -0.132812 1.390625 -0.132812 2.125 s 0.0625 1.410156 0.132812 2.125 l -7.835937 4.25 c 0.414063 1.890625 0.972656 3.707031 1.726563 5.445312 l 8.898437 -1.195312 c 0.71875 1.230469 1.578125 2.394531 2.523437 3.453125 l -3.851562 8.101563 c 1.425781 1.269531 2.863281 2.476562 4.515625 3.453124 l 6.507813 -6.242187 c 1.300781 0.582031 2.695312 1.015625 4.117187 1.328125 l 1.726563 8.898438 c 0.914062 0.085937 1.851562 0.132812 2.789062 0.132812 s 1.875 -0.046875 2.789062 -0.132812 l 1.726563 -8.898438 c 1.421875 -0.3125 2.816406 -0.746094 4.117187 -1.328125 l 6.507813 6.242187 c 1.652344 -0.976562 3.089844 -2.183593 4.515625 -3.453124 l -3.851562 -8.101563 c 0.945312 -1.058594 1.804687 -2.222656 2.523437 -3.453125 l 8.898437 1.195312 c 0.753907 -1.738281 1.3125 -3.554687 1.726563 -5.445312 l -7.835937 -4.25 c 0.074218 -0.714844 0.132812 -1.390625 0.132812 -2.125 s -0.058594 -1.410156 -0.132812 -2.125 l 7.835937 -4.25 c -0.414063 -1.890625 -0.972656 -3.707031 -1.726563 -5.445312 l -8.898437 1.195312 c -0.71875 -1.234375 -1.578125 -2.394531 -2.523437 -3.453125 l 3.851562 -8.101563 c -1.425781 -1.269531 -2.863281 -2.476562 -4.515625 -3.453124 l -6.507813 6.242187 c -1.300781 -0.582031 -2.695312 -1.015625 -4.117187 -1.328125 l -1.726563 -8.898438 c -0.914062 -0.085937 -1.851562 -0.132812 -2.789062 -0.132812 z m 0 17 c 7.042969 0 12.75 5.707031 12.75 12.75 s -5.707031 12.75 -12.75 12.75 s -12.75 -5.707031 -12.75 -12.75 s 5.707031 -12.75 12.75 -12.75 z m 0 0" fill="#99c1f1"/>
</svg>
