<svg xmlns="http://www.w3.org/2000/svg" xmlns:xlink="http://www.w3.org/1999/xlink" width="128" height="128"><defs><clipPath id="a"><path d="M0 0h128v128H0z"/></clipPath><clipPath id="b"><path d="M0 0h128v128H0z"/></clipPath><clipPath id="h"><path d="M0 0h128v128H0z"/></clipPath><clipPath id="f"><path d="M0 0h128v128H0z"/></clipPath><g id="e" clip-path="url(#b)" filter="url(#c)"><use xlink:href="#d"/></g><g id="i" clip-path="url(#f)"><path d="M128 80.64V128H0V80.64zm0 0" fill="url(#g)"/><path d="M13.309 80.64L60.664 128H81.88l-47.36-47.36zm42.421 0L103.094 128h21.215L76.945 80.64zm42.43 0L128 110.48V89.27l-8.629-8.63zM0 88.548v21.215L18.238 128h21.215zm0 0"/></g><g id="d" clip-path="url(#a)"><path d="M20 72h88a8 8 0 018 8v28a8 8 0 01-8 8H20a8 8 0 01-8-8V80a8 8 0 018-8zm0 0" fill="#98c1f1"/><path d="M12 20h104v88H12zm0 0" fill="#e7f0fc"/><path d="M55 29a5 5 0 11-10 0 5 5 0 0110 0zm0 0M83 29a5 5 0 11-10 0 5 5 0 0110 0zm0 0" fill="#1a5fb4"/><path d="M50 28v-8c0-7.758 6.242-14 14-14s14 6.242 14 14v8" fill="none" stroke-width="4" stroke-linecap="round" stroke-linejoin="round" stroke="#62a0ea"/><path d="M64 44c-11.047 0-20 8.953-20 20s8.953 20 20 20 20-8.953 20-20-8.953-20-20-20zm-8 10a1.999 1.999 0 110 4 1.999 1.999 0 110-4zm8 0a1.999 1.999 0 110 4 1.999 1.999 0 110-4zm8 0a1.999 1.999 0 110 4 1.999 1.999 0 110-4zm-16 8a1.999 1.999 0 110 4 1.999 1.999 0 110-4zm8 0a1.999 1.999 0 110 4 1.999 1.999 0 110-4zm8 0a1.999 1.999 0 110 4 1.999 1.999 0 110-4zm-16 8a1.999 1.999 0 110 4 1.999 1.999 0 110-4zm8 0a1.999 1.999 0 110 4 1.999 1.999 0 110-4zm8 0a1.999 1.999 0 110 4 1.999 1.999 0 110-4zm0 0" fill="#3584e4"/></g><g id="k" clip-path="url(#h)"><use xlink:href="#i" mask="url(#j)"/></g><mask id="l"><use xlink:href="#e"/></mask><mask id="j"><g filter="url(#c)"><path fill-opacity=".8" d="M0 0h128v128H0z"/></g></mask><linearGradient id="g" gradientUnits="userSpaceOnUse" x1="300" y1="235" x2="428" y2="235" gradientTransform="matrix(0 .37 -.98462 0 295.385 -30.36)"><stop offset="0" stop-color="#f9f06b"/><stop offset="1" stop-color="#f5c211"/></linearGradient><filter id="c" filterUnits="objectBoundingBox" x="0%" y="0%" width="100%" height="100%"><feColorMatrix in="SourceGraphic" values="0 0 0 0 1 0 0 0 0 1 0 0 0 0 1 0 0 0 1 0"/></filter></defs><path d="M20 72h88a8 8 0 018 8v28a8 8 0 01-8 8H20a8 8 0 01-8-8V80a8 8 0 018-8zm0 0" fill="#98c1f1"/><path d="M12 20h104v88H12zm0 0" fill="#e7f0fc"/><path d="M55 29a5 5 0 11-10 0 5 5 0 0110 0zm0 0M83 29a5 5 0 11-10 0 5 5 0 0110 0zm0 0" fill="#1a5fb4"/><path d="M50 28v-8c0-7.758 6.242-14 14-14s14 6.242 14 14v8" fill="none" stroke-width="4" stroke-linecap="round" stroke-linejoin="round" stroke="#62a0ea"/><path d="M64 44c-11.047 0-20 8.953-20 20s8.953 20 20 20 20-8.953 20-20-8.953-20-20-20zm-8 10a1.999 1.999 0 110 4 1.999 1.999 0 110-4zm8 0a1.999 1.999 0 110 4 1.999 1.999 0 110-4zm8 0a1.999 1.999 0 110 4 1.999 1.999 0 110-4zm-16 8a1.999 1.999 0 110 4 1.999 1.999 0 110-4zm8 0a1.999 1.999 0 110 4 1.999 1.999 0 110-4zm8 0a1.999 1.999 0 110 4 1.999 1.999 0 110-4zm-16 8a1.999 1.999 0 110 4 1.999 1.999 0 110-4zm8 0a1.999 1.999 0 110 4 1.999 1.999 0 110-4zm8 0a1.999 1.999 0 110 4 1.999 1.999 0 110-4zm0 0" fill="#3584e4"/><use xlink:href="#k" mask="url(#l)"/></svg>