<?xml version="1.0" encoding="UTF-8" standalone="no"?>
<svg
   xmlns:dc="http://purl.org/dc/elements/1.1/"
   xmlns:cc="http://creativecommons.org/ns#"
   xmlns:rdf="http://www.w3.org/1999/02/22-rdf-syntax-ns#"
   xmlns:svg="http://www.w3.org/2000/svg"
   xmlns="http://www.w3.org/2000/svg"
   xmlns:xlink="http://www.w3.org/1999/xlink"
   viewBox="0 0 128 128"
   style="display:inline;enable-background:new"
   version="1.0"
   id="svg11300"
   height="128"
   width="128">
  <title
     id="title4162">Adwaita Icon Template</title>
  <defs
     id="defs3">
    <linearGradient
       id="linearGradient1494">
      <stop
         id="stop1490"
         offset="0"
         style="stop-color:#babdb6;stop-opacity:1;" />
      <stop
         id="stop1492"
         offset="1"
         style="stop-color:#babdb6;stop-opacity:0;" />
    </linearGradient>
    <linearGradient
       gradientUnits="userSpaceOnUse"
       y2="20"
       x2="280"
       y1="172"
       x1="280"
       id="linearGradient1496"
       xlink:href="#linearGradient1494" />
  </defs>
  <metadata
     id="metadata4">
    <rdf:RDF>
      <cc:Work
         rdf:about="">
        <dc:format>image/svg+xml</dc:format>
        <dc:type
           rdf:resource="http://purl.org/dc/dcmitype/StillImage" />
        <dc:creator>
          <cc:Agent>
            <dc:title>GNOME Design Team</dc:title>
          </cc:Agent>
        </dc:creator>
        <dc:source />
        <cc:license
           rdf:resource="http://creativecommons.org/licenses/by-sa/4.0/" />
        <dc:title>Adwaita Icon Template</dc:title>
        <dc:subject>
          <rdf:Bag />
        </dc:subject>
        <dc:date />
        <dc:rights>
          <cc:Agent>
            <dc:title />
          </cc:Agent>
        </dc:rights>
        <dc:publisher>
          <cc:Agent>
            <dc:title />
          </cc:Agent>
        </dc:publisher>
        <dc:identifier />
        <dc:relation />
        <dc:language />
        <dc:coverage />
        <dc:description />
        <dc:contributor>
          <cc:Agent>
            <dc:title />
          </cc:Agent>
        </dc:contributor>
      </cc:Work>
      <cc:License
         rdf:about="http://creativecommons.org/licenses/by-sa/4.0/">
        <cc:permits
           rdf:resource="http://creativecommons.org/ns#Reproduction" />
        <cc:permits
           rdf:resource="http://creativecommons.org/ns#Distribution" />
        <cc:requires
           rdf:resource="http://creativecommons.org/ns#Notice" />
        <cc:requires
           rdf:resource="http://creativecommons.org/ns#Attribution" />
        <cc:permits
           rdf:resource="http://creativecommons.org/ns#DerivativeWorks" />
        <cc:requires
           rdf:resource="http://creativecommons.org/ns#ShareAlike" />
      </cc:License>
    </rdf:RDF>
  </metadata>
  <g
     transform="translate(0,-172)"
     style="display:inline"
     id="layer1">
    <g
       style="display:none"
       id="layer2">
      <text
         id="context"
         y="143.54494"
         x="7.9553046"
         style="font-style:normal;font-variant:normal;font-weight:normal;font-stretch:normal;font-size:10.99333954px;line-height:125%;font-family:Cantarell;-inkscape-font-specification:'Cantarell, Normal';text-align:start;writing-mode:lr-tb;text-anchor:start;display:inline;fill:#000000;fill-opacity:1;stroke:none;stroke-width:0.60068518;enable-background:new"
         xml:space="preserve"><tspan
           style="stroke-width:0.60068518"
           y="143.54494"
           x="7.9553046"
           id="tspan2716">apps</tspan></text>
      <text
         xml:space="preserve"
         style="font-style:normal;font-variant:normal;font-weight:bold;font-stretch:normal;font-size:10.99333954px;line-height:125%;font-family:Cantarell;-inkscape-font-specification:'Cantarell, Bold';text-align:start;writing-mode:lr-tb;text-anchor:start;display:inline;fill:#000000;fill-opacity:1;stroke:none;stroke-width:0.60068518;enable-background:new"
         x="7.6001945"
         y="159.04199"
         id="text3021"><tspan
           style="stroke-width:0.60068518"
           id="tspan3023"
           x="7.6001945"
           y="159.04199">org.gnome.Software</tspan></text>
      <rect
         y="172"
         x="9.2651362e-08"
         height="128"
         width="128"
         id="rect13805"
         style="display:inline;overflow:visible;visibility:visible;fill:#f0f0f0;fill-opacity:1;fill-rule:nonzero;stroke:none;stroke-width:0.5;marker:none;enable-background:accumulate" />
      <g
         transform="matrix(0.25,0,0,0.25,6.9488522e-8,225)"
         id="g1168"
         style="display:inline;enable-background:new">
        <rect
           style="opacity:0.1;fill:#2864b0;fill-opacity:1;stroke:none;stroke-width:1;stroke-linecap:butt;stroke-linejoin:miter;stroke-miterlimit:4;stroke-dasharray:none;stroke-dashoffset:0;stroke-opacity:1;marker:none;marker-start:none;marker-mid:none;marker-end:none;paint-order:normal"
           id="rect1110"
           width="319.99979"
           height="448"
           x="96"
           y="-180"
           rx="32"
           ry="32" />
        <rect
           style="display:inline;opacity:0.1;fill:#2864b0;fill-opacity:1;stroke:none;stroke-width:1;stroke-linecap:butt;stroke-linejoin:miter;stroke-miterlimit:4;stroke-dasharray:none;stroke-dashoffset:0;stroke-opacity:1;marker:none;marker-start:none;marker-mid:none;marker-end:none;paint-order:normal;enable-background:new"
           id="rect1110-8"
           width="416"
           height="416"
           x="48"
           y="-164"
           rx="32"
           ry="32" />
        <rect
           style="display:inline;opacity:0.1;fill:#2864b0;fill-opacity:1;stroke:none;stroke-width:1;stroke-linecap:butt;stroke-linejoin:miter;stroke-miterlimit:4;stroke-dasharray:none;stroke-dashoffset:0;stroke-opacity:1;marker:none;marker-start:none;marker-mid:none;marker-end:none;paint-order:normal;enable-background:new"
           id="rect1110-8-9"
           width="448"
           height="320"
           x="32"
           y="-116"
           rx="32"
           ry="32" />
        <circle
           style="opacity:0.1;fill:#2864b0;fill-opacity:1;stroke:none;stroke-width:1;stroke-linecap:butt;stroke-linejoin:miter;stroke-miterlimit:4;stroke-dasharray:none;stroke-dashoffset:0;stroke-opacity:1;marker:none;marker-start:none;marker-mid:none;marker-end:none;paint-order:normal"
           id="path1142"
           r="240"
           cy="44"
           cx="256" />
      </g>
    </g>
    <g
       style="display:none"
       id="layer3">
      <path
         id="path965"
         d="M 448.04311,-108.42702 V 243.74755 H 64.223298 l -0.18019,-352.17457 z"
         style="display:inline;opacity:0.15;fill:#000000;fill-opacity:1;stroke:none;stroke-width:0.04519285px;stroke-linecap:butt;stroke-linejoin:miter;stroke-miterlimit:4;stroke-dasharray:none;stroke-dashoffset:0;stroke-opacity:1;marker:none;marker-start:none;marker-mid:none;marker-end:none;paint-order:normal;enable-background:new" />
      <path
         id="rect932-6"
         d="m 216.04311,-207.25245 h 80 l 32,32 h -144 z"
         style="display:inline;opacity:0.15;fill:#000000;fill-opacity:1;stroke:none;stroke-width:0.04519285px;stroke-linecap:butt;stroke-linejoin:miter;stroke-miterlimit:4;stroke-dasharray:none;stroke-dashoffset:0;stroke-opacity:1;marker:none;marker-start:none;marker-mid:none;marker-end:none;paint-order:normal;enable-background:new" />
    </g>
    <g
       style="display:inline"
       id="layer9">
      <g
         transform="rotate(-30,403.50258,307.81151)"
         id="g1710" />
      <rect
         style="display:inline;opacity:1;fill:#98c1f1;fill-opacity:1;stroke:none;stroke-width:0.00498205px;stroke-linecap:butt;stroke-linejoin:miter;stroke-miterlimit:4;stroke-dasharray:none;stroke-dashoffset:0;stroke-opacity:1;marker:none;marker-start:none;marker-mid:none;marker-end:none;paint-order:normal;enable-background:new"
         id="rect1480-3-7-1-4"
         width="104"
         height="8"
         x="12"
         y="280"
         rx="0"
         ry="0" />
      <rect
         style="opacity:1;vector-effect:none;fill:#e7f0fc;fill-opacity:1;stroke:none;stroke-width:27.71278;stroke-linecap:butt;stroke-linejoin:round;stroke-miterlimit:4;stroke-dasharray:none;stroke-dashoffset:0;stroke-opacity:1;marker:none;marker-start:none;marker-mid:none;marker-end:none;paint-order:normal"
         id="rect1051"
         width="104"
         height="88"
         x="12"
         y="192" />
      <path
         id="path27666"
         d="m 12,280 h 104 l -4,4 H 16 Z"
         style="opacity:0.2;fill:#1a5fb4;fill-opacity:1;stroke:none;stroke-width:0.66666669px;stroke-linecap:butt;stroke-linejoin:miter;stroke-opacity:1" />
      <circle
         r="4"
         cy="200"
         cx="50"
         id="path1047"
         style="opacity:1;fill:#1c71d8;fill-opacity:1;stroke:none;stroke-width:4;stroke-linecap:round;stroke-linejoin:round;stroke-miterlimit:4;stroke-dasharray:none;stroke-dashoffset:0;stroke-opacity:1" />
      <circle
         style="opacity:1;fill:#1c71d8;fill-opacity:1;stroke:none;stroke-width:4;stroke-linecap:round;stroke-linejoin:round;stroke-miterlimit:4;stroke-dasharray:none;stroke-dashoffset:0;stroke-opacity:1"
         id="circle1049"
         cx="78"
         cy="200"
         r="4" />
      <path
         id="rect1044"
         d="m 50,200 v -8 c 0,-7.756 6.244,-14 14,-14 7.756,0 14,6.244 14,14 v 8"
         style="opacity:1;fill:none;fill-opacity:1;stroke:#62a0ea;stroke-width:4;stroke-linecap:round;stroke-linejoin:round;stroke-miterlimit:4;stroke-dasharray:none;stroke-dashoffset:0;stroke-opacity:1" />
      <path
         style="display:inline;opacity:0.93000034;fill:#3584e4;fill-opacity:1;stroke:none;stroke-width:0.0112982px;stroke-linecap:butt;stroke-linejoin:miter;stroke-miterlimit:4;stroke-dasharray:none;stroke-dashoffset:0;stroke-opacity:1;marker:none;marker-start:none;marker-mid:none;marker-end:none;paint-order:normal;enable-background:new"
         d="m 64.000001,216 a 20,20.000002 0 0 0 -20,20 20,20.000002 0 0 0 20,20 20,20.000002 0 0 0 19.999998,-20 20,20.000002 0 0 0 -19.999998,-20 z m -8,10 a 1.9999997,2 0 0 1 2,2 1.9999997,2 0 0 1 -2,2 1.9999997,2 0 0 1 -2,-2 1.9999997,2 0 0 1 2,-2 z m 8,0 a 1.9999997,2 0 0 1 2,2 1.9999997,2 0 0 1 -2,2 1.9999997,2 0 0 1 -2,-2 1.9999997,2 0 0 1 2,-2 z m 8,0 a 1.9999997,2 0 0 1 2,2 1.9999997,2 0 0 1 -2,2 1.9999997,2 0 0 1 -2,-2 1.9999997,2 0 0 1 2,-2 z m -16,8 a 1.9999997,2 0 0 1 2,2 1.9999997,2 0 0 1 -2,2 1.9999997,2 0 0 1 -2,-2 1.9999997,2 0 0 1 2,-2 z m 8,0 a 1.9999997,2 0 0 1 2,2 1.9999997,2 0 0 1 -2,2 1.9999997,2 0 0 1 -2,-2 1.9999997,2 0 0 1 2,-2 z m 8,0 a 1.9999997,2 0 0 1 2,2 1.9999997,2 0 0 1 -2,2 1.9999997,2 0 0 1 -2,-2 1.9999997,2 0 0 1 2,-2 z m -16,8 a 1.9999997,2 0 0 1 2,2 1.9999997,2 0 0 1 -2,2 1.9999997,2 0 0 1 -2,-2 1.9999997,2 0 0 1 2,-2 z m 8,0 a 1.9999997,2 0 0 1 2,2 1.9999997,2 0 0 1 -2,2 1.9999997,2 0 0 1 -2,-2 1.9999997,2 0 0 1 2,-2 z m 8,0 a 1.9999997,2 0 0 1 2,2 1.9999997,2 0 0 1 -2,2 1.9999997,2 0 0 1 -2,-2 1.9999997,2 0 0 1 2,-2 z"
         id="path920" />
      <path
         style="opacity:0.1;fill:#ffffff;fill-opacity:1;stroke:none;stroke-width:0.66666669px;stroke-linecap:butt;stroke-linejoin:miter;stroke-opacity:1"
         d="m 12,288 h 104 l -4,-4 H 16 Z"
         id="path899" />
      <path
         id="path901"
         d="m 12,280 v 8 l 4,-4 z"
         style="opacity:0.1;fill:#3584e4;fill-opacity:1;stroke:none;stroke-width:0.66666669px;stroke-linecap:butt;stroke-linejoin:miter;stroke-opacity:1" />
      <path
         style="opacity:0.1;fill:#3584e4;fill-opacity:1;stroke:none;stroke-width:0.66666669px;stroke-linecap:butt;stroke-linejoin:miter;stroke-opacity:1"
         d="m 116,280 v 8 l -4,-4 z"
         id="path904" />
    </g>
    <g
       style="fill:url(#linearGradient1496);fill-opacity:1"
       id="g1480" />
  </g>
</svg>
