<?xml version="1.0" encoding="UTF-8" standalone="no"?>
<!-- Created with Inkscape (http://www.inkscape.org/) -->

<svg
   xmlns:dc="http://purl.org/dc/elements/1.1/"
   xmlns:cc="http://creativecommons.org/ns#"
   xmlns:rdf="http://www.w3.org/1999/02/22-rdf-syntax-ns#"
   xmlns:svg="http://www.w3.org/2000/svg"
   xmlns="http://www.w3.org/2000/svg"
   xmlns:sodipodi="http://sodipodi.sourceforge.net/DTD/sodipodi-0.dtd"
   xmlns:inkscape="http://www.inkscape.org/namespaces/inkscape"
   width="16"
   height="16"
   viewBox="0 0 16 16"
   version="1.1"
   id="svg36018"
   inkscape:version="0.92pre1 r"
   sodipodi:docname="software-installed-symbolic.svg">
  <defs
     id="defs36012" />
  <sodipodi:namedview
     id="base"
     pagecolor="#ffffff"
     bordercolor="#666666"
     borderopacity="1.0"
     inkscape:pageopacity="0.0"
     inkscape:pageshadow="2"
     inkscape:zoom="1"
     inkscape:cx="-2.1503288"
     inkscape:cy="-3.6096175"
     inkscape:document-units="px"
     inkscape:current-layer="layer1"
     showgrid="false"
     units="px"
     showborder="false"
     borderlayer="true"
     inkscape:showpageshadow="false"
     inkscape:window-width="1440"
     inkscape:window-height="836"
     inkscape:window-x="0"
     inkscape:window-y="27"
     inkscape:window-maximized="1">
    <inkscape:grid
       type="xygrid"
       id="grid36020" />
  </sodipodi:namedview>
  <metadata
     id="metadata36015">
    <rdf:RDF>
      <cc:Work
         rdf:about="">
        <dc:format>image/svg+xml</dc:format>
        <dc:type
           rdf:resource="http://purl.org/dc/dcmitype/StillImage" />
        <dc:title></dc:title>
      </cc:Work>
    </rdf:RDF>
  </metadata>
  <g
     inkscape:label="Layer 1"
     inkscape:groupmode="layer"
     id="layer1"
     transform="translate(0,-292.76665)">
    <path
       inkscape:connector-curvature="0"
       id="path20599"
       d="m 8,292.76665 c -1.65335,0 -3,1.34665 -3,3 v 1 H 3.09375 C 2.48781,296.76665 2,297.25446 2,297.8604 v 9.8125 c 0,0.60594 0.48781,1.09375 1.09375,1.09375 h 9.8125 c 0.60594,0 1.09375,-0.48781 1.09375,-1.09375 v -6.67773 l -6.44141,6.33398 -4.125,-4.07617 2.0625,-1.99414 2.03125,1.97656 6.20313,-6.07227 c -0.20033,-0.23701 -0.48817,-0.39648 -0.82422,-0.39648 H 11 v -1 c 0,-1.65335 -1.34665,-3 -3,-3 z m 0,1 c 1.11665,0 2,0.88335 2,2 v 1 H 6 v -1 c 0,-1.11665 0.88335,-2 2,-2 z m -2.53125,4 c 0.28679,0 0.53125,0.22386 0.53125,0.5 0,0.27614 -0.24446,0.5 -0.53125,0.5 -0.28679,0 -0.5,-0.22386 -0.5,-0.5 0,-0.27614 0.21321,-0.5 0.5,-0.5 z m 5,0 c 0.28679,0 0.53125,0.22386 0.53125,0.5 0,0.27614 -0.24446,0.5 -0.53125,0.5 -0.28679,0 -0.5,-0.22386 -0.5,-0.5 0,-0.27614 0.21321,-0.5 0.5,-0.5 z"
       style="color:#000000;display:inline;overflow:visible;visibility:visible;opacity:1;fill:#888a85;fill-opacity:1;fill-rule:nonzero;stroke:none;stroke-width:0.99999988;marker:none;enable-background:accumulate" />
  </g>
</svg>
